<svg width="51" height="51" viewBox="0 0 51 51" fill="none" xmlns="http://www.w3.org/2000/svg">
<path d="M25.7812 50.0759C39.5884 50.0759 50.7812 38.883 50.7812 25.0759C50.7812 11.2688 39.5884 0.0759277 25.7812 0.0759277C11.9741 0.0759277 0.78125 11.2688 0.78125 25.0759C0.78125 38.883 11.9741 50.0759 25.7812 50.0759Z" fill="white"/>
<path d="M25.7821 49.3814C39.2057 49.3814 50.0877 38.4994 50.0877 25.0758C50.0877 11.6522 39.2057 0.770264 25.7821 0.770264C12.3585 0.770264 1.47656 11.6522 1.47656 25.0758C1.47656 38.4994 12.3585 49.3814 25.7821 49.3814Z" stroke="black" stroke-width="1.5"/>
<path d="M19.1836 24.8225L19.7475 24.1635L24.3218 18.8267L25.8704 20.1461L22.7336 23.8072H32.7246V25.8406H22.7336L25.8704 29.5017L24.3218 30.8211L19.7475 25.4843L19.1836 24.8225Z" fill="black"/>
</svg>