<svg width="252" height="236" viewBox="0 0 252 236" fill="none" xmlns="http://www.w3.org/2000/svg">
<g clip-path="url(#clip0_280_1039)">
<path d="M160.866 2.51441L2.31427 20.2376V178.834L160.866 161.111V2.51441ZM162.999 0.12915V163.019L0.181641 181.219V18.3291L162.999 0.12915Z" fill="black"/>
<path d="M190.292 20.716L31.7401 38.4392V197.035L190.292 179.312V20.716ZM192.425 18.3307V181.221L29.6074 199.421V36.5307L192.425 18.3307Z" fill="black"/>
<path d="M219.717 38.9144L61.1649 56.6376V215.234L219.717 197.511V38.9144ZM221.85 36.5291V199.419L59.0322 217.619V54.7291L221.85 36.5291Z" fill="black"/>
<path d="M249.143 57.1138L90.5906 74.837V233.433L249.143 215.71V57.1138ZM251.275 54.7286V217.618L88.458 235.818V72.9286L251.275 54.7286Z" fill="black"/>
</g>
<defs>
<clipPath id="clip0_280_1039">
<rect width="251.094" height="235.689" fill="white" transform="translate(0.181641 0.12915)"/>
</clipPath>
</defs>
</svg>
