<svg width="195" height="49" viewBox="0 0 195 49" fill="none" xmlns="http://www.w3.org/2000/svg">
<path d="M4.62649 43.6611L0.757812 0.361084H43.2691L39.3962 43.6543L21.9874 48.4702L4.62649 43.6611Z" fill="black"/>
<path d="M22.0137 44.7891L36.0809 40.8976L39.3905 3.90161H22.0137V44.7891Z" fill="black"/>
<path d="M22.013 19.9609H14.9706L14.4842 14.5228H22.013V9.21216H8.66797L8.79536 10.6369L10.1034 25.2714H22.013V19.9609ZM22.013 33.753L21.9898 33.7592L16.0625 32.1622L15.6836 27.9267H10.3412L11.0868 36.2651L21.9885 39.285L22.013 39.2782V33.753Z" fill="#EBEBEB"/>
<path d="M21.9961 19.9609V25.2714H28.5494L27.9317 32.1588L21.9961 33.7574V39.2824L32.9063 36.2651L32.9864 35.3679L34.237 21.3869L34.3668 19.9609H32.9327H21.9961ZM21.9961 9.21216V14.5228H34.8511L34.9579 13.3291L35.2004 10.6369L35.3276 9.21216H21.9961Z" fill="white"/>
<path d="M175.242 37.0323L175.671 31.4943C178.063 32.6903 180.364 33.2883 182.574 33.2883C184.16 33.2883 185.434 32.9763 186.396 32.3523C187.358 31.7283 187.839 30.8833 187.839 29.8173C187.839 29.0373 187.566 28.3743 187.02 27.8283C186.5 27.2823 185.798 26.8793 184.914 26.6193C184.056 26.3593 183.198 26.1773 182.34 26.0733C181.482 25.9433 180.598 25.8783 179.688 25.8783C178.492 25.8783 177.387 25.9563 176.373 26.1123L177.543 10.0833H192.948L192.558 15.5043H183.315L182.886 21.1203C183.978 21.1463 185.031 21.2633 186.045 21.4713C187.085 21.6793 188.099 22.0043 189.087 22.4463C190.075 22.8883 190.92 23.4343 191.622 24.0843C192.35 24.7343 192.935 25.5403 193.377 26.5023C193.819 27.4643 194.04 28.5433 194.04 29.7393C194.04 32.4433 193 34.6273 190.92 36.2913C188.84 37.9293 186.175 38.7483 182.925 38.7483C179.857 38.7483 177.296 38.1763 175.242 37.0323Z" fill="black"/>
<path d="M145.25 38.3193V10.0833H151.451V32.8983H163.814V38.3193H145.25Z" fill="black"/>
<path d="M125.665 31.8063L121.57 25.9953C120.322 24.2273 118.944 22.2123 117.436 19.9503L117.358 19.9893C117.41 22.6933 117.436 25.0333 117.436 27.0093V38.3193H111.469V10.0833H117.436L125.821 22.0173L134.206 10.0833H140.095V38.3193H133.894V27.0093C133.894 25.0333 133.92 22.6933 133.972 19.9893L133.894 19.9503C132.386 22.2123 131.008 24.2273 129.76 25.9953L125.665 31.8063Z" fill="black"/>
<path d="M92.9737 38.3193V15.5043H83.8477V10.0833H108.301V15.5043H99.1747V38.3193H92.9737Z" fill="black"/>
<path d="M56.0918 38.3193V10.0833H62.2928V21.0033H74.4998V10.0833H80.7008V38.3193H74.4998V26.4243H62.2928V38.3193H56.0918Z" fill="black"/>
</svg>
