<svg width="148" height="60" viewBox="0 0 148 60" fill="none" xmlns="http://www.w3.org/2000/svg">
<path d="M0.522461 55.5206H29.1761V59.6337H0.522461V55.5206Z" fill="white"/>
<path d="M0.522461 47.6313H29.1761V51.7588H0.522461V47.6313Z" fill="white"/>
<path d="M8.69727 39.7565H20.9878V43.8842H8.69727V39.7565Z" fill="white"/>
<path d="M8.69727 31.8817H20.9878V36.0094H8.69727V31.8817Z" fill="white"/>
<path d="M8.69727 24.0068H20.9878V28.1345H8.69727V24.0068Z" fill="white"/>
<path d="M8.69727 16.1174H20.9878V20.2451H8.69727V16.1174Z" fill="white"/>
<path d="M29.1761 8.24268H0.522461V12.3704H29.1761V8.24268Z" fill="white"/>
<path d="M29.1761 0.36792H0.522461V4.49561H29.1761V0.36792Z" fill="white"/>
<path d="M33.2637 51.7589H77.3316C78.0759 50.4855 78.6306 49.0949 78.9665 47.6312H33.2637V51.7589Z" fill="white"/>
<path d="M73.9019 31.8817H41.4531V36.0094H77.3323C76.3979 34.4285 75.2448 33.0381 73.9019 31.8817Z" fill="white"/>
<path d="M41.4531 24.0068V28.1345H73.9019C75.2741 26.9782 76.4271 25.5876 77.3323 24.0068H41.4531Z" fill="white"/>
<path d="M77.3317 8.24268H33.2637V12.3704H78.9665C78.587 10.9066 78.0323 9.51621 77.3317 8.24268Z" fill="white"/>
<path d="M63.7858 0.36792H33.2637V4.49561H74.31C71.5659 1.94869 67.8437 0.36792 63.7858 0.36792Z" fill="white"/>
<path d="M53.729 16.1174H41.4531V20.2451H53.729V16.1174Z" fill="white"/>
<path d="M66.0195 20.2451H78.8647C79.2296 18.9278 79.4194 17.5373 79.4194 16.1174H66.0195V20.2451Z" fill="white"/>
<path d="M41.4531 39.7565H53.729V43.8842H41.4531V39.7565Z" fill="white"/>
<path d="M66.0195 39.7565V43.8842H79.4194C79.4194 42.4643 79.2296 41.0739 78.8647 39.7565H66.0195Z" fill="white"/>
<path d="M33.2637 59.6044L63.7858 59.6483C67.8729 59.6483 71.5659 58.0676 74.3246 55.5206H33.2637V59.6044Z" fill="white"/>
<path d="M82.3965 55.5206H102.861V59.6337H82.3965V55.5206Z" fill="white"/>
<path d="M82.3965 47.6313H102.861V51.7588H82.3965V47.6313Z" fill="white"/>
<path d="M90.5703 39.7565H102.861V43.8842H90.5703V39.7565Z" fill="white"/>
<path d="M90.5703 31.8817H102.861V36.0094H90.5703V31.8817Z" fill="white"/>
<path d="M108.554 8.24268H82.3965V12.3704H109.97L108.554 8.24268Z" fill="white"/>
<path d="M105.839 0.36792H82.3965V4.49561H107.255L105.839 0.36792Z" fill="white"/>
<path d="M127.413 55.5206H147.893V59.6337H127.413V55.5206Z" fill="white"/>
<path d="M127.413 47.6313H147.893V51.7588H127.413V47.6313Z" fill="white"/>
<path d="M127.413 39.7565H139.704V43.8842H127.413V39.7565Z" fill="white"/>
<path d="M127.413 31.8817H139.704V36.0094H127.413V31.8817Z" fill="white"/>
<path d="M127.413 28.1345H139.703V24.0068H127.413H116.29L115.137 27.3442L113.984 24.0068H102.861H90.5703V28.1345H102.861V24.3435L104.16 28.1345H126.114L127.413 24.3435V28.1345Z" fill="white"/>
<path d="M139.704 16.1174H119.006L117.59 20.2451H139.704V16.1174Z" fill="white"/>
<path d="M124.45 0.36792L123.034 4.49561H147.893V0.36792H124.45Z" fill="white"/>
<path d="M115.138 59.6044L116.553 55.5206H113.722L115.138 59.6044Z" fill="white"/>
<path d="M112.423 51.7588H117.853L119.312 47.6313H110.978L112.423 51.7588Z" fill="white"/>
<path d="M109.663 43.8842H120.611L122.056 39.7565H108.218L109.663 43.8842Z" fill="white"/>
<path d="M106.919 36.0094H123.369L124.771 31.8817H105.503L106.919 36.0094Z" fill="white"/>
<path d="M90.5703 20.2451H112.685L111.269 16.1174H90.5703V20.2451Z" fill="white"/>
<path d="M120.319 12.3704H147.893V8.24268H121.721L120.319 12.3704Z" fill="white"/>
</svg>
