<svg width="196" height="62" viewBox="0 0 196 62" fill="none" xmlns="http://www.w3.org/2000/svg">
<path d="M50.6875 11.0525C52.4758 9.93267 55.3727 11.0256 55.3727 13.31C55.632 15.5943 52.8871 17.2695 50.9379 16.1587C48.9887 15.2539 48.7652 12.1006 50.6875 11.0525Z" fill="black"/>
<path d="M60.8348 10.73C66.5393 11.0166 72.3868 10.0671 77.9929 11.3481C86.1831 13.9102 87.4885 26.3802 80.6932 31.1818C76.5177 34.2814 71.0367 33.1975 66.1995 33.3766C66.1995 37.3004 66.1906 41.2152 66.1906 45.1389C64.4024 45.1389 62.6231 45.1389 60.8348 45.1389C60.8259 33.6723 60.8259 22.1966 60.8348 10.73ZM66.1995 15.1823C66.1906 19.7331 66.1906 24.2839 66.1995 28.8348C69.4541 28.7541 72.8697 29.2468 75.9901 28.1002C80.9525 26.0218 80.7289 17.386 75.5341 15.7287C72.512 14.8598 69.3021 15.2539 66.1995 15.1823Z" fill="black"/>
<path d="M88.6604 10.73C90.3771 10.73 92.0849 10.73 93.8016 10.73C93.7837 15.2002 93.8642 19.6704 93.7211 24.1406C96.3141 19.751 102.394 18.5506 106.668 21.0679C109.198 22.5729 110.423 25.565 110.486 28.4137C110.7 33.9858 110.495 39.5579 110.575 45.13C108.814 45.13 107.061 45.13 105.309 45.1389C105.148 39.4862 105.64 33.7977 105.076 28.1719C104.111 22.6894 95.1428 23.2806 94.195 28.5033C93.444 34.0037 94.052 39.6027 93.8553 45.1389C92.1207 45.1389 90.395 45.1389 88.6694 45.1389C88.6515 33.6723 88.6604 22.1966 88.6604 10.73Z" fill="black"/>
<path d="M168.451 25.0364C172.17 18.2908 183.302 17.9055 187.406 24.4451C189.302 27.2222 189.382 30.698 189.498 33.932C183.544 33.9499 177.589 33.9141 171.634 33.9589C172.072 35.9476 172.278 38.2589 173.985 39.6385C177.115 42.3618 182.462 41.5108 184.438 37.7841C186.074 37.7662 187.719 37.7662 189.355 37.7751C187.147 46.8051 173.306 48.0951 168.603 40.5701C165.849 35.9297 165.858 29.7485 168.451 25.0364ZM171.661 30.268C175.899 30.3128 180.137 30.3128 184.375 30.268C183.982 27.0699 181.729 23.7553 178.152 23.9972C174.567 23.8001 172.251 27.0789 171.661 30.268Z" fill="black"/>
<path d="M49.7676 45.139C49.7676 36.7898 49.7497 28.4496 49.7765 20.1094C51.5021 20.1094 53.2278 20.1094 54.9624 20.1094C54.9624 28.4585 54.9713 36.7987 54.9534 45.139C53.2278 45.139 51.4932 45.139 49.7676 45.139Z" fill="black"/>
<path d="M121.152 20.6379C126.061 18.7656 132.508 19.8316 135.565 24.4094C138.543 28.9871 138.579 35.2669 136.066 40.0506C131.917 47.6025 118.988 47.2083 115.475 39.2533C112.587 32.9198 114.008 23.406 121.152 20.6379ZM123.924 24.3914C118.988 26.2189 118.676 32.8481 120.187 37.1302C121.546 41.7169 128.538 42.5589 131.041 38.5546C132.981 35.2758 132.99 30.9848 131.515 27.5269C130.308 24.6423 126.785 23.4508 123.924 24.3914Z" fill="black"/>
<path d="M141.413 20.1093C143.076 20.1093 144.748 20.1093 146.411 20.1093C146.375 21.471 146.34 22.8327 146.295 24.1943C148.807 19.9212 154.556 18.6043 158.866 20.826C161.602 22.2504 162.934 25.4037 162.934 28.3779C163.077 33.9589 162.934 39.5489 162.97 45.1389C161.244 45.1389 159.51 45.1389 157.784 45.1389C157.659 39.5579 158.035 33.9589 157.614 28.3958C157.239 23.8898 150.819 23.0387 148.19 26.0846C146.715 27.6612 146.652 29.9456 146.599 31.9791C146.572 36.3598 146.635 40.7493 146.608 45.1389C144.873 45.1389 143.148 45.1389 141.413 45.1389C141.404 36.7987 141.404 28.4496 141.413 20.1093Z" fill="black"/>
<path fill-rule="evenodd" clip-rule="evenodd" d="M22.2526 0.150879H27.189C27.2479 0.150879 27.2967 0.199401 27.2967 0.258687V0.60888C27.2967 0.668166 27.2479 0.71652 27.189 0.71652H22.2526C22.1934 0.71652 22.1445 0.668166 22.1445 0.60888V0.258687C22.1445 0.199401 22.1934 0.150879 22.2526 0.150879Z" fill="black"/>
<path fill-rule="evenodd" clip-rule="evenodd" d="M0.511719 9.03843V6.64687C0.511719 6.58758 0.560269 6.53906 0.619589 6.53906H0.870176C0.929496 6.53906 0.978046 6.58758 0.978046 6.64687V9.03843C0.978046 9.09772 0.929496 9.14624 0.870176 9.14624H0.619589C0.560269 9.14624 0.511719 9.09772 0.511719 9.03843Z" fill="black"/>
<path fill-rule="evenodd" clip-rule="evenodd" d="M0.637125 14.7109L0.511719 13.5659V11.3073C0.511719 11.248 0.560269 11.1995 0.619589 11.1995H0.870176C0.929666 11.1995 0.978046 11.248 0.978046 11.3073V14.7109C0.978046 14.7702 0.929496 14.8186 0.870176 14.8186H0.744826C0.685675 14.8186 0.643554 14.7696 0.637125 14.7109Z" fill="black"/>
<path fill-rule="evenodd" clip-rule="evenodd" d="M0.637125 18.1901L0.511719 19.3349V21.5937C0.511719 21.6529 0.560269 21.7014 0.619589 21.7014H0.870176C0.929666 21.7014 0.978046 21.6529 0.978046 21.5937V18.1901C0.978046 18.1308 0.929496 18.0823 0.870176 18.0823H0.744826C0.685675 18.0823 0.643554 18.1312 0.637125 18.1901Z" fill="black"/>
<path fill-rule="evenodd" clip-rule="evenodd" d="M6.35061 0.509155H27.0323C30.0892 0.509155 32.59 3.00869 32.59 6.06373V55.4604C32.59 58.5155 30.0892 61.0149 27.0323 61.0149H6.35061C3.29394 61.0149 0.792969 58.5155 0.792969 55.4604V6.06378C0.793025 3.00869 3.29394 0.509155 6.35061 0.509155Z" fill="black"/>
<path fill-rule="evenodd" clip-rule="evenodd" d="M6.41383 2.42578H26.9674C29.0878 2.42578 30.8224 4.15973 30.8224 6.27881V55.698C30.8224 57.8172 29.0878 59.5512 26.9674 59.5512H6.41383C4.29337 59.5512 2.55859 57.8172 2.55859 55.698V6.27881C2.55859 4.15973 4.29337 2.42578 6.41383 2.42578Z" fill="black"/>
<path fill-rule="evenodd" clip-rule="evenodd" d="M16.6851 52.5701C18.2875 52.5701 19.587 53.8688 19.587 55.4704C19.587 57.0719 18.2875 58.3702 16.6851 58.3702C15.0828 58.3702 13.7832 57.0719 13.7832 55.4704C13.7832 53.8688 15.0828 52.5701 16.6851 52.5701Z" fill="white"/>
<path fill-rule="evenodd" clip-rule="evenodd" d="M18.9903 6.19421H14.3788C14.0578 6.19421 13.7949 6.45672 13.7949 6.77755C13.7949 7.09866 14.0577 7.36117 14.3788 7.36117H18.9903C19.3114 7.36117 19.5738 7.09866 19.5738 6.77755C19.5738 6.45677 19.3115 6.19421 18.9903 6.19421Z" fill="white"/>
<path fill-rule="evenodd" clip-rule="evenodd" d="M3.66213 11.1699H29.7188C29.9626 11.1699 30.1622 11.3694 30.1622 11.6132V51.0416C30.1622 51.2853 29.9626 51.4847 29.7188 51.4847H3.66213C3.41831 51.4847 3.21875 51.2853 3.21875 51.0416V11.6133C3.21875 11.3694 3.41831 11.1699 3.66213 11.1699Z" fill="white"/>
<path fill-rule="evenodd" clip-rule="evenodd" d="M22.3589 27.3472C21.5918 26.6054 20.924 25.8883 19.5135 25.8142C18.3756 25.7646 17.856 26.4569 16.792 26.4817C15.8023 26.5065 15.8765 25.7151 13.8229 25.9377C12.0416 26.1355 10.4828 27.916 10.6065 30.4135C10.7302 33.1088 12.6105 36.8428 14.3672 36.8428C15.6043 36.8178 15.9013 36.2247 16.9159 36.2247C18.1774 36.2247 18.4744 36.9663 19.464 36.8177C21.1715 36.5707 22.7795 33.8752 22.7795 33.0099C21.8395 32.5153 20.8992 31.6746 20.7757 30.2651C20.6765 28.8556 21.5425 27.9653 22.3589 27.3472Z" fill="black"/>
<path fill-rule="evenodd" clip-rule="evenodd" d="M16.4477 22.5782C16.324 21.5892 16.992 19.4377 19.3425 19.1165C19.6147 20.7731 18.2538 22.6771 16.4477 22.5782Z" fill="black"/>
</svg>
