<svg width="197" height="91" viewBox="0 0 197 91" fill="none" xmlns="http://www.w3.org/2000/svg">
<path d="M192.434 25.5533H191.793V25.1948H193.519V25.5533H192.882V27.3424H192.434V25.5533ZM195.875 25.6468H195.865L195.23 27.343H194.939L194.308 25.6468H194.301V27.343H193.878V25.1954H194.5L195.085 26.7162L195.668 25.1954H196.287V27.343H195.875L195.875 25.6468Z" fill="black"/>
<path d="M135.908 45.7162C133.925 47.4358 131.832 48.4011 129.953 48.4011C127.271 48.4011 125.821 46.7929 125.821 44.2134C125.821 41.4231 127.374 39.3831 133.603 39.3831H135.908L135.908 45.7162ZM141.378 51.8883V32.7829C141.378 27.902 138.595 24.6818 131.883 24.6818C127.965 24.6818 124.533 25.6493 121.743 26.8832L122.548 30.265C124.745 29.4589 127.588 28.7084 130.378 28.7084C134.245 28.7084 135.908 30.2651 135.908 33.4834V35.8984H133.978C124.585 35.8984 120.347 39.5448 120.347 45.0176C120.347 49.7413 123.14 52.4262 128.398 52.4262C131.777 52.4262 134.3 51.0306 136.658 48.9886L137.087 51.889L141.378 51.8883ZM159.635 51.8883H152.812L144.601 25.1655H150.56L155.654 41.5839L156.787 46.5217C159.365 39.3824 161.188 32.1394 162.1 25.1655H167.896C166.343 33.9649 163.548 43.6236 159.635 51.8883ZM185.808 45.7162C183.822 47.4358 181.725 48.4011 179.846 48.4011C177.168 48.4011 175.715 46.7929 175.715 44.2134C175.715 41.4231 177.271 39.3831 183.5 39.3831H185.808V45.7162ZM191.278 51.8883V32.7829C191.278 27.902 188.488 24.6818 181.784 24.6818C177.863 24.6818 174.43 25.6493 171.641 26.8832L172.446 30.265C174.643 29.4589 177.491 28.7084 180.279 28.7084C184.143 28.7084 185.808 30.2651 185.808 33.4834V35.8984H183.875C174.479 35.8984 170.243 39.5448 170.243 45.0176C170.243 49.7413 173.034 52.4262 178.291 52.4262C181.672 52.4262 184.194 51.0306 186.556 48.9886L186.986 51.889L191.278 51.8883ZM114.349 56.4261C112.79 58.703 110.271 60.5044 107.513 61.5234L104.812 58.3451C106.911 57.2681 108.711 55.5287 109.548 53.9089C110.271 52.468 110.571 50.611 110.571 46.1701V15.6619H116.383V45.7521C116.382 51.6889 115.908 54.0872 114.349 56.4261Z" fill="black"/>
<path d="M26.9881 64.4178C26.9881 64.4178 22.6497 66.9407 30.0756 67.7944C39.0719 68.8207 43.6698 68.6736 53.5838 66.7972C53.5838 66.7972 56.1903 68.4315 59.8304 69.8471C37.6059 79.3721 9.53187 69.2953 26.9881 64.4178ZM24.2724 51.9882C24.2724 51.9882 19.4064 55.5901 26.8378 56.3587C36.448 57.3501 44.0373 57.4312 57.1698 54.9025C57.1698 54.9025 58.9865 56.744 61.8427 57.751C34.9715 65.6084 5.04228 58.3706 24.2724 51.9882Z" fill="black"/>
<path d="M76.5601 73.6115C76.5601 73.6115 79.7706 76.2572 73.0243 78.3034C60.196 82.1895 19.6315 83.363 8.36289 78.4585C4.3121 76.696 11.9085 74.2504 14.298 73.7373C16.79 73.1969 18.2142 73.2976 18.2142 73.2976C13.7093 70.1241 -10.9036 79.5286 5.71204 82.2223C51.0253 89.5708 88.3141 78.9132 76.5601 73.6115ZM29.074 39.1098C29.074 39.1098 8.44031 44.0106 21.7671 45.7903C27.3941 46.5436 38.6113 46.3732 49.0596 45.4977C57.5987 44.7774 66.1734 43.2462 66.1734 43.2462C66.1734 43.2462 63.1624 44.5357 60.984 46.0228C40.0308 51.5338 -0.446765 48.9699 11.2062 43.3331C21.0611 38.5694 29.074 39.1098 29.074 39.1098ZM66.0883 59.7994C87.3881 48.7312 77.5402 38.0945 70.666 39.5277C68.9812 39.8784 68.23 40.1823 68.23 40.1823C68.23 40.1823 68.8557 39.2025 70.0497 38.7784C83.6485 33.9975 94.1069 52.879 65.6599 60.3576C65.6599 60.3576 65.9901 60.0632 66.0883 59.7994Z" fill="black"/>
<path d="M31.168 89.7918C51.6131 91.1006 83.009 89.0657 83.7523 79.3919C83.7523 79.3919 82.3233 83.059 66.8555 85.9718C49.4054 89.2554 27.8825 88.8723 15.1172 86.7677C15.1178 86.767 17.7307 88.9301 31.168 89.7918Z" fill="black"/>
<g clip-path="url(#clip0_798_2428)">
<path d="M51.6626 51.1835C53.3488 51.1835 54.8193 49.713 54.8193 48.0268V40.6546H56.927C58.1918 40.6546 59.0348 39.8113 59.0348 38.5469V17.4908H33.7617V38.547C33.7617 39.8117 34.6048 40.6548 35.8695 40.6548H37.9774V48.027C37.9774 49.7132 39.4475 51.1836 41.1341 51.1836C42.8201 51.1836 44.2904 49.7132 44.2904 48.027V40.6548H48.5061V48.027C48.5059 49.713 49.9764 51.1835 51.6626 51.1835Z" fill="black"/>
<path d="M64.2992 38.547C65.9855 38.547 67.4556 37.0767 67.4556 35.3904V20.6462C67.4556 18.9689 65.9855 17.4908 64.2992 17.4908C62.6129 17.4908 61.1426 18.9689 61.1426 20.6462V35.3904C61.1426 37.0766 62.6127 38.547 64.2992 38.547Z" fill="black"/>
<path d="M28.4981 38.547C30.1845 38.547 31.6548 37.0767 31.6548 35.3904V20.6462C31.6548 18.9689 30.1847 17.4908 28.4981 17.4908C26.8119 17.4908 25.3418 18.9689 25.3418 20.6462V35.3904C25.3418 37.0766 26.8119 38.547 28.4981 38.547Z" fill="black"/>
<path d="M56.5053 1.07038C56.0839 0.6463 55.4565 0.6463 55.0352 1.07038L52.2082 3.88795L52.0777 4.0182C50.4015 3.1788 48.5221 2.75961 46.4291 2.75557C46.4189 2.75557 46.4088 2.75523 46.3985 2.75523H46.3982C46.3876 2.75523 46.3778 2.75557 46.3672 2.75557C44.2744 2.75961 42.395 3.1788 40.7189 4.0182L40.5882 3.88795L37.7613 1.07038C37.3396 0.6463 36.7126 0.6463 36.2912 1.07038C35.8695 1.4921 35.8695 2.11794 36.2912 2.53933L39.0258 5.27444C38.1447 5.86276 37.3457 6.58268 36.6508 7.4061C34.9873 9.37788 33.9263 11.944 33.7804 14.7244C33.7791 14.7534 33.7762 14.782 33.7748 14.8109C33.7659 15.0002 33.7617 15.1906 33.7617 15.3816H59.0348C59.0348 15.1906 59.0302 15.0002 59.0216 14.8109C59.0203 14.782 59.0174 14.7534 59.0157 14.7244C58.8702 11.944 57.8088 9.37771 56.1453 7.40626C55.4508 6.58285 54.6515 5.86293 53.7703 5.27461L56.5053 2.53949C56.927 2.11794 56.927 1.4921 56.5053 1.07038ZM41.13 11.7014C40.258 11.7014 39.551 10.9944 39.551 10.1224C39.551 9.25032 40.258 8.54336 41.13 8.54336C42.0021 8.54336 42.709 9.25032 42.709 10.1224C42.709 10.9944 42.0021 11.7014 41.13 11.7014ZM51.6665 11.7014C50.7944 11.7014 50.0874 10.9944 50.0874 10.1224C50.0874 9.25032 50.7944 8.54336 51.6665 8.54336C52.5385 8.54336 53.2455 9.25032 53.2455 10.1224C53.2455 10.9944 52.5385 11.7014 51.6665 11.7014Z" fill="black"/>
</g>
<g clip-path="url(#clip1_798_2428)">
<path fill-rule="evenodd" clip-rule="evenodd" d="M117.625 76.9934V65.4333H110.688C106.993 65.4333 104 68.0205 104 71.215C104 74.4095 106.993 76.9934 110.684 76.9934H112.809V74.4818H110.691C108.545 74.4818 106.796 73.07 106.796 71.215C106.796 69.36 108.503 67.9483 110.645 67.9483H114.952V76.9934H117.621H117.625Z" fill="black"/>
<path fill-rule="evenodd" clip-rule="evenodd" d="M126.462 65C122.918 65 120.045 67.2785 120.045 70.7357V76.9934H122.655V70.5978C122.655 68.3718 124.688 67.0881 126.462 67.0881C128.236 67.0881 130.234 68.3718 130.234 70.5978V76.9934H132.883V70.7357C132.883 67.2785 130.01 65 126.466 65H126.462Z" fill="black"/>
<path fill-rule="evenodd" clip-rule="evenodd" d="M147.333 71.1428C147.333 67.8104 144.98 65.4366 141.436 65.4366H135.553V67.9483H141.576C143.86 67.9483 144.804 69.4421 144.804 71.11C144.804 72.7778 143.824 74.4851 141.541 74.4851H135.518V76.9704H141.401C144.945 76.9704 147.333 74.4752 147.333 71.1461V71.1428Z" fill="black"/>
<path fill-rule="evenodd" clip-rule="evenodd" d="M196 71.1428C196 67.8104 193.647 65.4366 190.1 65.4366H184.216V67.9483H190.24C192.523 67.9483 193.464 69.4421 193.464 71.11C193.464 72.7778 192.488 74.4851 190.201 74.4851H184.178V76.9704H190.061C193.605 76.9704 195.997 74.4752 195.997 71.1461L196 71.1428Z" fill="black"/>
<path fill-rule="evenodd" clip-rule="evenodd" d="M159.535 73.0897C160.673 72.5119 161.239 71.4481 161.239 69.626C161.239 66.4216 159.419 65.4333 155.875 65.4333H149.992V67.945H156.016C158.299 67.945 158.706 68.6246 158.706 69.5898C158.706 70.5551 158.376 71.3825 156.093 71.3825H150.069L150.066 73.6905H155.949C156.005 73.6905 156.062 73.6905 156.114 73.6905C157.284 73.8087 158.194 74.7379 158.194 75.864C158.194 76.2251 158.264 76.5666 158.095 76.8654C158.095 76.908 158.257 76.9507 158.257 76.9934H160.687C160.687 76.9934 161.13 74.531 159.535 73.0897Z" fill="black"/>
<path fill-rule="evenodd" clip-rule="evenodd" d="M163.676 71.0476C163.676 74.3341 166.408 77 169.777 77C173.145 77 175.881 74.3374 175.881 71.0476C175.881 67.7579 173.149 65.0985 169.777 65.0985C166.405 65.0985 163.676 67.7612 163.676 71.0476ZM166.124 71.0476C166.124 69.081 167.761 67.4854 169.777 67.4854C171.793 67.4854 173.43 69.081 173.43 71.0476C173.43 73.0142 171.793 74.6099 169.777 74.6099C167.761 74.6099 166.124 73.0142 166.124 71.0476Z" fill="black"/>
<path d="M181.536 65.4333H178.859V76.9934H181.536V65.4333Z" fill="black"/>
</g>
<defs>
<clipPath id="clip0_798_2428">
<rect width="50.4311" height="50.4311" fill="white" transform="translate(21.1836 0.752319)"/>
</clipPath>
<clipPath id="clip1_798_2428">
<rect width="92" height="12" fill="white" transform="translate(104 65)"/>
</clipPath>
</defs>
</svg>
