<svg width="16" height="20" viewBox="0 0 16 20" fill="none" xmlns="http://www.w3.org/2000/svg">
<path d="M2.87988 5.00002V12.1429C2.87988 14.9001 5.14084 17.1429 7.92023 17.1429C10.6996 17.1429 12.9606 14.9001 12.9606 12.1429V5.00002C12.9606 2.24287 10.6996 0 7.92023 0C5.14084 0 2.87988 2.24287 2.87988 5.00002ZM7.92023 1.42858C9.90756 1.42858 11.5205 3.02859 11.5205 5.00002V12.1429C11.5205 14.1143 9.90756 15.7144 7.92023 15.7144C5.93289 15.7144 4.31998 14.1143 4.31998 12.1429V5.00002C4.31998 3.02859 5.93289 1.42858 7.92023 1.42858Z" fill="#C2C2C2"/>
<path d="M0.720049 7.85718C0.324022 7.85718 0 8.17861 0 8.57147V12.1429C0 16.4786 3.54984 20.0001 7.92054 20.0001C12.2912 20.0001 15.8411 16.4786 15.8411 12.1429V8.57147C15.8411 8.17861 15.5171 7.85718 15.121 7.85718C14.725 7.85718 14.401 8.17861 14.401 8.57147V12.1429C14.401 15.6858 11.492 18.5715 7.92054 18.5715C4.3491 18.5715 1.4401 15.6858 1.4401 12.1429V8.57147C1.4401 8.17861 1.11608 7.85718 0.720049 7.85718Z" fill="#C2C2C2"/>
</svg>
