<svg xmlns="http://www.w3.org/2000/svg" width="936" height="518" viewBox="0 0 936 518">
  <g id="Group_823" data-name="Group 823" transform="translate(-358.231 -241.598)" opacity="0.4">
    <g id="Ellipse_93" data-name="Ellipse 93" transform="translate(358.231 241.598)" fill="none" stroke="#fff" stroke-width="2">
      <ellipse cx="258.5" cy="259" rx="258.5" ry="259" stroke="none"/>
      <ellipse cx="258.5" cy="259" rx="257.5" ry="258" fill="none"/>
    </g>
    <g id="Ellipse_96" data-name="Ellipse 96" transform="translate(434.231 241.598)" fill="none" stroke="#fff" stroke-width="2">
      <ellipse cx="258.5" cy="259" rx="258.5" ry="259" stroke="none"/>
      <ellipse cx="258.5" cy="259" rx="257.5" ry="258" fill="none"/>
    </g>
    <g id="Ellipse_97" data-name="Ellipse 97" transform="translate(489.231 241.598)" fill="none" stroke="#fff" stroke-width="2">
      <circle cx="259" cy="259" r="259" stroke="none"/>
      <circle cx="259" cy="259" r="258" fill="none"/>
    </g>
    <g id="Ellipse_98" data-name="Ellipse 98" transform="translate(616.231 241.598)" fill="none" stroke="#fff" stroke-width="2">
      <circle cx="259" cy="259" r="259" stroke="none"/>
      <circle cx="259" cy="259" r="258" fill="none"/>
    </g>
    <g id="Ellipse_104" data-name="Ellipse 104" transform="translate(716.231 241.598)" fill="none" stroke="#fff" stroke-width="2">
      <ellipse cx="258.5" cy="259" rx="258.5" ry="259" stroke="none"/>
      <ellipse cx="258.5" cy="259" rx="257.5" ry="258" fill="none"/>
    </g>
    <g id="Ellipse_103" data-name="Ellipse 103" transform="translate(777.231 241.598)" fill="none" stroke="#fff" stroke-width="2">
      <ellipse cx="258.5" cy="259" rx="258.5" ry="259" stroke="none"/>
      <ellipse cx="258.5" cy="259" rx="257.5" ry="258" fill="none"/>
    </g>
  </g>
</svg>
