<svg width="166" height="162" viewBox="0 0 166 162" fill="none" xmlns="http://www.w3.org/2000/svg">
<g style="mix-blend-mode:darken">
<path d="M129.41 46.8991C129.41 71.4495 109.472 91.3561 84.8712 91.3561C60.2704 91.3561 40.332 71.4495 40.332 46.8991C40.332 22.3487 60.2704 2.44214 84.8712 2.44214C109.472 2.44214 129.41 22.3487 129.41 46.8991Z" fill="white" stroke="black" stroke-width="3"/>
<path d="M163.938 89.0264C163.938 111.462 145.718 129.654 123.236 129.654C100.754 129.654 82.5332 111.462 82.5332 89.0264C82.5332 66.5911 100.754 48.3992 123.236 48.3992C145.718 48.3992 163.938 66.5911 163.938 89.0264Z" fill="white" stroke="black" stroke-width="3"/>
<path d="M122.237 129.239C122.237 146.663 108.086 160.791 90.6257 160.791C73.1657 160.791 59.0146 146.663 59.0146 129.239C59.0146 111.814 73.1657 97.6858 90.6257 97.6858C108.086 97.6858 122.237 111.814 122.237 129.239Z" fill="white" stroke="black" stroke-width="2"/>
<path d="M7.49831 39.2395H77.8385C81.7224 39.2395 84.871 42.3824 84.871 46.2594V116.474C84.871 120.351 81.7224 123.494 77.8385 123.494H7.49831C3.61437 123.494 0.46582 120.351 0.46582 116.474V46.2594C0.46582 42.3824 3.61437 39.2395 7.49831 39.2395Z" fill="black"/>
<path d="M31.8758 80.509C30.2278 79.4178 28.8512 77.9651 27.8512 76.2618C26.8823 74.4812 26.3994 72.4777 26.4508 70.4521C26.3646 67.7094 27.2917 65.031 29.0559 62.9266C30.9097 60.8197 33.3059 59.2595 35.9848 58.4151C39.0378 57.412 42.2357 56.9177 45.4496 56.9522C49.6762 56.7981 53.8969 57.388 57.9185 58.6948V67.5032C56.1711 66.4465 54.2679 65.6711 52.2787 65.2054C50.1204 64.677 47.9058 64.4121 45.6836 64.4164C43.3403 64.3305 41.0119 64.8225 38.9044 65.8488C37.2772 66.5493 36.2222 68.1472 36.2188 69.916C36.2121 70.9889 36.6251 72.0221 37.3697 72.796C38.2493 73.7082 39.2897 74.4508 40.439 74.9866C41.7179 75.6223 43.6362 76.4675 46.1939 77.5219C46.4756 77.6108 46.7501 77.7209 47.015 77.8513C49.5323 78.8333 51.9608 80.0288 54.2738 81.4245C56.0255 82.5025 57.4956 83.9805 58.5632 85.7367C59.6577 87.7275 60.1882 89.9782 60.0978 92.2473C60.2227 95.0631 59.3597 97.8342 57.6577 100.083C55.9612 102.15 53.693 103.674 51.1355 104.464C48.1273 105.405 44.9877 105.86 41.8355 105.812C39.0074 105.825 36.1835 105.594 33.3951 105.123C31.0406 104.738 28.7429 104.064 26.5544 103.116V93.829C28.6464 95.3203 30.9835 96.435 33.4603 97.1226C35.9287 97.8904 38.4946 98.3005 41.0798 98.3404C43.4724 98.4917 45.8608 97.9857 47.9857 96.8775C49.4742 96.039 50.3795 94.4509 50.3414 92.7452C50.3513 91.5583 49.881 90.4177 49.037 89.5818C47.9873 88.5532 46.7721 87.7079 45.4421 87.081C43.9075 86.315 41.6477 85.3053 38.6628 84.0516C36.2882 83.0987 34.0147 81.912 31.8758 80.509Z" fill="white"/>
</g>
</svg>
