<svg width="138" height="140" viewBox="0 0 138 140" fill="none" xmlns="http://www.w3.org/2000/svg">
<path fill-rule="evenodd" clip-rule="evenodd" d="M65.7285 101.469C71.116 100.766 76.3178 99.1167 81.0322 96.4737C92.6774 89.9359 99.4023 78.6988 99.9738 64.8304L100.023 63.6308H116.139C115.148 55.6125 112.149 47.9748 107.421 41.4268L90.9338 52.1033C95.9528 60.0352 96.5969 68.8268 92.7906 77.6097C88.2764 88.0132 77.6436 97.1272 65.7285 101.469Z" fill="black"/>
<path fill-rule="evenodd" clip-rule="evenodd" d="M116.383 66.1343H102.388C101.445 80.1625 94.1484 91.9747 82.2392 98.6606C75.4417 102.474 67.7043 104.374 59.8045 104.374C53.549 104.357 47.3487 103.2 41.5068 100.961C48.6669 105.468 56.7147 107.934 65.0527 107.96H65.1803C80.2345 107.96 93.7481 99.924 101.349 86.4476L101.993 85.3091L111.358 91.2979C114.758 84.5715 116.526 77.1376 116.519 69.5992C116.519 68.4316 116.461 67.2786 116.383 66.1343Z" fill="black"/>
<path fill-rule="evenodd" clip-rule="evenodd" d="M65.1795 110.461H65.046C50.047 110.418 35.9531 102.927 25.9238 90.029C33.5452 106.299 49.9629 117.589 68.9539 117.589C86.5581 117.589 101.946 107.882 110.171 93.5027L102.848 88.8208C94.6901 102.405 80.7123 110.461 65.1795 110.461Z" fill="black"/>
<path fill-rule="evenodd" clip-rule="evenodd" d="M68.9541 0.152344C30.9372 0.152344 0.121094 31.2439 0.121094 69.5964C0.121094 107.949 30.9372 139.04 68.9541 139.04C106.968 139.04 137.784 107.952 137.784 69.5964C137.784 31.241 106.971 0.152344 68.9541 0.152344ZM68.9541 120.092C41.3118 120.092 18.9032 97.4844 18.9032 69.5964C18.9032 41.7113 41.3118 19.1035 68.9541 19.1035C96.5935 19.1035 118.999 41.7113 118.999 69.5964C118.999 97.4844 96.5935 120.092 68.9541 120.092Z" fill="black"/>
</svg>
