<svg width="30" height="30" viewBox="0 0 30 30" fill="none" xmlns="http://www.w3.org/2000/svg">
<path d="M-6.55671e-07 15C-1.01779e-06 23.2843 6.71573 30 15 30C23.2843 30 30 23.2843 30 15C30 6.71573 23.2843 -2.93554e-07 15 -6.55671e-07C6.71573 -1.01779e-06 -2.93554e-07 6.71573 -6.55671e-07 15Z" fill="#D9D9D9"/>
<path d="M0.416341 15.0001C0.416341 23.0542 6.94552 29.5834 14.9997 29.5834C23.0538 29.5834 29.583 23.0542 29.583 15.0001C29.583 6.94593 23.0538 0.416748 14.9997 0.416747C6.94552 0.416747 0.416341 6.94593 0.416341 15.0001Z" fill="#D9D9D9"/>
<path d="M13.9896 9.315L9.59457 13.71C9.18957 14.115 9.18957 14.79 9.59457 15.195C9.99957 15.6 10.6746 15.6 11.0796 15.195L13.6896 12.6L13.6896 19.95C13.6896 20.535 14.1546 21 14.7396 21C15.3246 21 15.7896 20.535 15.7896 19.95L15.7896 12.6L18.3846 15.195C18.7896 15.6 19.4646 15.6 19.8696 15.195C20.0796 14.985 20.1846 14.715 20.1846 14.445C20.1846 14.175 20.0796 13.905 19.8696 13.695L15.4896 9.315C15.2946 9.12 15.0246 9 14.7396 9C14.4546 9 14.1846 9.105 13.9896 9.315Z" fill="white"/>
</svg>
