<svg width="56" height="37" viewBox="0 0 56 37" fill="none" xmlns="http://www.w3.org/2000/svg">
<path fill-rule="evenodd" clip-rule="evenodd" d="M53.991 18.8297C53.991 11.8465 48.4348 6.1345 41.4456 5.92799C34.4569 5.71695 28.5672 11.0963 28.1535 18.065H39.8154C40.2757 18.065 40.6468 18.4355 40.6468 18.8951C40.6468 19.3547 40.2757 19.7252 39.8154 19.7252H28.1629C28.6467 26.6662 34.5504 31.975 41.5115 31.7313C48.472 31.4921 53.991 25.7848 53.991 18.8297ZM26.4925 19.7253C26.7085 23.2755 28.2209 26.6241 30.7431 29.1331L30.8887 29.2785C27.0233 33.9778 20.88 36.168 14.9057 34.9721C8.93627 33.7761 4.10797 29.3911 2.35553 23.5663C0.603699 17.7414 2.20524 11.4293 6.53096 7.14192C10.852 2.86006 17.1878 1.30299 23.0068 3.09454L23.0397 3.10392V3.10861C26.1161 4.06066 28.8448 5.89439 30.8879 8.38001L30.7423 8.52539H30.7376C28.1873 11.0673 26.6702 14.4675 26.4823 18.0646H15.7081C15.2525 18.0646 14.8768 18.4351 14.8768 18.8947C14.8768 19.3543 15.2525 19.7248 15.7081 19.7248L26.4925 19.7253ZM32.1426 30.362L32.1473 30.3667C29.3434 33.7574 25.3981 36.0132 21.0489 36.7168C16.7045 37.4156 12.2473 36.5151 8.51799 34.1842C4.78407 31.8487 2.03188 28.2375 0.768443 24.026C-0.494993 19.8098 -0.18029 15.2841 1.65143 11.2839C3.4831 7.28817 6.70974 4.08963 10.7302 2.29339C14.7458 0.492479 19.2829 0.215738 23.4908 1.51019L23.5331 1.52426V1.51957C26.9053 2.56541 29.8971 4.57272 32.1422 7.29282C36.5477 3.89738 42.5031 3.29707 47.4963 5.74512C52.4935 8.19796 55.6592 13.2677 55.6592 18.8258C55.6592 24.3833 52.4936 29.4578 47.4963 31.91C42.5037 34.3582 36.5486 33.7575 32.1426 30.362Z" fill="black"/>
</svg>
