<svg width="45" height="45" viewBox="0 0 45 45" fill="none" xmlns="http://www.w3.org/2000/svg">
<path d="M25.0648 12.6963C22.4476 12.0982 19.7553 12.5586 17.4836 13.9924C15.2115 15.4263 13.632 17.6619 13.0359 20.2875C11.8054 25.708 15.1992 31.1221 20.6014 32.3572C21.3495 32.5284 22.0975 32.6101 22.8343 32.6101C27.4184 32.6101 31.5705 29.436 32.6303 24.7661C33.2265 22.1404 32.7681 19.4385 31.3391 17.1592C29.9096 14.8793 27.6816 13.2945 25.0648 12.6963ZM31.6038 24.5314C30.6548 28.7124 26.9379 31.554 22.8338 31.5535C22.1745 31.5535 21.5044 31.4802 20.8347 31.3272C15.9987 30.2215 12.9604 25.3745 14.0619 20.5221C14.5957 18.1714 16.0095 16.17 18.0434 14.8867C19.496 13.9698 21.1406 13.4981 22.8152 13.4981C23.4853 13.4981 24.1609 13.5738 24.8305 13.7268C27.1732 14.2625 29.1679 15.6811 30.4474 17.7219C31.7269 19.7622 32.1372 22.1807 31.6038 24.5314ZM44.7348 20.1842C44.6088 19.3244 43.949 18.6579 43.0931 18.5256L40.1459 18.0691C39.9689 18.0416 39.8454 17.9314 39.7968 17.7588C39.4154 16.3977 38.8703 15.0819 38.1767 13.8478C38.0889 13.6924 38.0982 13.5266 38.2026 13.382L39.9557 10.9502C40.4601 10.2502 40.4537 9.31417 39.94 8.62111C39.0551 7.42831 37.8325 6.19812 36.6692 5.33093C35.9741 4.81249 35.0378 4.80954 34.3392 5.32306L31.9352 7.08989C31.7911 7.19614 31.6259 7.20598 31.4695 7.11793C30.2445 6.42733 28.9312 5.8843 27.5664 5.50309C27.3948 5.45538 27.285 5.33192 27.2566 5.15533L26.7825 2.19225C26.6458 1.33933 25.982 0.681692 25.13 0.556263C23.6638 0.340328 21.9323 0.33836 20.4984 0.55036C19.642 0.677265 18.9773 1.33933 18.8454 2.19766L18.3905 5.15484C18.3631 5.33241 18.2533 5.45636 18.0812 5.50506C16.7248 5.88774 15.4134 6.43422 14.1835 7.13072C14.0281 7.21877 13.8634 7.20942 13.7192 7.10465L11.2956 5.34569C10.598 4.83955 9.66513 4.84594 8.97442 5.36143C7.78564 6.24927 6.55961 7.47602 5.69535 8.64325C5.17866 9.34073 5.17572 10.2802 5.68751 10.9811L7.44837 13.3933C7.55426 13.5379 7.56406 13.7042 7.47631 13.8606C6.78805 15.0903 6.24636 16.4076 5.86693 17.777C5.81938 17.9491 5.69584 18.0598 5.52034 18.0878L2.56728 18.564C1.71724 18.7012 1.06182 19.3672 0.937302 20.2221C0.722097 21.6933 0.720136 23.4306 0.93142 24.8694C1.05741 25.7287 1.71724 26.3957 2.57316 26.528L5.52034 26.9844C5.69731 27.012 5.82134 27.1222 5.86938 27.2948C6.25077 28.6563 6.79589 29.9721 7.48955 31.2057C7.5773 31.3612 7.56798 31.5269 7.46357 31.6716L5.71055 34.1034C5.20612 34.8033 5.21249 35.7394 5.72624 36.4325C6.61108 37.6258 7.83368 38.8554 8.99697 39.7226C9.69209 40.2411 10.6284 40.244 11.327 39.7305L13.731 37.9637C13.8732 37.8589 14.0428 37.8491 14.1967 37.9356C15.4222 38.6262 16.735 39.1698 18.0998 39.55C18.2714 39.5977 18.3817 39.7216 18.4096 39.8977L18.8842 42.8608C19.0209 43.7137 19.6847 44.3714 20.5367 44.4963C21.2769 44.6055 22.0848 44.6596 22.8883 44.6596C23.6755 44.6596 24.4584 44.607 25.1683 44.5022C26.0252 44.3753 26.6894 43.7132 26.8213 42.8549L27.2762 39.8977C27.3036 39.7202 27.4135 39.5957 27.5855 39.5475C28.9424 39.1648 30.2538 38.6179 31.4832 37.9219C31.6381 37.8343 31.8034 37.8437 31.9475 37.9484L34.3711 39.7074C35.0687 40.2135 36.0016 40.2071 36.6923 39.6916C37.8811 38.8043 39.1066 37.5775 39.9714 36.4098C40.488 35.7123 40.491 34.7729 39.9792 34.0719L38.2183 31.6597C38.1139 31.5171 38.1041 31.3469 38.1904 31.1925C38.8787 29.9628 39.4199 28.6455 39.7993 27.2761C39.8468 27.104 39.9704 26.9933 40.1459 26.9653L43.0989 26.4891C43.949 26.3519 44.6044 25.6859 44.7289 24.831C44.9441 23.3598 44.9461 21.6225 44.7348 20.1842ZM43.6872 24.678C43.6284 25.0804 43.3318 25.3824 42.9318 25.4468L39.9787 25.923C39.3993 26.0164 38.9419 26.4266 38.7845 26.9938C38.4277 28.2815 37.9188 29.5201 37.2717 30.6755C36.983 31.191 37.0202 31.8073 37.3683 32.2844L39.1292 34.6966C39.3699 35.0267 39.3684 35.4516 39.1257 35.7802C38.3188 36.8697 37.1742 38.0148 36.0629 38.8446C35.7378 39.0876 35.3153 39.0901 34.9868 38.852L32.5632 37.093C32.0882 36.7482 31.4754 36.7138 30.9646 37.0025C29.8082 37.6572 28.5748 38.1717 27.2992 38.5313C26.7325 38.6912 26.3242 39.153 26.2345 39.7374L25.7796 42.6946C25.7173 43.0989 25.4168 43.3984 25.0134 43.458C23.6755 43.6557 22.0583 43.6532 20.6882 43.4516C20.2872 43.3925 19.9867 43.095 19.9224 42.6936L19.4479 39.7305C19.3548 39.1491 18.9459 38.6902 18.3807 38.5323C17.0973 38.1742 15.863 37.6636 14.7114 37.0143C14.4815 36.885 14.2315 36.8205 13.9825 36.8205C13.6756 36.8205 13.3702 36.9184 13.1079 37.1112L10.7039 38.8781C10.375 39.1196 9.95142 39.1181 9.62396 38.8741C8.53861 38.065 7.3969 36.9165 6.5699 35.8014C6.32822 35.4753 6.32528 35.0513 6.56255 34.7217L8.31556 32.2898C8.65921 31.8132 8.69352 31.1984 8.40576 30.6858C7.75328 29.5255 7.24101 28.2884 6.88217 27.008C6.72285 26.4394 6.26204 26.0297 5.68016 25.9397L2.73297 25.4832C2.33001 25.4208 2.03147 25.1192 1.97215 24.7144C1.77508 23.3721 1.77753 21.7494 1.97803 20.3746C2.03686 19.9722 2.33344 19.6707 2.73346 19.6062L5.68653 19.1301C6.26597 19.0367 6.72334 18.6264 6.8807 18.0593C7.23758 16.7715 7.74642 15.533 8.39351 14.3771C8.68225 13.8616 8.64499 13.2453 8.29694 12.7681L6.53608 10.356C6.29538 10.0259 6.29685 9.60094 6.53951 9.27236C7.3464 8.18334 8.49106 7.03775 9.60239 6.20795C9.9274 5.96546 10.35 5.96251 10.6784 6.20058L13.102 7.95904C13.5771 8.30385 14.1894 8.33877 14.7006 8.04955C15.8576 7.39486 17.0905 6.88035 18.366 6.52079C18.9327 6.36093 19.341 5.89856 19.4308 5.3147L19.8857 2.35752C19.9479 1.9532 20.2484 1.65364 20.6519 1.59413C21.9897 1.39639 23.6069 1.39885 24.9771 1.60052C25.3781 1.65955 25.6786 1.95713 25.7428 2.35851L26.2173 5.32159C26.3105 5.90299 26.7193 6.36191 27.2845 6.51981C28.5684 6.87789 29.8028 7.38896 30.9543 8.03774C31.468 8.32697 32.0823 8.29008 32.5578 7.94084L34.9618 6.17401C35.2908 5.9325 35.7143 5.93398 36.0418 6.17795C37.1271 6.98709 38.2688 8.13612 39.0958 9.25121C39.3375 9.57733 39.3404 10.0013 39.1032 10.3309L37.3502 12.7627C37.0065 13.2394 36.9722 13.8542 37.26 14.3668C37.9124 15.5276 38.4252 16.7647 38.7836 18.0445C38.9429 18.6131 39.4037 19.0229 39.9856 19.1129L42.9328 19.5694C43.3357 19.6318 43.6343 19.9333 43.6936 20.3382C43.8906 21.6805 43.8882 23.3027 43.6872 24.678Z" fill="black"/>
</svg>
