<svg width="41" height="41" viewBox="0 0 41 41" fill="none" xmlns="http://www.w3.org/2000/svg">
<path d="M20.8327 0.272461C9.71389 0.272461 0.667969 9.22316 0.667969 20.225C0.667969 31.2268 9.71389 40.1775 20.8327 40.1775C31.9516 40.1775 40.9975 31.2268 40.9975 20.225C40.9975 9.22316 31.9516 0.272461 20.8327 0.272461ZM20.8327 38.8473C10.4553 38.8473 2.01229 30.4932 2.01229 20.225C2.01229 9.95675 10.4553 1.60263 20.8327 1.60263C31.2102 1.60263 39.6532 9.95675 39.6532 20.225C39.6532 30.4932 31.2102 38.8473 20.8327 38.8473Z" fill="black"/>
<path d="M29.5942 14.148L18.7368 24.8905L12.0723 18.2962C11.8095 18.0361 11.3847 18.0361 11.1219 18.2962C10.8591 18.5562 10.8591 18.9765 11.1219 19.2366L18.2616 26.3011C18.3927 26.4308 18.5647 26.496 18.7368 26.496C18.9089 26.496 19.081 26.4308 19.212 26.3011L30.5446 15.0885C30.8074 14.8284 30.8074 14.4081 30.5446 14.148C30.2818 13.888 29.857 13.888 29.5942 14.148Z" fill="black"/>
</svg>
