<svg width="46" height="45" viewBox="0 0 46 45" fill="none" xmlns="http://www.w3.org/2000/svg">
<path d="M13.6831 36.6655C13.7397 36.7215 13.7846 36.7879 13.8153 36.8611C13.8459 36.9343 13.8617 37.0128 13.8617 37.0921C13.8617 37.1713 13.8459 37.2498 13.8153 37.323C13.7846 37.3962 13.7397 37.4627 13.6831 37.5186L7.11812 44.0311C7.06165 44.0871 6.99461 44.1316 6.92083 44.1619C6.84705 44.1922 6.76798 44.2078 6.68812 44.2078C6.60826 44.2078 6.52918 44.1922 6.45541 44.1619C6.38163 44.1316 6.31459 44.0871 6.25812 44.0311C6.20165 43.9751 6.15686 43.9086 6.1263 43.8354C6.09574 43.7622 6.08001 43.6838 6.08001 43.6046C6.08001 43.5253 6.09574 43.4469 6.1263 43.3737C6.15686 43.3005 6.20165 43.234 6.25812 43.178L12.8236 36.6655C12.88 36.6095 12.947 36.5651 13.0208 36.5348C13.0945 36.5044 13.1735 36.4888 13.2534 36.4888C13.3332 36.4888 13.4122 36.5044 13.486 36.5348C13.5597 36.5651 13.6267 36.6095 13.6831 36.6655ZM0.94112 38.5092C1.021 38.5093 1.10012 38.4938 1.17392 38.4635C1.24772 38.4332 1.31474 38.3887 1.37112 38.3326L7.93612 31.8201C8.04742 31.7065 8.10919 31.554 8.10807 31.3955C8.10695 31.2371 8.04303 31.0855 7.93013 30.9734C7.81723 30.8613 7.66441 30.7979 7.5047 30.7966C7.345 30.7954 7.19122 30.8566 7.07662 30.967L0.51112 37.4795C0.426301 37.5639 0.368585 37.6714 0.34525 37.7883C0.321914 37.9052 0.334004 38.0264 0.379994 38.1365C0.425985 38.2467 0.503817 38.3408 0.603676 38.4071C0.703536 38.4735 0.820952 38.5089 0.94112 38.5092ZM8.75712 35.8516C8.70066 35.7956 8.63362 35.7511 8.55984 35.7208C8.48606 35.6905 8.40698 35.6749 8.32712 35.6749C8.24726 35.6749 8.16818 35.6905 8.0944 35.7208C8.02062 35.7511 7.95358 35.7956 7.89712 35.8516L0.51112 43.178C0.397077 43.2911 0.333008 43.4446 0.333008 43.6046C0.333008 43.7646 0.397077 43.918 0.51112 44.0311C0.625163 44.1443 0.779838 44.2078 0.94112 44.2078C1.1024 44.2078 1.25708 44.1443 1.37112 44.0311L8.75712 36.7037C8.87088 36.5906 8.93478 36.4374 8.93478 36.2776C8.93478 36.1179 8.87088 35.9647 8.75712 35.8516ZM45.3331 0.746691C45.3331 5.37784 44.3611 12.3997 41.9696 16.5165C40.8736 18.4013 36.8851 22.2374 30.1126 27.9245C30.4676 30.0221 30.8051 32.6965 30.5536 34.2237C30.1331 36.7568 22.9831 43.5624 22.1661 44.3297C22.0941 44.3975 22.0065 44.4468 21.9109 44.4733C21.8153 44.4997 21.7146 44.5026 21.6176 44.4816C21.5206 44.4607 21.4302 44.4164 21.3544 44.3529C21.2786 44.2893 21.2196 44.2083 21.1826 44.1169L18.3831 37.17C13.7581 37.1407 8.03312 31.4734 8.00862 26.8799L1.00862 24.1023C0.917022 24.0659 0.835743 24.0078 0.77179 23.9333C0.707838 23.8587 0.663132 23.7698 0.641528 23.6743C0.619924 23.5787 0.622071 23.4794 0.647784 23.3849C0.673497 23.2904 0.722003 23.2035 0.78912 23.1317C1.55262 22.3162 8.32862 15.1575 11.0016 14.8038C12.7516 14.5727 15.4341 14.9888 17.1766 15.3266C22.9101 8.56216 26.8331 4.57482 28.8381 3.47171C33.0856 1.13407 40.1646 0.143555 44.7251 0.143555C44.805 0.14349 44.8841 0.159046 44.9579 0.189333C45.0317 0.21962 45.0987 0.264045 45.1552 0.320064C45.2117 0.376083 45.2564 0.442598 45.287 0.515804C45.3175 0.589009 45.3332 0.667468 45.3331 0.746691ZM8.61512 25.8215C11.1801 22.6014 12.9836 20.3064 16.2786 16.3861C14.8556 16.1341 12.5926 15.8087 11.1596 15.9977C9.58862 16.2055 5.13312 20.3521 2.28662 23.3117L8.61512 25.8215ZM29.0281 28.8282C25.9406 31.3806 20.8281 35.4627 19.4466 36.5619L21.9766 42.8368C24.9411 39.9773 29.1066 35.5217 29.3536 34.0253C29.5166 33.0388 29.4006 31.214 29.0281 28.8282ZM42.0956 13.3421C37.5766 12.0773 33.3016 7.82164 32.0366 3.38045C31.1372 3.69191 30.2648 4.07542 29.4281 4.5272C25.1536 6.87973 12.2281 23.2348 9.22812 26.9985C9.45412 30.9764 14.2781 35.7454 18.2581 35.9597C21.8991 33.1241 38.6146 19.8655 40.9156 15.9124C41.382 15.0905 41.7768 14.2306 42.0956 13.3421ZM44.1146 1.35379C40.4198 1.45355 36.7518 2.00785 33.1946 3.00399C34.3401 7.05581 38.3076 11.063 42.4796 12.1964C43.4783 8.66362 44.0276 5.02081 44.1146 1.3528V1.35379ZM33.0446 12.3337C33.6879 12.9719 34.1627 13.7575 34.4268 14.6211C34.691 15.4847 34.7363 16.3996 34.5589 17.2847C34.3814 18.1699 33.9867 18.998 33.4095 19.6956C32.8324 20.3932 32.0908 20.9389 31.2503 21.2843C30.4098 21.6297 29.4964 21.7641 28.591 21.6757C27.6857 21.5873 26.8163 21.2787 26.0598 20.7773C25.3034 20.276 24.6832 19.5973 24.2544 18.8014C23.8255 18.0055 23.6011 17.1169 23.6011 16.2145C23.6049 15.1308 23.9316 14.0724 24.54 13.1724C25.1485 12.2724 26.0116 11.5709 27.0208 11.1562C28.0301 10.7414 29.1404 10.632 30.2122 10.8415C31.284 11.051 32.2694 11.5702 33.0446 12.3337ZM33.4486 16.2135C33.4485 15.3667 33.1953 14.5389 32.721 13.8349C32.2466 13.1309 31.5725 12.5822 30.7838 12.2582C29.9951 11.9342 29.1273 11.8495 28.2901 12.0148C27.4529 12.1801 26.6839 12.588 26.0804 13.1868C25.4769 13.7857 25.0659 14.5486 24.8995 15.3792C24.733 16.2097 24.8186 17.0706 25.1453 17.8529C25.4721 18.6352 26.0254 19.3038 26.7352 19.7741C27.445 20.2445 28.2795 20.4955 29.1331 20.4954C29.7 20.4957 30.2614 20.3851 30.7851 20.17C31.3089 19.9549 31.7848 19.6395 32.1856 19.2418C32.5864 18.8441 32.9042 18.372 33.1209 17.8523C33.3377 17.3327 33.449 16.7758 33.4486 16.2135Z" fill="black"/>
</svg>
