<svg width="46" height="41" viewBox="0 0 46 41" fill="none" xmlns="http://www.w3.org/2000/svg">
<path d="M12.4309 0.927246C12.3169 0.927246 12.2116 0.965841 12.1162 1.0617L4.17962 8.98594L1.04761 5.81625C0.863012 5.6295 0.597882 5.6295 0.413282 5.81625C0.226204 6.00424 0.227443 6.26817 0.413282 6.45492L3.87113 9.94706C3.96529 10.0417 4.06564 10.0815 4.19201 10.0815C4.30228 10.0815 4.41254 10.0417 4.5067 9.94706L12.7493 1.7066C12.9252 1.51861 12.9314 1.24845 12.7518 1.06544V1.06295H12.7493C12.6564 0.969575 12.5449 0.928492 12.4321 0.928492L12.4309 0.927246ZM17.6976 2.77852C17.4361 2.77852 17.2528 2.96651 17.2528 3.23667C17.2528 3.49936 17.4461 3.69233 17.7087 3.69233H44.9354C45.1993 3.69233 45.3913 3.49936 45.3913 3.23667C45.3913 2.97398 45.1968 2.77852 44.9354 2.77852H17.6976ZM17.6976 7.3127C17.4361 7.3127 17.2416 7.50816 17.2416 7.77085C17.2416 8.03354 17.4349 8.22651 17.6976 8.22651H44.9242C45.1881 8.22651 45.3802 8.03354 45.3802 7.77085C45.3802 7.50816 45.1857 7.3127 44.9242 7.3127H17.6976ZM6.58066 16.1296C4.06688 16.1296 2.02513 18.1813 2.02513 20.7073C2.02513 23.2334 4.06688 25.2851 6.58066 25.2851C9.09321 25.2851 11.135 23.2359 11.1362 20.7111C11.1275 18.1813 9.09445 16.1296 6.58066 16.1296ZM6.58066 17.0347C8.58897 17.0347 10.2343 18.6893 10.2343 20.7061C10.2343 22.723 8.58773 24.3775 6.58066 24.3775C4.5736 24.3775 2.92707 22.7242 2.92707 20.7061C2.92707 18.688 4.5736 17.0347 6.58066 17.0347ZM17.6976 17.9921C17.4361 17.9921 17.2416 18.1875 17.2416 18.4502C17.2416 18.7129 17.4361 18.9084 17.6976 18.9084H44.9242C45.1857 18.9084 45.3802 18.7129 45.3802 18.4502C45.3802 18.1875 45.1857 17.9921 44.9242 17.9921H17.6976ZM17.6976 22.5188C17.4361 22.5188 17.2416 22.7142 17.2416 22.9769C17.2416 23.2396 17.4349 23.4326 17.6976 23.4326H44.9242C45.1881 23.4326 45.3802 23.2396 45.3802 22.9769C45.3802 22.7142 45.1857 22.5188 44.9242 22.5188H17.6976ZM6.58066 31.3431C4.06688 31.3431 2.02513 33.3948 2.02513 35.9209C2.02513 38.4469 4.06688 40.4987 6.58066 40.4987C9.09321 40.4987 11.135 38.4494 11.1362 35.9246C11.1275 33.3836 9.09693 31.3444 6.58066 31.3444V31.3431ZM6.58066 32.2395C8.58897 32.2395 10.2343 33.8941 10.2343 35.9109V35.9172C10.2219 37.9365 8.58525 39.5836 6.58066 39.5836C4.5736 39.5836 2.92707 37.9303 2.92707 35.9122C2.92707 33.8941 4.5736 32.2395 6.58066 32.2395ZM17.6976 33.1857C17.4361 33.1857 17.2416 33.3812 17.2416 33.6438C17.2416 33.9065 17.4361 34.102 17.6976 34.102H44.9242C45.1857 34.102 45.3802 33.9065 45.3802 33.6438C45.3802 33.3812 45.1857 33.1857 44.9242 33.1857H17.6976ZM17.6976 37.7199C17.4361 37.7199 17.2416 37.9153 17.2416 38.178C17.2416 38.4407 17.4349 38.6337 17.6976 38.6337H44.9242C45.1881 38.6337 45.3802 38.4407 45.3802 38.178C45.3802 37.9153 45.1857 37.7199 44.9242 37.7199H17.6976Z" fill="black"/>
</svg>
