<svg width="128" height="37" viewBox="0 0 128 37" fill="none" xmlns="http://www.w3.org/2000/svg">
<g clip-path="url(#clip0_10_2)">
<path d="M53.4533 27.2744C50.1724 27.2744 48.7559 25.7055 48.7559 23.4312C48.7559 19.8434 52.0368 18.7367 56.2379 18.311V17.3867C56.2379 14.9665 54.8214 14.2855 52.9812 14.2855C51.6857 14.2855 50.5719 14.7598 49.8697 15.1611L49.4944 14.2855C50.1845 13.8841 51.5768 13.3125 53.1265 13.3125C55.3662 13.3125 57.497 14.2855 57.497 17.3989V26.3136C56.5285 26.8852 55.112 27.2622 53.4412 27.2622M56.2258 19.1016C52.3032 19.6245 50.0634 20.4029 50.0634 23.419C50.0634 25.5717 51.4073 26.4352 53.6107 26.4352C54.5793 26.4352 55.572 26.2406 56.2258 25.8879V19.1016Z" fill="#231F20"/>
<path d="M64.2891 27.2258C63.5385 27.2258 62.7031 27.0798 62.1583 26.8731V32.3946H60.8386V14.249C61.6135 13.7504 62.8726 13.3247 64.5433 13.3247C68.1996 13.3247 70.1125 16.1219 70.1125 20.0138C70.1125 24.5866 67.8485 27.2258 64.3012 27.2258M64.4465 14.176C63.4537 14.176 62.7515 14.322 62.1583 14.6504V26.0339C62.6304 26.2042 63.2963 26.3623 64.0712 26.3623C67.1584 26.3623 68.7686 24.015 68.7686 20.1719C68.7686 16.5476 67.6306 14.1882 64.4465 14.1882" fill="#231F20"/>
<path d="M76.3354 27.2258C75.5847 27.2258 74.7494 27.0798 74.1925 26.8731V32.3946H72.8728V14.249C73.6476 13.7504 74.9068 13.3247 76.5775 13.3247C80.2338 13.3247 82.1467 16.1219 82.1467 20.0138C82.1467 24.5866 79.8827 27.2258 76.3354 27.2258ZM76.4807 14.176C75.4879 14.176 74.7857 14.322 74.1925 14.6504V26.0339C74.6646 26.2042 75.3426 26.3623 76.1053 26.3623C79.1926 26.3623 80.8028 24.015 80.8028 20.1719C80.8028 16.5476 79.6648 14.1882 76.4807 14.1882" fill="#231F20"/>
<path d="M92.4616 27.0312V17.253C92.4616 15.8544 91.9168 14.2612 89.2533 14.2612C87.7642 14.2612 87.0862 14.4558 86.275 14.8085V27.0434H84.9312V14.2855C86.045 13.6896 87.4373 13.3369 89.447 13.3369C92.8975 13.3369 93.7934 15.5382 93.7934 17.1801V27.0434H92.4495L92.4616 27.0312Z" fill="#231F20"/>
<path d="M101.505 27.2866C97.9824 27.2866 96.5901 24.2461 96.5901 20.3178C96.5901 16.3895 97.9824 13.3247 101.457 13.3247C104.932 13.3247 106.372 16.3165 106.372 20.3178C106.372 24.3191 104.98 27.2866 101.505 27.2866ZM101.505 14.2125C98.503 14.2125 97.9218 17.5084 97.9218 20.3543C97.9218 23.2002 98.5635 26.3258 101.505 26.3258C104.447 26.3258 105.029 23.2002 105.029 20.3543C105.029 17.5084 104.484 14.2125 101.505 14.2125Z" fill="#231F20"/>
<path d="M113.504 27.0311H112.414L107.886 13.5801H109.351L112.632 24.1853C112.874 24.9879 112.959 25.6082 112.959 25.6082H113.007C113.007 25.6082 113.104 25.0123 113.358 24.1853L116.663 13.5801H117.886L113.516 27.0311H113.504Z" fill="#231F20"/>
<path d="M123.625 27.2744C120.344 27.2744 118.927 25.7055 118.927 23.4312C118.927 19.8434 122.208 18.7367 126.41 18.311V17.3867C126.41 14.9665 124.993 14.2855 123.153 14.2855C121.857 14.2855 120.744 14.7598 120.041 15.1611L119.666 14.2855C120.356 13.8841 121.748 13.3125 123.298 13.3125C125.538 13.3125 127.669 14.2855 127.669 17.3989V26.3136C126.7 26.8852 125.284 27.2622 123.613 27.2622M126.397 19.1016C122.475 19.6245 120.235 20.4029 120.235 23.419C120.235 25.5717 121.579 26.4352 123.782 26.4352C124.751 26.4352 125.744 26.2406 126.397 25.8879V19.1016Z" fill="#231F20"/>
<path d="M16.0309 3.30322C15.4135 3.30322 14.8565 3.41268 14.3965 3.55862C12.1567 5.35858 9.91693 8.10718 8.36724 12.303L0.521973 35.7147H10.6433L17.1326 16.2313C18.6218 11.7071 20.232 8.67878 21.8059 6.67207C19.6388 3.98429 17.5685 3.30322 16.0188 3.30322" fill="#231F20"/>
<path d="M22.0965 0.420898C21.7938 0.420898 21.6485 0.43306 21.6243 0.445222C19.3361 0.615489 17.1811 1.55196 15.6072 2.45194C15.7404 2.45194 15.8856 2.43977 16.0309 2.43977C19.1303 2.43977 23.4646 4.7627 27.0361 14.9909C27.0361 14.9909 29.6028 22.6529 30.5955 25.742C33.1622 33.7445 39.5425 35.958 42.6056 36.5782C42.993 36.6634 43.332 36.712 43.5862 36.7485L35.3172 12.3274C31.6609 1.0898 24.0578 0.445222 22.0965 0.420898Z" fill="#231F20"/>
</g>
<defs>
<clipPath id="clip0_10_2">
<rect width="127.147" height="36.3276" fill="white" transform="translate(0.521973 0.420898)"/>
</clipPath>
</defs>
</svg>
