<svg width="114" height="48" viewBox="0 0 114 48" fill="none" xmlns="http://www.w3.org/2000/svg">
<g clip-path="url(#clip0_10_14)">
<path d="M11.2864 29.784C8.47482 29.784 0.977295 30.017 0.977295 35.6083C0.977295 39.1029 3.78887 40.9666 6.83474 40.9666C11.0521 40.9666 12.2236 37.4721 12.2236 37.4721C12.2236 37.4721 12.2236 37.938 12.2236 38.8699V40.5007H15.2695V29.5511C15.2695 25.1246 12.9265 22.7949 8.47482 22.7949C4.49176 22.7949 2.14878 24.8917 2.14878 24.8917L3.55457 27.2214C3.55457 27.2214 5.66325 25.5906 8.24052 25.5906C10.3492 25.5906 11.9893 26.5225 11.9893 29.3181V29.5511L11.2864 29.784ZM12.2236 32.3467V32.8127C12.2236 35.3753 10.5835 38.171 7.53763 38.171C5.42895 38.171 4.25746 36.7732 4.25746 35.3753C4.25746 32.3467 8.70912 32.1137 11.2864 32.1137L12.2236 32.3467Z" fill="#00A5A5"/>
<path d="M23.2356 39.8019C23.2356 38.87 23.2356 38.4041 23.2356 38.4041C23.2356 38.4041 24.6414 41.1997 28.3902 41.1997C32.8418 41.1997 36.122 37.7052 36.122 32.3469C36.122 26.9885 33.3104 23.494 28.6245 23.494C24.4071 23.261 23.0013 26.2896 23.0013 26.2896C23.0013 26.2896 23.0013 25.8237 23.0013 25.1248V23.494H19.9554V47.257H23.2356V39.8019ZM28.1559 25.8237C30.9674 25.8237 33.0761 28.1534 33.0761 31.8809C33.0761 35.8414 30.7331 37.9382 28.1559 37.9382C25.11 37.9382 23.2356 34.9095 23.2356 31.8809C23.2356 27.6875 25.5786 25.8237 28.1559 25.8237Z" fill="#00A5A5"/>
<path d="M43.3852 33.5117C43.3852 32.3468 43.3852 31.415 43.8538 30.4831C44.5567 27.9204 46.6654 26.5226 48.5397 26.5226C49.0083 26.5226 49.4769 26.5226 49.4769 26.5226V23.261C49.4769 23.261 49.0083 23.261 48.5397 23.261C45.9625 23.261 43.8538 25.1248 43.1509 27.6874C43.1509 27.6874 43.1509 27.2215 43.1509 26.5226V23.494H39.8707V40.5008H43.1509V33.5117H43.3852Z" fill="#00A5A5"/>
<path d="M56.7401 23.4939H53.46V40.5007H56.7401V23.4939Z" fill="#00A5A5"/>
<path d="M64.9405 26.9885C64.9405 26.9885 64.9405 26.5225 64.9405 25.8236V23.4939H61.8947V40.5007H65.1748V32.5797C65.1748 31.8808 65.1748 30.949 65.4091 30.25C66.112 27.9203 67.7521 25.8236 70.3294 25.8236C72.9066 25.8236 73.1409 27.9203 73.1409 30.0171V40.2678H76.4211V32.3468C76.4211 31.4149 76.4211 30.716 76.6554 30.0171C77.124 27.6874 78.9984 25.5906 81.3414 25.5906C83.9186 25.5906 84.3872 27.4544 84.3872 29.7841V40.0348H87.6674V29.0852C87.6674 24.6587 85.793 22.562 82.0443 22.562C79.2327 22.562 76.8897 24.4258 75.9525 26.5225C75.4839 23.9598 73.6095 22.562 70.798 22.562C68.2207 23.028 65.8777 25.1247 64.9405 26.9885Z" fill="url(#paint0_linear_10_14)"/>
<path d="M91.4163 32.1137C91.4163 37.472 95.3993 41.1996 100.788 41.1996C105.943 41.1996 110.16 37.472 110.16 32.1137C110.16 26.9884 106.177 23.2608 100.788 23.2608C95.6336 23.0279 91.4163 26.7554 91.4163 32.1137ZM100.554 25.8235C103.834 25.8235 106.411 28.3862 106.411 31.8807C106.411 35.3753 103.834 37.938 100.554 37.938C97.2737 37.938 94.6964 35.3753 94.6964 31.8807C94.6964 28.3862 97.508 25.8235 100.554 25.8235Z" fill="url(#paint1_linear_10_14)"/>
<path d="M110.394 25.5906H110.629V23.7269H111.332V23.4939H109.457V23.7269H110.394V25.5906Z" fill="url(#paint2_linear_10_14)"/>
<path d="M112.034 24.1929V23.9599C112.034 23.9599 112.269 24.1929 112.034 24.1929L112.737 25.1248H112.972L113.44 24.1929V25.5907H113.675L113.44 23.261L112.972 24.4258L112.503 23.261H112.269L112.034 25.5907H112.269L112.034 24.1929Z" fill="url(#paint3_linear_10_14)"/>
<path d="M55.1 14.4082C53.9285 14.4082 52.9913 15.3401 52.9913 16.5049C52.9913 17.6698 53.9285 18.6017 55.1 18.6017C56.2715 18.6017 57.2087 17.6698 57.2087 16.5049C57.2087 15.3401 56.2715 14.4082 55.1 14.4082Z" fill="url(#paint4_linear_10_14)"/>
<path d="M62.1289 6.48706C60.2545 6.48706 58.8488 7.88488 58.8488 9.74865C58.8488 11.6124 60.2545 13.0102 62.1289 13.0102C64.0033 13.0102 65.4091 11.6124 65.4091 9.74865C65.4091 7.88488 64.0033 6.48706 62.1289 6.48706Z" fill="url(#paint5_linear_10_14)"/>
<path d="M74.0781 0.662842C71.2665 0.662842 69.1578 2.75958 69.1578 5.55522C69.1578 8.35087 71.2665 10.4476 74.0781 10.4476C76.8897 10.4476 78.9983 8.35087 78.9983 5.55522C78.9983 2.75958 76.8897 0.662842 74.0781 0.662842Z" fill="url(#paint6_linear_10_14)"/>
<path d="M90.479 4.15747C86.9645 4.15747 84.3872 6.95312 84.3872 10.2147C84.3872 13.4763 87.1988 16.2719 90.479 16.2719C93.9934 16.2719 96.5707 13.4763 96.5707 10.2147C96.5707 6.95312 93.7591 4.15747 90.479 4.15747Z" fill="url(#paint7_linear_10_14)"/>
</g>
<defs>
<linearGradient id="paint0_linear_10_14" x1="5.24382" y1="10.1559" x2="110.931" y2="44.4736" gradientUnits="userSpaceOnUse">
<stop offset="0.0451733" stop-color="#00A5A5"/>
<stop offset="1" stop-color="#65B32E"/>
</linearGradient>
<linearGradient id="paint1_linear_10_14" x1="7.81767" y1="2.22988" x2="113.505" y2="36.5476" gradientUnits="userSpaceOnUse">
<stop offset="0.0451733" stop-color="#00A5A5"/>
<stop offset="1" stop-color="#65B32E"/>
</linearGradient>
<linearGradient id="paint2_linear_10_14" x1="10.9836" y1="-7.52006" x2="116.671" y2="26.7976" gradientUnits="userSpaceOnUse">
<stop offset="0.0451733" stop-color="#00A5A5"/>
<stop offset="1" stop-color="#65B32E"/>
</linearGradient>
<linearGradient id="paint3_linear_10_14" x1="11.1779" y1="-8.11735" x2="116.865" y2="26.2001" gradientUnits="userSpaceOnUse">
<stop offset="0.0451733" stop-color="#00A5A5"/>
<stop offset="1" stop-color="#65B32E"/>
</linearGradient>
<linearGradient id="paint4_linear_10_14" x1="52.9032" y1="16.5825" x2="96.3497" y2="16.5825" gradientUnits="userSpaceOnUse">
<stop offset="0.0451733" stop-color="#00A5A5"/>
<stop offset="1" stop-color="#65B32E"/>
</linearGradient>
<linearGradient id="paint5_linear_10_14" x1="52.9032" y1="9.69041" x2="96.3497" y2="9.69041" gradientUnits="userSpaceOnUse">
<stop offset="0.0451733" stop-color="#00A5A5"/>
<stop offset="1" stop-color="#65B32E"/>
</linearGradient>
<linearGradient id="paint6_linear_10_14" x1="52.9032" y1="5.51632" x2="96.3497" y2="5.51632" gradientUnits="userSpaceOnUse">
<stop offset="0.0451733" stop-color="#00A5A5"/>
<stop offset="1" stop-color="#65B32E"/>
</linearGradient>
<linearGradient id="paint7_linear_10_14" x1="52.9032" y1="10.1758" x2="96.3497" y2="10.1758" gradientUnits="userSpaceOnUse">
<stop offset="0.0451733" stop-color="#00A5A5"/>
<stop offset="1" stop-color="#65B32E"/>
</linearGradient>
<clipPath id="clip0_10_14">
<rect width="112.931" height="46.5941" fill="white" transform="translate(0.977295 0.662842)"/>
</clipPath>
</defs>
</svg>
