<svg width="90" height="23" viewBox="0 0 90 23" fill="none" xmlns="http://www.w3.org/2000/svg">
<g clip-path="url(#clip0_10_30)">
<path d="M81.7448 22.3474H78.7701C78.1856 21.8035 77.4747 21.3434 77.0493 20.7039C76.4097 19.7312 76.2774 18.5464 76.5094 17.4169C76.9809 15.128 77.5341 12.854 78.0845 10.583C78.4042 9.26517 78.8281 7.9698 79.1256 6.64753C79.1925 6.34872 79.0497 5.8467 78.8281 5.68385C78.6065 5.52099 78.1201 5.56731 77.8093 5.68385C77.3907 5.83753 77.0094 6.07894 76.6908 6.39204C75.2928 7.81889 73.9244 9.27563 72.565 10.7398C72.3997 10.9542 72.288 11.2052 72.2393 11.4719C71.5387 14.2943 70.7787 17.1061 70.1957 19.9539C69.9592 21.1043 69.4654 21.5256 68.341 21.6362C67.1065 21.7572 63.879 22.3593 63.4834 22.3593C63.6192 21.7338 63.7536 21.1078 63.8864 20.4813C64.8473 15.9721 65.82 11.4645 66.7481 6.94784C66.8447 6.47272 66.6306 5.93336 66.5607 5.42537C66.0743 5.60615 65.5195 5.6943 65.112 5.98565C63 7.4887 61.3074 9.42205 59.6565 11.3987C59.5064 11.5921 59.4117 11.8231 59.3828 12.0666C59.0437 14.7559 58.6689 17.4453 58.4294 20.1346C58.3625 20.8951 58.1751 21.1805 57.4389 21.3299C56.1226 21.6018 54.8346 22.0052 53.5347 22.3534H52.791C52.7062 20.5186 52.6214 18.6839 52.5322 16.761C52.3329 16.9104 52.208 16.9806 52.1039 17.0777C49.8729 19.1351 47.6181 21.1536 44.7728 22.3534H41.9469C39.7248 21.2074 39.3322 19.0948 39.1463 16.8252C39.0328 16.8877 38.9249 16.9596 38.8235 17.0404C36.8008 19.2083 34.6679 21.2238 31.8494 22.3578H28.5773C26.9249 21.4838 26.1827 19.9897 25.8526 18.0982C24.0217 19.797 22.283 21.3702 20.1219 22.3474H17.4447C14.888 20.8533 15.0129 18.2655 14.8508 15.5956C14.5712 15.9796 14.4195 16.1932 14.2648 16.3994C12.4279 18.8587 10.5108 21.2283 7.49597 22.3474H4.52132C2.45989 21.309 1.2611 19.6132 0.838704 17.3781C0.315861 14.6568 0.726925 11.8379 2.00477 9.38171C4.19114 5.05932 7.48854 1.96806 12.2405 0.662229C14.7898 -0.0384972 16.6222 0.781753 17.9638 3.01242C18.0315 3.10503 18.1066 3.19197 18.1884 3.27239C19.6281 2.48202 21.0321 1.6543 22.4912 0.93714C23.0861 0.638323 23.8075 0.584533 24.6686 0.369385C24.1243 2.2101 23.6201 3.75946 23.2096 5.33274C22.3633 8.57938 21.5348 11.8335 20.7689 15.1011C20.5681 15.9587 20.7138 16.894 21.5408 17.4259C22.3677 17.9578 23.1575 17.517 23.8595 17.009C25.0301 16.1574 25.9225 15.252 26.0712 13.5861C26.3776 10.2572 27.5585 7.10622 28.5164 3.91037C28.9625 2.41628 29.6423 1.59454 31.2783 1.45559C32.8058 1.3256 34.308 0.895305 35.95 0.572583C35.828 0.983456 35.7492 1.26285 35.663 1.53926C34.7542 4.48858 33.7859 7.42296 32.959 10.3962C32.4984 12.1359 32.1409 13.9015 31.8881 15.6838C31.7394 16.6235 31.8985 17.6261 32.8192 18.1804C33.7398 18.7347 34.5623 18.3059 35.2837 17.7322C37.2246 16.2082 38.7596 14.3794 39.4869 11.956C40.2945 9.2577 41.2374 6.59225 41.9216 3.86256C42.2964 2.36847 42.9404 1.62143 44.517 1.46156C46.1203 1.30169 47.6969 0.86393 49.4148 0.51282C49.3062 0.905765 49.2348 1.18217 49.153 1.45559C48.0033 5.31331 46.8298 9.16656 45.7128 13.0333C45.3856 14.1673 45.1179 15.3416 45.4763 16.5369C45.7946 17.6007 46.5323 18.0429 47.5779 17.6784C48.1839 17.4677 48.7482 17.1516 49.2452 16.7446C50.27 15.8929 51.2546 14.9845 52.1901 14.0343C52.5465 13.676 52.7874 13.2185 52.8817 12.721C53.438 8.93348 54.845 5.43732 56.4587 2.00391C56.5096 1.89901 56.5808 1.80534 56.6682 1.72838C56.7555 1.65142 56.8572 1.59272 56.9674 1.55569C58.8399 1.15976 60.7199 0.796695 62.6981 0.40375C62.237 1.72452 61.7893 2.92278 61.4011 4.13896C61.0055 5.37905 60.6694 6.63707 60.3065 7.88613C60.5732 7.79306 60.8097 7.62882 60.9906 7.41101C62.5345 5.88107 63.9921 4.24653 65.6564 2.86152C66.8049 1.92897 68.0943 1.18654 69.4758 0.662229C71.2219 -0.0160859 72.7479 0.895303 73.2313 2.7136C73.4128 3.39192 73.4306 4.12701 73.438 4.83819C73.4455 5.54938 73.3458 6.26953 73.2893 6.98519L73.5422 7.14656C73.7132 6.90601 73.85 6.63109 74.0612 6.43388C75.5396 5.04587 76.9764 3.60707 78.5425 2.32514C79.4206 1.60594 80.4166 1.04577 81.486 0.669697C83.5608 -0.0429812 85.3144 1.06862 85.707 3.23504C85.8379 3.95369 85.9182 4.73809 85.771 5.44031C85.3441 7.4887 84.8116 9.51767 84.2836 11.5436C83.8568 13.1602 83.3273 14.7514 82.9227 16.374C82.774 16.9866 82.7561 17.7187 83.421 18.1116C84.0858 18.5046 84.7075 18.1116 85.1924 17.7292C86.2335 16.894 87.2077 15.9826 88.1864 15.0772C88.6415 14.6573 89.0401 14.1807 89.5889 13.5831C89.5889 14.3869 89.5473 14.9591 89.5993 15.5254C89.6663 16.253 89.4104 16.755 88.8661 17.2555C86.6991 19.2546 84.5335 21.2313 81.7448 22.3474ZM7.03342 14.4377C7.03342 14.6603 7.01854 14.8859 7.03342 15.1041C7.2 17.4318 9.1707 18.4164 11.0968 17.1196C11.5281 16.8314 11.9201 16.4878 12.2629 16.0976C14.3035 13.7579 15.3996 10.961 15.9722 7.96681C16.205 6.78604 16.2481 5.57548 16.1002 4.381C15.8994 2.89588 14.5414 2.19366 13.1374 2.73751C12.4687 2.98839 11.863 3.38366 11.363 3.89543C8.59808 6.85073 7.45582 10.5053 7.03342 14.4377Z" fill="black"/>
<path d="M81.7453 22.3473C84.534 21.2312 86.6996 19.2546 88.8651 17.2674C89.4095 16.7669 89.6653 16.2649 89.5984 15.5373C89.5463 14.9725 89.588 14.4003 89.588 13.595C89.0392 14.1807 88.6406 14.6632 88.1854 15.0891C87.2068 15.9945 86.2296 16.9059 85.1915 17.7411C84.7066 18.131 84.0879 18.524 83.42 18.1235C82.7522 17.7231 82.7701 16.9985 82.9218 16.3859C83.3263 14.7633 83.8558 13.1721 84.2827 11.5555C84.8166 9.52957 85.3491 7.5006 85.77 5.45221C85.9188 4.74999 85.837 3.96559 85.7061 3.24694C85.3134 1.08052 83.5599 -0.0310853 81.485 0.681593C80.4157 1.05766 79.4197 1.61784 78.5416 2.33704C76.9755 3.61897 75.5387 5.05777 74.0603 6.44578C73.8491 6.643 73.7123 6.91791 73.5412 7.15845L73.2943 6.99112C73.3464 6.27545 73.4431 5.55978 73.4431 4.84412C73.4431 4.12845 73.4178 3.39784 73.2363 2.71953C72.75 0.901226 71.2269 -0.0101676 69.4808 0.668147C68.0993 1.19246 66.8099 1.93489 65.6614 2.86744C63.9971 4.25246 62.538 5.88699 60.9956 7.41693C60.8147 7.63474 60.5782 7.79899 60.3115 7.89205C60.6744 6.64299 61.0105 5.38498 61.4061 4.14489C61.7943 2.9287 62.242 1.73044 62.7031 0.409673C60.7249 0.802618 58.845 1.16568 56.9724 1.56161C56.8622 1.59864 56.7605 1.65735 56.6732 1.73431C56.5858 1.81126 56.5147 1.90493 56.4638 2.00984C54.85 5.44623 53.4356 8.9409 52.8838 12.7329C52.7895 13.2304 52.5485 13.6879 52.1921 14.0462C51.2566 14.9964 50.272 15.9048 49.2472 16.7565C48.7503 17.1635 48.1859 17.4796 47.5799 17.6903C46.5388 18.0548 45.7952 17.6126 45.4784 16.5488C45.1214 15.3535 45.3876 14.1792 45.7148 13.0451C46.8318 9.17846 48.0053 5.32521 49.155 1.46748C49.2368 1.19407 49.3038 0.917661 49.4168 0.524716C47.6945 0.865368 46.1179 1.31359 44.5146 1.463C42.938 1.61988 42.294 2.37141 41.9192 3.864C41.235 6.59369 40.292 9.25914 39.4844 11.9575C38.7571 14.3809 37.2222 16.2096 35.2812 17.7336C34.5599 18.3013 33.7181 18.7257 32.8167 18.1818C31.9154 17.638 31.7399 16.625 31.8857 15.6852C32.1384 13.903 32.496 12.1374 32.9566 10.3976C33.7835 7.4244 34.7518 4.49002 35.6605 1.54069C35.7468 1.26429 35.8256 0.984892 35.9476 0.574019C34.3115 0.896741 32.8034 1.32106 31.2759 1.45702C29.6398 1.59597 28.9631 2.41324 28.5139 3.91181C27.5591 7.10616 26.3692 10.2572 26.0717 13.586C25.923 15.2519 25.0395 16.1573 23.863 17.009C23.161 17.5169 22.3861 17.9697 21.5443 17.4258C20.7025 16.882 20.5686 15.9556 20.7694 15.101C21.5354 11.8335 22.3638 8.57933 23.2101 5.33268C23.6206 3.75941 24.1248 2.21004 24.6692 0.36933C23.808 0.584478 23.0911 0.641256 22.4917 0.937085C21.0327 1.65425 19.6286 2.48197 18.1889 3.27234C18.1072 3.19192 18.0321 3.10498 17.9643 3.01237C16.6257 0.781698 14.7904 -0.038552 12.2411 0.662174C7.48908 1.968 4.19167 5.05926 2.0053 9.38165C0.730499 11.839 0.322588 14.6578 0.848164 17.378C1.27056 19.6191 2.46935 21.3089 4.53078 22.3473H0.523926C0.523926 14.9765 0.523926 7.60568 0.523926 0.234863H89.7635V22.3473H81.7453Z" fill="white"/>
</g>
<defs>
<clipPath id="clip0_10_30">
<rect width="89.2396" height="22.1125" fill="white" transform="translate(0.521973 0.234863)"/>
</clipPath>
</defs>
</svg>
