<svg width="137" height="40" viewBox="0 0 137 40" fill="none" xmlns="http://www.w3.org/2000/svg">
<g clip-path="url(#clip0_10_38)">
<path d="M24.3504 37.8439C30.8414 36.6869 36.2025 35.7294 36.2641 35.7162L36.3761 35.6923L30.2479 28.3372C26.8775 24.2918 24.1198 20.9663 24.1198 20.9472C24.1198 20.9109 30.4476 3.32788 30.4832 3.26533C30.4951 3.24441 34.8014 10.7463 40.9219 21.4504C46.652 31.4717 51.3763 39.7344 51.4202 39.8118L51.5 39.9526L32.0243 39.9501L12.5486 39.9475L24.3504 37.8439ZM99.0375 36.0651C96.0729 35.8733 94.3487 34.1699 93.8918 30.9816C93.7703 30.1335 93.7698 30.1114 93.7574 24.6053L93.7453 19.2763H95.0574H96.3694L96.3798 24.4308C96.3891 29.0765 96.3949 29.6212 96.4389 29.948C96.6176 31.2743 96.9732 32.1662 97.5787 32.8064C98.0633 33.3188 98.6306 33.6188 99.4158 33.778C99.7863 33.8531 100.84 33.8532 101.178 33.7783C101.974 33.6015 102.612 33.2519 103.175 32.6842C103.817 32.0371 104.291 31.119 104.521 30.0807L104.598 29.7308L104.607 24.5327L104.615 19.3345H105.955H107.294V27.5062V35.6778H105.969H104.643V34.3813C104.643 33.5004 104.633 33.088 104.613 33.0948C104.597 33.1004 104.529 33.2055 104.462 33.3284C104.005 34.1691 103.244 34.9379 102.41 35.4011C101.41 35.9563 100.407 36.1537 99.0375 36.0651ZM129.128 36.0519C128.082 35.9725 126.98 35.6095 126.079 35.0473C124.181 33.8625 123.058 31.9095 122.729 29.2219C122.615 28.2918 122.602 27.0426 122.697 26.2523C122.909 24.4865 123.596 22.753 124.576 21.5155C124.827 21.1982 125.396 20.6236 125.71 20.3703C126.559 19.6864 127.553 19.2081 128.607 18.9753C129.221 18.8397 130.303 18.776 130.956 18.8371C132.595 18.9904 134.098 19.7694 135.119 20.9954C136.157 22.241 136.727 23.9815 136.8 26.1248C136.812 26.4606 136.814 27.0495 136.806 27.4334L136.792 28.1313L131.049 28.1387L125.307 28.146V28.4046C125.307 29.1917 125.497 30.0883 125.825 30.8511C126.107 31.5088 126.594 32.2271 126.992 32.5747C127.81 33.2875 128.81 33.7141 129.904 33.8167C130.31 33.8548 131.344 33.8147 131.806 33.743C133.125 33.5385 134.379 33.0164 135.392 32.2502C135.511 32.16 135.625 32.0758 135.645 32.063C135.675 32.0443 135.682 32.2798 135.681 33.2699L135.68 34.5L135.409 34.6693C134.263 35.3843 132.951 35.8435 131.561 36.0153C131.146 36.0666 129.624 36.0895 129.128 36.0519ZM134.126 25.6771C134.126 24.3586 133.575 22.8939 132.796 22.1396C132.24 21.6014 131.568 21.2724 130.768 21.1475C130.39 21.0884 129.593 21.1112 129.195 21.1925C128.352 21.3643 127.655 21.7381 127.047 22.3443C126.407 22.9823 125.928 23.7571 125.626 24.64C125.517 24.9574 125.39 25.4786 125.351 25.7685L125.332 25.9067H129.729H134.126V25.6771ZM56.2314 35.6414C56.2381 35.6214 58.1881 30.4524 60.5647 24.1547L64.8858 12.7043L66.2741 12.7042L67.6625 12.7041L67.7777 13.0022C68.1297 13.9131 76.4282 35.6529 76.4282 35.6642C76.4282 35.6717 75.7635 35.6777 74.9512 35.6775L73.4741 35.6772L72.2781 32.4641L71.0821 29.251L66.2663 29.2509L61.4505 29.2509L61.4087 29.3599C61.3857 29.4199 60.8747 30.8657 60.2731 32.5728L59.1794 35.6767L57.6993 35.6772C56.5277 35.6776 56.2217 35.6702 56.2314 35.6414ZM70.2031 26.7989C70.2031 26.7938 69.3982 24.592 68.4144 21.9061C66.574 16.8811 66.4711 16.5788 66.3257 15.7721C66.2575 15.3938 66.223 15.3833 66.1825 15.7285C66.1536 15.9752 66.0281 16.5273 65.9314 16.8335C65.8834 16.9855 65.0547 19.2807 64.0897 21.9341C63.1247 24.5875 62.3352 26.7696 62.3352 26.7833C62.3352 26.797 64.1055 26.8082 66.2691 26.8082C68.4328 26.8082 70.2031 26.804 70.2031 26.7989ZM77.3216 35.2593V34.8408L82.1196 28.1854L86.9176 21.53L82.5735 21.5155L78.2295 21.501L78.2219 20.3886L78.2144 19.2763H84.4975H90.7806V19.652V20.0277L85.9821 26.7194C83.3429 30.3998 81.1835 33.4172 81.1835 33.4248C81.1835 33.4324 83.3169 33.4385 85.9244 33.4385H90.6653V34.5581V35.6778H83.9935H77.3216V35.2593ZM112.53 35.6584C112.52 35.6477 112.511 31.9574 112.511 27.4576V19.2763H113.822H115.134V20.963C115.134 21.8906 115.145 22.6496 115.158 22.6496C115.172 22.6496 115.236 22.4978 115.3 22.3122C115.595 21.4617 116.106 20.6671 116.765 20.0355C117.358 19.4665 118.037 19.1263 118.837 18.9961C119.062 18.9595 119.252 18.9525 119.702 18.9643C120.266 18.9792 120.561 19.0208 120.905 19.1341L121.013 19.1697V20.5432V21.9166L120.703 21.7601C120.156 21.4837 119.616 21.3743 118.967 21.4083C118.544 21.4305 118.267 21.4853 117.929 21.6132C117.234 21.8763 116.67 22.3408 116.277 22.9749C115.706 23.8928 115.3 25.0727 115.18 26.1571C115.158 26.3517 115.146 27.9367 115.14 31.0612L115.133 35.6778H113.841C113.131 35.6778 112.541 35.669 112.53 35.6584ZM0.977295 35.6009C0.977295 35.5906 3.86485 30.5327 7.39408 24.3612L13.8109 13.1403L21.2889 6.80797C25.4018 3.3252 28.778 0.471412 28.7915 0.466208C28.805 0.461004 28.7509 0.598409 28.6713 0.771554C28.5916 0.944699 24.9376 8.85307 20.5512 18.3457L12.576 35.605L6.77663 35.6124C3.587 35.6164 0.977295 35.6113 0.977295 35.6009Z" fill="#0089D6"/>
</g>
<defs>
<clipPath id="clip0_10_38">
<rect width="135.834" height="39.4865" fill="white" transform="translate(0.977295 0.466064)"/>
</clipPath>
</defs>
</svg>
