<svg width="51" height="50" viewBox="0 0 51 50" fill="none" xmlns="http://www.w3.org/2000/svg">
<g clip-path="url(#clip0_34_580)">
<path d="M11.893 11.3509C9.3649 19.28 14.8575 27.8475 14.8575 27.8475C11.6961 9.38928 32.0953 9.97414 32.0953 9.97414L33.6323 0.566454C20.1054 -1.42619 13.899 5.06585 11.8947 11.3509H11.893Z" fill="white"/>
<path d="M38.6525 11.6562C30.7106 9.35992 22.3887 15.1653 22.3887 15.1653C40.5918 11.3957 40.6586 31.9639 40.6586 31.9639L50.0348 33.213C51.5822 19.5215 44.9462 13.4746 38.6508 11.6562H38.6525Z" fill="white"/>
<path d="M9.91776 17.3028L0.565436 15.8795C-1.23177 29.5399 5.29123 35.7093 11.5524 37.645C19.4515 40.088 27.8778 34.4378 27.8778 34.4378C9.60966 37.8693 9.91776 17.3028 9.91776 17.3028Z" fill="white"/>
<path d="M34.8714 20.5653C39.2994 38.7561 18.9105 39.605 18.9105 39.605L18.0273 49.0972C31.6587 50.1375 37.4029 43.2245 38.9674 36.8135C40.9426 28.7274 34.8714 20.5653 34.8714 20.5653Z" fill="white"/>
<path d="M31.9944 26.8779C31.664 23.8398 27.6451 23.1583 27.6451 23.1583L25.6032 22.677C22.6386 22.03 22.4572 21.1829 22.4572 21.1829C21.8307 19.7216 22.8851 18.9574 22.8851 18.9574C25.0589 17.1649 28.453 19.1402 28.453 19.1402C29.771 19.8217 30.1663 19.173 30.1663 19.173C30.6319 18.7762 30.2091 18.3208 29.5981 17.9102C28.3246 17.0562 26.5685 16.599 24.6087 16.7318C20.2954 17.0251 18.8491 19.3887 18.8491 19.3887C17.0211 22.394 19.0956 24.3039 19.0956 24.3039C20.191 25.5771 23.9549 26.4293 23.9549 26.4293C27.1898 27.0694 27.1505 27.4593 27.1505 27.4593C27.6811 27.7854 27.729 28.3133 27.6879 28.7135C27.5921 29.6538 26.738 30.1162 26.423 30.2783C23.6348 31.712 19.936 28.6549 19.936 28.6549C19.1572 27.9751 18.7515 27.9665 18.7515 27.9665C17.68 28.0321 18.3048 29.1518 18.3048 29.1518C19.847 31.6085 23.8316 32.5919 23.8316 32.5919C27.9173 33.6046 30.4128 31.0771 30.4128 31.0771C32.5541 29.0189 31.9944 26.8762 31.9944 26.8762V26.8779Z" fill="white"/>
</g>
<defs>
<clipPath id="clip0_34_580">
<rect width="50" height="49" fill="white" transform="translate(0.262451 0.200684)"/>
</clipPath>
</defs>
</svg>
