<svg width="123" height="37" viewBox="0 0 123 37" fill="none" xmlns="http://www.w3.org/2000/svg">
<path d="M49.2759 14.0782L64.9877 29.4943V6.23845H61.3821V20.7354L45.6407 5.67468V28.9619H49.2463V14.2262L49.2759 14.0782Z" fill="white"/>
<path d="M28.4573 28.962V6.23853H41.375V9.78312L32.0617 9.78528V15.1216L39.2717 15.1195V18.6651H32.0617V18.6716V25.4152H32.0694L41.3147 25.4141V28.962H28.4573Z" fill="white"/>
<path d="M101.193 14.0426L117.018 29.4047V6.23847H113.414V20.9147L113.391 20.8467L97.5527 5.66174V28.9619H101.21V14.1301L101.193 14.0426Z" fill="white"/>
<path d="M5.927 6.23851V28.9609H13.5877C13.5877 28.9609 24.4022 28.0742 24.4022 17.5106C24.4022 6.62299 13.557 6.23743 13.557 6.23743L5.927 6.23851ZM9.53146 25.5901V9.52282H12.7159C12.7159 9.52282 20.8416 9.37378 20.8416 17.6445C20.8416 25.1981 13.4671 25.588 13.4671 25.588L9.53146 25.5901Z" fill="white"/>
<path d="M72.5419 17.719C72.5419 12.9583 76.4227 9.09943 81.2093 9.09943C85.9959 9.09943 90.0565 12.3945 90.0565 17.719C90.0565 22.4797 85.9959 26.3375 81.2093 26.3375C76.4227 26.3375 72.5419 22.4797 72.5419 17.719ZM81.2093 29.7579C88.2987 29.8486 93.7947 23.7368 93.7947 18.1316C93.7947 12.0965 89.3799 5.49976 81.3891 5.49976C75.4413 5.49976 68.864 10.2615 68.864 17.7179C68.864 23.321 73.2065 29.6564 81.2093 29.7579Z" fill="white"/>
</svg>
