<svg width="142" height="36" viewBox="0 0 142 36" fill="none" xmlns="http://www.w3.org/2000/svg">
<g clip-path="url(#clip0_34_167)">
<path fill-rule="evenodd" clip-rule="evenodd" d="M17.8571 0.012207C12.4149 10.0146 12.6901 25.2528 17.7476 35.0122C27.4021 34.934 35.2031 27.1292 35.2031 17.5122C35.2031 7.89516 27.4582 0.149035 17.8571 0.012207Z" fill="white"/>
<path fill-rule="evenodd" clip-rule="evenodd" d="M16.1974 34.9592C10.8619 24.9065 11.2045 9.73538 16.2901 0.0596924C7.18045 0.724285 0 8.28612 0 17.5122C0 26.7383 7.13272 34.2471 16.1974 34.9592Z" fill="white"/>
<path fill-rule="evenodd" clip-rule="evenodd" d="M57.7637 6.63302C58.0642 6.81732 58.3253 7.04071 58.5472 7.30599C58.769 7.56847 58.9431 7.85609 59.0723 8.16884C59.2857 8.67985 59.3952 9.22158 59.3952 9.78843V19.6205H56.0929V11.1763C56.0929 10.763 56.0058 10.3804 55.8345 10.0258C55.7194 9.78285 55.5621 9.57063 55.3627 9.38633C55.1634 9.20203 54.9275 9.0652 54.6551 8.98143C54.0401 8.78317 53.4335 8.80272 52.8326 9.04565C52.3608 9.24392 51.9817 9.55387 51.6953 9.97273C51.4089 10.3916 51.2656 10.8579 51.2656 11.3689V19.6233H47.9211V11.0925C47.9211 10.6513 47.806 10.2492 47.5785 9.88617C47.3511 9.52316 47.0422 9.2495 46.6575 9.0652C46.2727 8.89486 45.8936 8.81668 45.5202 8.83064C45.0624 8.87253 44.6468 9.00935 44.2761 9.23554C43.9055 9.44776 43.6162 9.73538 43.4084 10.0984C43.2006 10.4614 43.0967 10.8495 43.0967 11.26L43.1192 19.6205H39.7522L39.7747 6.28955H43.0995V7.20546C43.7566 6.72237 44.4783 6.37332 45.2646 6.1611C46.0509 5.94888 46.8512 5.88465 47.6656 5.96842C48.0363 6.01031 48.4097 6.09688 48.7804 6.22533C49.5807 6.51015 50.1901 7.00161 50.6029 7.69692C51.1617 7.19988 51.7823 6.80335 52.4675 6.51294C53.1527 6.22253 53.8772 6.04103 54.6326 5.96842C54.9612 5.9405 55.2869 5.9405 55.6099 5.96842C55.9328 5.99635 56.2557 6.05499 56.5871 6.13876C57.0027 6.25325 57.3958 6.41521 57.7665 6.63023L57.7637 6.63302Z" fill="white"/>
<path fill-rule="evenodd" clip-rule="evenodd" d="M74.0144 9.02051C74.1296 9.26345 74.2419 9.50639 74.357 9.75492C74.4722 10.0034 74.5648 10.2548 74.635 10.5117C74.9074 11.408 75.0198 12.3519 74.9776 13.3487L65.1968 13.3711C65.2249 13.6699 65.2755 13.9659 65.3457 14.2563C65.4159 14.5467 65.5254 14.8287 65.6686 15.0996C65.8539 15.4403 66.0758 15.739 66.3341 15.9959C66.834 16.4651 67.4209 16.7387 68.092 16.8169C68.7632 16.8951 69.3866 16.7499 69.9567 16.3785C70.229 16.2221 70.4649 16.0267 70.6643 15.7921C70.8637 15.5575 71.0209 15.2978 71.1361 15.013L74.6547 14.9907C74.4413 15.7865 74.1183 16.4986 73.6887 17.1241C73.4163 17.5373 73.099 17.9032 72.7339 18.2215C72.3689 18.5398 71.9645 18.8163 71.5208 19.0425C71.0771 19.2547 70.6194 19.4194 70.1476 19.5339C69.6197 19.6763 69.0861 19.7545 68.5498 19.7685C68.0134 19.7824 67.4742 19.7461 66.9295 19.6624C66.2583 19.5339 65.6293 19.3021 65.0424 18.9699C64.4555 18.6348 63.9416 18.2131 63.4979 17.7021C63.0402 17.1771 62.6835 16.5991 62.4252 15.9736C62.0966 15.1638 61.8972 14.3205 61.8242 13.4465C61.754 12.5725 61.8158 11.7096 62.018 10.8551C62.1191 10.4419 62.2539 10.0453 62.4252 9.65998C62.5965 9.27462 62.8043 8.9144 63.0458 8.57094C63.4895 7.88959 64.0539 7.31994 64.7391 6.86478C65.326 6.46547 65.9691 6.18343 66.6683 6.0103C67.7972 5.7534 68.912 5.7534 70.0128 6.0103C70.3835 6.08011 70.7373 6.18902 71.0743 6.33143C71.4113 6.47384 71.7342 6.64418 72.0515 6.84244C72.5233 7.14123 72.9445 7.5182 73.318 7.97336C73.5764 8.28611 73.8038 8.63516 74.0032 9.01772L74.0144 9.02051ZM66.1011 9.78843C65.7444 10.1877 65.5001 10.6429 65.3709 11.1539H71.3776C71.3214 10.911 71.2372 10.682 71.1305 10.4614C71.0238 10.2408 70.8918 10.0314 70.7345 9.8331C70.4481 9.49243 70.1027 9.22995 69.6955 9.04285C69.2883 8.85856 68.8615 8.76641 68.4206 8.76641C67.9797 8.76641 67.5557 8.85576 67.1541 9.03168C66.7525 9.2104 66.4043 9.46171 66.1039 9.78843H66.1011Z" fill="white"/>
<path fill-rule="evenodd" clip-rule="evenodd" d="M80.6306 6.24762V7.37854C81.1726 6.79493 81.7876 6.36769 82.4756 6.09962C82.8322 5.97117 83.1973 5.90415 83.5708 5.89577C83.9415 5.8874 84.3009 5.94883 84.6435 6.07728V8.95625C84.3009 8.88644 83.9583 8.86131 83.6129 8.88085C83.2703 8.90319 82.9333 8.98417 82.6048 9.12659C82.2201 9.28296 81.8831 9.51752 81.5967 9.83027C81.3102 10.143 81.0884 10.4977 80.9311 10.897C80.7317 11.3801 80.6306 11.8855 80.6306 12.4105V19.5758L77.2637 19.5981V6.24762H80.6306Z" fill="white"/>
<path fill-rule="evenodd" clip-rule="evenodd" d="M86.7524 1.8971L89.9481 1.87476V5.20051H86.7524V1.8971ZM86.7524 19.5563V6.24766H89.9481V19.5563H86.7524Z" fill="white"/>
<path fill-rule="evenodd" clip-rule="evenodd" d="M92.9303 15.376C92.5877 13.9407 92.5793 12.4887 92.9078 11.0254C92.964 10.8272 93.0229 10.6233 93.0791 10.4167C93.1353 10.2101 93.2083 10.009 93.2925 9.80795C93.579 9.12661 94.0002 8.50111 94.559 7.93146C95.0589 7.43441 95.6682 7.04906 96.3815 6.78099C96.9825 6.53805 97.6339 6.40401 98.3332 6.37609C99.0184 6.34816 99.6951 6.42914 100.361 6.62182C101.026 6.81449 101.644 7.10211 102.217 7.48467V2.45276H105.435V19.6009H102.217V18.7911C101.459 19.3468 100.616 19.7014 99.6867 19.8578C99.0998 19.9583 98.5185 19.9723 97.94 19.8997C97.3615 19.8299 96.7999 19.6875 96.2551 19.4725C95.4829 19.1597 94.8033 18.6683 94.2164 18.0009C93.5734 17.205 93.1437 16.331 92.9303 15.3788V15.376ZM101.445 10.4921C101.172 10.0649 100.788 9.73256 100.288 9.48962C99.8861 9.29136 99.4649 9.19362 99.0212 9.202C98.5775 9.21038 98.1619 9.31928 97.7772 9.5315C97.4767 9.68788 97.1987 9.90848 96.9403 10.1933C96.4686 10.749 96.1681 11.3801 96.0389 12.0921C96.0108 12.2764 95.9856 12.4552 95.9631 12.6255C95.9406 12.7958 95.9322 12.9745 95.9322 13.1588C95.9322 13.7704 96.0249 14.3456 96.2102 14.8873C96.4096 15.4989 96.7381 15.9959 97.1959 16.3813C97.4233 16.5935 97.6789 16.7582 97.9569 16.8727C98.2349 16.9872 98.5241 17.0542 98.8246 17.0766C99.1251 17.0989 99.4227 17.0766 99.7148 17.0124C100.007 16.9481 100.29 16.8308 100.563 16.6605C100.748 16.546 100.919 16.4148 101.077 16.2668C101.234 16.1188 101.369 15.9429 101.484 15.7446C101.827 15.2336 102.043 14.6723 102.127 14.0608C102.214 13.4632 102.214 12.8517 102.127 12.2262C102.04 11.6007 101.812 11.0254 101.442 10.4977L101.445 10.4921Z" fill="white"/>
<path fill-rule="evenodd" clip-rule="evenodd" d="M108.625 1.8971L111.821 1.87476V5.20051H108.625V1.8971ZM108.625 19.5563V6.24766H111.821V19.5563H108.625Z" fill="white"/>
<path fill-rule="evenodd" clip-rule="evenodd" d="M114.853 16.5069C114.825 16.3086 114.814 16.0992 114.823 15.8786C114.831 15.658 114.848 15.4486 114.876 15.2503C115.005 14.4684 115.384 13.8206 116.013 13.3096C116.272 13.0974 116.55 12.9103 116.85 12.7539C117.151 12.5975 117.465 12.4914 117.794 12.4328L122.427 11.6872C122.584 11.6593 122.719 11.5867 122.834 11.475C122.949 11.3605 123.028 11.2265 123.07 11.0701C123.185 10.6875 123.157 10.3245 122.983 9.98104C122.927 9.82467 122.817 9.68226 122.66 9.5538C122.346 9.32762 121.989 9.17683 121.587 9.10702C121.402 9.0791 121.22 9.05955 121.04 9.05397C120.86 9.04559 120.678 9.05676 120.492 9.08468C120.108 9.11261 119.762 9.20475 119.462 9.36113C119.234 9.46166 119.04 9.62362 118.883 9.85259C118.74 10.0648 118.67 10.2854 118.67 10.5144H115.387C115.387 10.0592 115.443 9.59011 115.558 9.10702C115.687 8.52341 115.974 8.02636 116.418 7.61308C116.833 7.19981 117.297 6.88706 117.81 6.67484C118.083 6.56035 118.352 6.4682 118.625 6.39839C118.897 6.32858 119.175 6.27831 119.462 6.25039C120.363 6.12194 121.279 6.12194 122.208 6.25039C122.809 6.33696 123.387 6.48495 123.946 6.69718C124.747 6.982 125.376 7.47346 125.833 8.16877C126.047 8.50945 126.198 8.87246 126.283 9.25781C126.311 9.45607 126.336 9.64596 126.358 9.82188C126.381 10.0006 126.389 10.1877 126.389 10.3859V18.2354C126.389 18.7045 126.482 19.1457 126.667 19.559H123.365L123.107 18.8776C122.663 19.1625 122.194 19.3859 121.703 19.5506C121.208 19.7154 120.706 19.8326 120.192 19.9025C119.577 19.9723 118.99 19.9667 118.434 19.8801C117.805 19.8103 117.218 19.6232 116.676 19.3244C116.26 19.1122 115.918 18.8274 115.645 18.47C115.188 17.9003 114.924 17.2469 114.851 16.5069H114.853ZM118.97 17.2329C119.215 17.3474 119.507 17.4256 119.849 17.4675C120.077 17.4954 120.304 17.4982 120.526 17.4787C120.748 17.4563 120.967 17.4256 121.18 17.3837C121.753 17.2553 122.219 16.9676 122.584 16.5209C122.949 16.0741 123.132 15.5575 123.132 14.9739V13.7787L119.442 14.3958C119.057 14.4656 118.734 14.6388 118.476 14.9068C118.42 14.9767 118.369 15.0493 118.327 15.1191C118.285 15.1889 118.249 15.2615 118.22 15.3313C118.035 15.8563 118.105 16.3421 118.434 16.7805C118.563 16.9648 118.74 17.1156 118.97 17.2273V17.2329Z" fill="white"/>
<path fill-rule="evenodd" clip-rule="evenodd" d="M138.757 6.24768C139.4 6.50458 139.936 6.92344 140.366 7.50706C140.638 7.87565 140.846 8.27776 140.986 8.71338C141.129 9.1462 141.2 9.59857 141.2 10.0677V19.5591H137.875V11.3271C137.875 10.6876 137.667 10.1403 137.254 9.68513C136.825 9.21601 136.302 8.94515 135.687 8.87534C135.187 8.83345 134.73 8.90326 134.314 9.08756C133.912 9.28582 133.578 9.54272 133.306 9.85547C132.89 10.3106 132.685 10.844 132.685 11.4555V19.5591H129.341V6.27002H132.685V7.18593C133.3 6.78662 133.938 6.47387 134.595 6.24768C135.482 5.93493 136.426 5.82044 137.426 5.90701C137.653 5.93493 137.88 5.97682 138.102 6.03546C138.324 6.09131 138.543 6.16391 138.757 6.24768Z" fill="white"/>
<path fill-rule="evenodd" clip-rule="evenodd" d="M43.1249 32.3175V32.9737H39.1626V27.1376H39.9461V32.3175H43.1249Z" fill="white"/>
<path fill-rule="evenodd" clip-rule="evenodd" d="M55.4133 27.1376H59.6761V27.7938L56.2277 27.7994V29.6172H59.3672V30.2651H56.2277V32.3231H59.7267V32.9737H55.4133V27.1376Z" fill="white"/>
<path fill-rule="evenodd" clip-rule="evenodd" d="M74.1888 27.1376H75.0705L77.2131 32.9737H76.3482L75.7473 31.2145H73.5232L72.9139 32.9737H72.0405L74.1888 27.1376ZM73.7479 30.5666H75.517L74.6353 28.006L73.7479 30.5666Z" fill="white"/>
<path fill-rule="evenodd" clip-rule="evenodd" d="M89.6195 27.6403C89.7964 27.456 90.0098 27.3163 90.2654 27.2242C90.4086 27.1711 90.5546 27.132 90.7063 27.1125C90.8579 27.0901 91.0123 27.079 91.1696 27.079C91.2819 27.079 91.3942 27.0846 91.5066 27.0929C91.6189 27.1013 91.7312 27.1153 91.8436 27.1292C92.0991 27.1683 92.3294 27.2437 92.54 27.3554C92.6046 27.3945 92.6635 27.4364 92.7225 27.4783C92.7815 27.523 92.8376 27.5704 92.891 27.6235C93.0623 27.7938 93.1859 27.9921 93.2589 28.2211C93.3375 28.4556 93.3796 28.6846 93.3824 28.9136H92.6186C92.6186 28.6651 92.5512 28.4333 92.4136 28.2211C92.3209 28.0759 92.2002 27.967 92.0542 27.8916C91.9559 27.8385 91.852 27.7994 91.7397 27.7743C91.4364 27.7073 91.1303 27.6989 90.8214 27.7519C90.6641 27.7799 90.5209 27.8357 90.3889 27.9111C90.2822 27.9753 90.1924 28.0563 90.125 28.1596C90.0576 28.263 90.0098 28.3774 89.9846 28.5031C89.9565 28.7265 90.0154 28.922 90.1671 29.0867C90.285 29.2124 90.4254 29.2989 90.5939 29.3408L92.3996 29.8574C92.4866 29.8826 92.5737 29.9133 92.6551 29.9524C92.7394 29.9915 92.818 30.0361 92.8966 30.0836C93.1213 30.226 93.301 30.4103 93.433 30.6393C93.5453 30.8376 93.6015 31.0526 93.6015 31.2815C93.6015 31.4519 93.5734 31.6194 93.52 31.7898C93.4667 31.9573 93.3909 32.1109 93.2926 32.2533C93.1887 32.3957 93.0679 32.5186 92.9247 32.6247C92.7815 32.7308 92.6298 32.8118 92.4614 32.8648C92.2957 32.9179 92.1272 32.9598 91.9559 32.9849C91.7846 33.0128 91.6133 33.024 91.442 33.024C91.3044 33.024 91.1668 33.0156 91.0236 33.0017C90.8242 32.9877 90.6276 32.9514 90.4367 32.8928C90.198 32.8285 89.9789 32.7141 89.7824 32.5493C89.4735 32.2868 89.2629 31.9685 89.1449 31.5943C89.0775 31.3597 89.041 31.1308 89.041 30.9018H89.8048C89.8048 30.9995 89.8133 31.1 89.8273 31.2006C89.8722 31.4938 89.9958 31.7395 90.2008 31.9433C90.3805 32.1221 90.5911 32.2477 90.8326 32.3147C91.1612 32.4013 91.4897 32.4181 91.8239 32.3594C91.9418 32.3343 92.0542 32.298 92.1637 32.2477C92.2732 32.1975 92.3771 32.1332 92.4754 32.055C92.599 31.9517 92.686 31.8289 92.7422 31.6837C92.7983 31.5384 92.8152 31.3877 92.7899 31.2313C92.7759 31.1084 92.7337 30.9995 92.6692 30.899C92.6046 30.7985 92.5175 30.7147 92.4164 30.6477C92.3041 30.5834 92.1946 30.536 92.0851 30.5025L90.5013 30.0501C90.3833 30.0166 90.271 29.9747 90.1615 29.9272C90.052 29.8798 89.9481 29.8239 89.8498 29.7597C89.6729 29.648 89.5324 29.5056 89.4229 29.3325C89.3162 29.1593 89.2488 28.9722 89.2236 28.7684C89.2039 28.559 89.2292 28.3551 89.2966 28.1596C89.364 27.9614 89.4707 27.7883 89.6111 27.6375L89.6195 27.6403Z" fill="white"/>
<path fill-rule="evenodd" clip-rule="evenodd" d="M106.758 32.9737H105.96V27.1432L106.758 27.1376V32.9737Z" fill="white"/>
<path fill-rule="evenodd" clip-rule="evenodd" d="M120.091 27.1376L123.171 31.7841V27.1376H123.963V32.9737H123.076L120.054 28.4137V32.9737H119.262V27.1376H120.091Z" fill="white"/>
<path fill-rule="evenodd" clip-rule="evenodd" d="M136.496 30.522C136.476 30.1925 136.488 29.849 136.533 29.4944C136.592 29.0559 136.74 28.6483 136.979 28.2685C137.131 28.0256 137.316 27.8161 137.538 27.6458C137.757 27.4727 138.001 27.3414 138.271 27.2493C138.389 27.2102 138.507 27.1795 138.627 27.1543C138.748 27.1292 138.872 27.1124 138.998 27.1041C139.116 27.0957 139.234 27.0901 139.355 27.0929C139.476 27.0929 139.593 27.1041 139.711 27.118C139.902 27.1376 140.088 27.1822 140.265 27.2493C140.442 27.3163 140.61 27.4084 140.767 27.5201C140.992 27.6849 141.177 27.8859 141.321 28.1233C141.464 28.3578 141.559 28.6147 141.604 28.894H140.781C140.756 28.6566 140.672 28.4416 140.529 28.2489C140.385 28.0563 140.2 27.9194 139.975 27.8357C139.838 27.7882 139.686 27.7547 139.52 27.7407C139.251 27.7268 138.993 27.7491 138.743 27.8133C138.552 27.8664 138.372 27.9502 138.206 28.0619C138.041 28.1735 137.895 28.3076 137.774 28.464C137.549 28.7572 137.406 29.0811 137.347 29.4413C137.302 29.6982 137.285 29.9579 137.291 30.2148C137.299 30.4717 137.333 30.7258 137.398 30.9743C137.485 31.329 137.659 31.6417 137.917 31.9154C138.043 32.0522 138.189 32.1611 138.349 32.2477C138.51 32.3314 138.681 32.3957 138.863 32.4348C139.108 32.4794 139.341 32.4906 139.56 32.4711C139.703 32.4571 139.838 32.4236 139.967 32.3677C140.096 32.3147 140.217 32.2449 140.329 32.1639C140.472 32.0522 140.585 31.9154 140.675 31.7562C140.826 31.463 140.902 31.1586 140.902 30.8375V30.5387H139.251V29.8825H141.702V32.9904H141.225L141.079 32.4515C140.941 32.5883 140.79 32.7056 140.624 32.8006C140.458 32.8983 140.282 32.9765 140.096 33.0351C139.748 33.1384 139.391 33.1664 139.026 33.1217C138.566 33.0631 138.136 32.9123 137.735 32.6693C137.479 32.5129 137.26 32.3203 137.075 32.0885C136.889 31.8567 136.746 31.5998 136.648 31.3122C136.569 31.0581 136.519 30.7984 136.493 30.5303L136.496 30.522Z" fill="white"/>
<path fill-rule="evenodd" clip-rule="evenodd" d="M142 22.6781H38.6233V23.3902H142V22.6781Z" fill="white"/>
</g>
<defs>
<clipPath id="clip0_34_167">
<rect width="142" height="35" fill="white" transform="translate(0 0.012207)"/>
</clipPath>
</defs>
</svg>
