<svg width="176" height="42" viewBox="0 0 176 42" fill="none" xmlns="http://www.w3.org/2000/svg">
<path d="M39.8179 6.62927H41.6742L49.9469 24.9499H47.2432L44.7843 19.5515H36.9128L34.6067 24.9499H31.8928L39.8179 6.62927ZM43.6986 17.2309L40.7218 10.6325L37.9608 17.2309H43.6986Z" fill="white"/>
<path d="M53.8826 12.9538V14.088C54.5077 13.1755 55.4232 12.7192 56.6291 12.7192C57.5888 12.7192 58.505 13.0668 59.377 13.7619L58.1617 15.6133C57.8524 15.0577 57.3425 14.7795 56.6291 14.7795C55.9338 14.7795 55.2907 15.1099 54.7018 15.7707C54.1122 16.4314 53.8385 17.1701 53.8826 17.9875V24.9507H51.4795V12.9538H53.8826Z" fill="white"/>
<path d="M60.0107 12.9539H62.1633V10.998L64.5281 9.53772V12.9539H67.7765V15.0921H64.5281V20.8423C64.5281 22.1903 65.0075 22.9119 65.9672 23.007C66.6538 23.0678 67.2521 22.8032 67.7627 22.2118L68.5681 24.1155C67.7938 24.8113 66.9254 25.1588 65.9665 25.1588C64.8649 25.1588 63.9501 24.842 63.2193 24.2063C62.9904 24.0153 62.8014 23.8008 62.6515 23.5619C62.5015 23.3224 62.3762 23.0099 62.2748 22.623C62.1734 22.2361 62.1227 21.4995 62.1227 20.4126V15.0928H60.01L60.0107 12.9539Z" fill="white"/>
<path d="M70.6687 6.73364H73.0719V14.1137C73.2739 13.7669 73.6107 13.4622 74.083 13.2012C74.5537 12.9409 75.1237 12.81 75.7922 12.81C76.9279 12.81 77.8304 12.9495 78.5003 13.2277C79.1688 13.5058 79.6824 13.917 80.0387 14.4605C80.395 15.0033 80.6261 15.6791 80.7318 16.4879C80.8376 17.296 80.8905 18.2313 80.8905 19.2912V24.9506H78.4743L78.4475 19.2003C78.4475 18.4959 78.4055 17.8759 78.3222 17.3417C78.2381 16.8068 78.0955 16.3642 77.8927 16.0116C77.6899 15.6598 77.4168 15.3945 77.0735 15.2164C76.7295 15.0383 76.3036 14.9497 75.7915 14.9497C74.9731 14.9497 74.3343 15.2121 73.8765 15.7384C73.4188 16.2648 73.1501 17.0142 73.0711 17.9882V24.9513H70.668L70.6687 6.73364Z" fill="white"/>
<path d="M86.4906 12.9538V14.088C87.1156 13.1755 88.0311 12.7192 89.2377 12.7192C90.1967 12.7192 91.1129 13.0668 91.9849 13.7619L90.7696 15.6133C90.4611 15.0577 89.9504 14.7795 89.2377 14.7795C88.5417 14.7795 87.8993 15.1099 87.3097 15.7707C86.7194 16.4314 86.4464 17.1701 86.4906 17.9875V24.9507H84.0867V12.9538H86.4906Z" fill="white"/>
<path d="M95.5629 7.90796C95.9598 7.90796 96.2988 8.0424 96.5805 8.312C96.8615 8.5816 97.0027 8.91127 97.0027 9.30316C97.0027 9.68575 96.8615 10.0154 96.5805 10.2943C96.298 10.5725 95.9598 10.7112 95.5629 10.7112C95.1935 10.7112 94.8676 10.5704 94.5858 10.2872C94.3034 10.0047 94.1636 9.67645 94.1636 9.30316C94.1636 8.93773 94.3034 8.61378 94.5858 8.33131C94.8676 8.04884 95.1935 7.90796 95.5629 7.90796ZM94.3743 12.9538H96.7775V24.95H94.3743V12.9538Z" fill="white"/>
<path d="M98.5483 12.9539H100.702V10.998L103.065 9.53772V12.9539H106.314V15.0921H103.065V20.8423C103.065 22.1903 103.545 22.9119 104.504 23.007C105.191 23.0678 105.79 22.8032 106.3 22.2118L107.105 24.1155C106.331 24.8113 105.462 25.1588 104.503 25.1588C103.402 25.1588 102.488 24.842 101.757 24.2063C101.528 24.0153 101.338 23.8008 101.189 23.5619C101.039 23.3224 100.913 23.0099 100.812 22.623C100.71 22.2361 100.66 21.4995 100.66 20.4126V15.0928H98.5476L98.5483 12.9539Z" fill="white"/>
<path d="M110.5 7.90796C110.897 7.90796 111.236 8.0424 111.517 8.312C111.799 8.5816 111.94 8.91127 111.94 9.30316C111.94 9.68575 111.799 10.0154 111.517 10.2943C111.235 10.5725 110.897 10.7112 110.5 10.7112C110.13 10.7112 109.804 10.5704 109.523 10.2872C109.24 10.0047 109.1 9.67645 109.1 9.30316C109.1 8.93773 109.24 8.61378 109.523 8.33131C109.804 8.04884 110.13 7.90796 110.5 7.90796ZM109.31 12.9538H111.715V24.95H109.31V12.9538Z" fill="white"/>
<path d="M113.933 22.9291L115.004 21.182C115.365 21.5818 115.703 21.8993 116.02 22.1339C116.337 22.3684 116.661 22.5729 116.991 22.746C117.321 22.9198 117.634 23.0413 117.929 23.1114C118.224 23.1815 118.498 23.2158 118.754 23.2158C119.054 23.2158 119.351 23.1815 119.646 23.1114C119.941 23.0413 120.211 22.9484 120.458 22.8311C120.705 22.7138 120.905 22.5379 121.058 22.3033C121.212 22.0681 121.29 21.8249 121.29 21.5732C121.299 21.2779 121.221 21.0147 121.058 20.7844C120.895 20.5542 120.67 20.3604 120.379 20.203C120.088 20.0464 119.733 19.9313 119.316 19.8576C118.898 19.784 118.433 19.6517 117.922 19.46C117.385 19.2684 116.931 19.0281 116.562 18.7363C116.192 18.4446 115.89 18.1499 115.658 17.8496C115.424 17.5499 115.259 17.2374 115.162 16.9106C115.065 16.5838 115.016 16.2348 115.016 15.8608C115.016 15.4267 115.123 14.9762 115.339 14.5107C115.556 14.0458 115.829 13.6718 116.158 13.3894C116.489 13.1069 116.892 12.8895 117.366 12.7379C117.842 12.5856 118.362 12.5098 118.925 12.5098C120.421 12.5355 121.588 13.0883 122.426 14.1653L121.249 15.6913C120.695 14.8918 119.915 14.4871 118.911 14.4785C117.838 14.4785 117.266 14.9176 117.195 15.7957C117.221 16.7175 118.26 17.3955 120.312 17.8303C122.557 18.4653 123.652 19.7125 123.6 21.5725C123.592 22.407 123.387 23.0914 122.986 23.6263C122.585 24.1605 122.061 24.5653 121.414 24.8392C120.767 25.113 120.06 25.2489 119.294 25.2489C118.608 25.2489 118.005 25.2096 117.485 25.1316C116.965 25.0537 116.512 24.9278 116.125 24.7541C115.738 24.5803 115.363 24.3436 115.002 24.0432C114.642 23.7443 114.285 23.3732 113.933 22.9291Z" fill="white"/>
<path d="M13.0652 21.0647H12.0737L6.95591 12.6935V24.9114H4.31519V6.74731H6.26929L12.5821 17.8968L18.8551 6.74731H20.8099V24.9114H18.1692V12.7057L13.0652 21.0647Z" fill="white"/>
<path d="M31.2801 12.9539H33.9773L25.3678 31.0657H22.685L26.8098 22.3741L22.1172 12.9539H24.8564L28.1374 19.7303L31.2801 12.9539Z" fill="white"/>
<path d="M125.73 24.9506V6.73364H131.422C133.13 6.73364 134.526 7.1906 135.609 8.1031C136.692 9.01559 137.233 10.2506 137.233 11.8067C137.233 13.154 136.905 14.236 136.249 15.0534C135.594 15.8707 134.901 16.357 134.169 16.5136L139.768 24.9506H136.784L131.594 17.0228H128.372V24.9506H125.73ZM129.6 8.95052H128.373V14.7015H131.582C132.171 14.7015 132.657 14.6078 133.041 14.4205C133.424 14.2338 133.784 13.9471 134.123 13.5602C134.463 13.1733 134.633 12.6277 134.633 11.924C134.633 11.2539 134.478 10.6833 134.17 10.2098C133.861 9.73572 133.457 9.40748 132.954 9.22512C132.453 9.04134 131.334 8.95052 129.6 8.95052Z" fill="white"/>
<path d="M148.33 12.9539H151.403L146.402 18.8665L151.759 24.9507H148.677L144.862 20.6471L141.257 24.9507H138.235L143.351 18.8715L138.235 12.9546H141.266L144.867 17.0708L148.33 12.9539Z" fill="white"/>
<path d="M156.238 19.3713C154.745 14.924 158.833 10.8185 161.192 9.12793C156.973 10.6461 152.984 12.9824 152.984 17.0686C152.984 18.3287 153.452 19.6845 154.114 20.5298C154.478 20.3932 154.823 20.2194 155.172 20.0314C155.507 19.8497 155.949 19.6545 156.238 19.3713Z" fill="white"/>
<path d="M171.889 23.0513C171.891 23.0177 171.892 22.9884 171.894 22.9626C171.892 22.9855 171.891 23.0156 171.889 23.0513Z" fill="white"/>
<path d="M171.893 22.9627C171.895 22.9334 171.896 22.914 171.897 22.9033C171.895 22.9155 171.895 22.9355 171.893 22.9627Z" fill="white"/>
<path d="M171.896 22.904C171.897 22.8901 171.897 22.8917 171.896 22.904V22.904Z" fill="white"/>
<path d="M165.25 22.2754C165.426 22.2954 165.602 22.3112 165.785 22.3112C167.851 22.3112 169.525 20.9289 169.525 19.2269C169.525 18.3501 169.08 17.5606 168.368 16.9993C168.488 17.3697 168.552 17.758 168.552 18.1592C168.552 20.0071 167.191 21.5946 165.25 22.2754Z" fill="white"/>
<path d="M173.459 2.63818H172.283C171.54 3.76021 170.851 4.91656 170.239 6.11867C169.047 8.45783 167.496 11.3369 168.165 13.9593C168.71 16.0946 170.942 18.0569 170.562 20.3403C170.096 23.145 165.923 23.7428 163.659 23.3645C161.168 22.9483 158.904 21.325 158.085 18.9222C157.102 16.031 159.186 13.4565 161.076 11.4871C162.969 9.5155 165.016 7.80421 166.66 5.60736C167.378 4.64553 168.057 3.65294 168.702 2.6389H167.504C166.958 3.47702 166.391 4.30227 165.799 5.11036C164.103 7.42449 161.861 9.19727 159.906 11.2818C158.274 13.0232 156.787 15.1292 156.837 17.5949C156.883 19.8232 158.294 21.7576 160.081 22.9912C161.94 24.2749 164.336 24.7082 166.541 24.3614C169.07 23.9624 170.934 22.7431 171.526 20.602C172.188 18.2071 170.002 15.9859 169.303 14.0672C168.322 11.3741 170.199 8.229 171.683 5.51583C172.222 4.52753 172.821 3.5707 173.459 2.63818Z" fill="white"/>
<path d="M162.806 37.4273C162.001 35.6467 160.97 33.9583 159.932 32.3414C158.889 30.7138 157.971 29.1255 157.261 27.3084C156.67 25.7952 156.171 24.2462 155.591 22.7287C155.849 22.5929 156.098 22.437 156.339 22.2639C158.182 24.4543 160.692 26.0562 163.466 26.6133C165.948 27.1117 168.256 26.3279 170.39 25.1473C170.011 26.4145 169.911 27.2869 168.733 28.7393C167.657 30.0687 166.702 30.2725 166.575 32.026C166.466 33.5006 166.801 35.5487 167.351 37.428H169.896C169.561 36.2574 169.429 35.0388 169.526 33.7294C169.662 31.8808 170.579 30.023 171.032 28.1894C171.448 26.5081 171.875 23.3073 171.887 23.082C171.884 23.1564 171.879 23.2408 171.875 23.3058C171.87 23.3924 171.899 23.1485 171.887 23.082C171.52 23.3273 171.147 23.5668 170.769 23.7964C168.618 25.1072 166.323 26.0762 163.721 25.6622C161.23 25.2674 158.149 23.2236 156.554 20.9817C156.068 21.33 155.343 21.7662 155.197 21.8456C154.934 21.9893 154.658 22.1059 154.365 22.1895C154.371 22.2217 154.38 22.2532 154.393 22.2875C154.503 22.5571 154.608 22.8274 154.711 23.0999C155.86 26.1041 156.738 29.2199 158.507 31.9259C159.657 33.6822 160.833 35.4993 161.748 37.4273H162.806Z" fill="white"/>
<path d="M4.31958 37.8601L5.44004 31.4755H7.60129C8.20607 31.4755 8.66019 31.6392 8.96294 31.9675C9.26569 32.2964 9.36853 32.7376 9.27148 33.2919C9.1976 33.7088 9.04406 34.0599 8.80867 34.346C8.574 34.632 8.28356 34.8394 7.94025 34.9688C7.59622 35.099 7.23118 35.1626 6.84659 35.1626H5.70151L5.22855 37.8593L4.31958 37.8601ZM7.29782 32.2878H6.20633L5.84419 34.351H6.99072C7.36083 34.351 7.66068 34.2637 7.89173 34.0885C8.12205 33.9133 8.27053 33.6408 8.33571 33.269C8.45015 32.6147 8.10467 32.2878 7.29782 32.2878Z" fill="white"/>
<path d="M13.0935 35.8606H10.1283C10.0631 36.3354 10.1276 36.6715 10.3224 36.8675C10.5165 37.0634 10.807 37.1614 11.1945 37.1614C11.5943 37.1614 11.9144 36.9755 12.1549 36.605L12.7654 37.0069C12.5105 37.3387 12.2555 37.5747 11.9991 37.7142C11.7428 37.8536 11.4364 37.9244 11.0786 37.9244C10.5578 37.9244 10.1718 37.8279 9.92119 37.6369C9.66986 37.4453 9.49097 37.1871 9.38522 36.8632C9.27875 36.5392 9.25413 36.201 9.31279 35.8477C9.41419 35.1362 9.67493 34.5877 10.0965 34.2022C10.518 33.8175 11.0257 33.6251 11.6189 33.6251C12.9096 33.6251 13.3999 34.3703 13.0935 35.8606ZM10.2391 35.232H12.4229C12.5308 34.6177 12.2229 34.3102 11.4994 34.3102C11.1669 34.3102 10.8852 34.3967 10.6549 34.5698C10.4246 34.7436 10.2862 34.9638 10.2391 35.232Z" fill="white"/>
<path d="M15.1099 33.6616L15.0396 34.0592C15.3105 33.7395 15.6538 33.5793 16.0681 33.5793C16.3984 33.5793 16.6917 33.7009 16.9488 33.9448L16.4179 34.5927C16.3455 34.3989 16.1876 34.3009 15.9421 34.3009C15.7031 34.3009 15.4619 34.4168 15.2185 34.6477C14.9752 34.8787 14.8361 35.1376 14.8013 35.4229L14.3733 37.8601H13.5469L14.2835 33.6616H15.1099Z" fill="white"/>
<path d="M16.7583 37.1528L17.2327 36.5414C17.3327 36.6815 17.429 36.7931 17.5239 36.8753C17.6187 36.9568 17.7172 37.0291 17.8194 37.0898C17.9229 37.1506 18.0222 37.1935 18.1199 37.2179C18.217 37.2415 18.3097 37.2543 18.3973 37.2543C18.5002 37.2543 18.6045 37.2415 18.7102 37.2179C18.816 37.1935 18.9145 37.1606 19.0072 37.1192C19.0992 37.0777 19.1781 37.0162 19.2455 36.934C19.3136 36.8524 19.3541 36.7673 19.3701 36.6794C19.3911 36.575 19.3809 36.4834 19.3389 36.4026C19.2969 36.3218 19.2317 36.2546 19.1412 36.1995C19.0514 36.1452 18.9362 36.1044 18.7964 36.0794C18.6581 36.0529 18.506 36.0064 18.3423 35.9399C18.1692 35.8727 18.028 35.7883 17.9186 35.6868C17.81 35.5845 17.7238 35.4815 17.6622 35.3764C17.6006 35.272 17.563 35.1612 17.5499 35.0475C17.5369 34.9338 17.5412 34.8115 17.5651 34.6799C17.5912 34.5283 17.6564 34.3702 17.7593 34.2079C17.8621 34.0456 17.9794 33.914 18.1091 33.8153C18.2402 33.7159 18.3923 33.6408 18.5647 33.5872C18.7378 33.5343 18.921 33.5078 19.1144 33.5078C19.6279 33.5171 19.9951 33.7102 20.216 34.0878L19.7177 34.6213C19.5765 34.3416 19.3338 34.2 18.9884 34.1965C18.619 34.1965 18.3959 34.3509 18.317 34.6584C18.2699 34.9802 18.5849 35.2177 19.2643 35.37C19.9973 35.5924 20.2979 36.0286 20.1653 36.6801C20.111 36.9719 19.9987 37.2114 19.8271 37.3988C19.6569 37.5854 19.4519 37.727 19.2122 37.8228C18.9739 37.9194 18.7218 37.9666 18.4589 37.9666C18.2228 37.9666 18.0178 37.9523 17.844 37.9258C17.6694 37.8979 17.5217 37.8536 17.3993 37.7928C17.2762 37.732 17.1624 37.6491 17.0567 37.5432C16.9517 37.4374 16.8517 37.3087 16.7583 37.1528Z" fill="white"/>
<path d="M23.4247 33.653C24.0607 33.653 24.5452 33.8589 24.8784 34.2708C25.2115 34.6834 25.3238 35.2012 25.2144 35.8248C25.1087 36.4312 24.8139 36.9332 24.3323 37.333C23.8506 37.7327 23.2857 37.9337 22.6375 37.9337C22.011 37.9337 21.53 37.7306 21.1961 37.3237C20.8615 36.9182 20.7478 36.4105 20.8543 35.8019C20.9622 35.1876 21.2577 34.6756 21.7393 34.2665C22.2217 33.8575 22.7838 33.653 23.4247 33.653ZM23.248 34.401C22.8511 34.401 22.5107 34.5318 22.2261 34.7936C21.9407 35.0546 21.7625 35.3878 21.6923 35.7926C21.6213 36.1945 21.6865 36.522 21.8871 36.7759C22.0884 37.0298 22.3926 37.157 22.8019 37.157C23.2082 37.157 23.5544 37.0276 23.8434 36.7709C24.1316 36.5149 24.3113 36.1852 24.3815 35.7833C24.4518 35.3843 24.3822 35.0539 24.1744 34.7929C23.9651 34.5318 23.6572 34.401 23.248 34.401Z" fill="white"/>
<path d="M27.3284 33.6616L27.256 34.0721C27.5718 33.7588 27.9513 33.5951 28.396 33.5793C28.7922 33.5793 29.0906 33.6473 29.2905 33.7824C29.4904 33.9176 29.6294 34.1035 29.7062 34.3395C29.7823 34.5748 29.7765 34.9488 29.6867 35.4594L29.2659 37.8593H28.4213L28.8407 35.468C28.9168 35.0296 28.9081 34.7228 28.8132 34.5483C28.7183 34.3738 28.5184 34.2859 28.212 34.2859C27.8195 34.3009 27.4414 34.5662 27.0793 35.0797L26.5911 37.8593H25.7466L26.4839 33.6609L27.3284 33.6616Z" fill="white"/>
<path d="M33.4255 37.0841C33.424 37.0934 33.621 37.2715 34.0172 37.6183L33.2668 37.983L32.728 37.5132C32.347 37.7871 31.8987 37.9244 31.3852 37.9244C31.2396 37.9244 31.0976 37.9008 30.9593 37.8529C30.8209 37.8057 30.7 37.7363 30.5964 37.6426C30.4921 37.5504 30.4161 37.4338 30.3646 37.2944C30.3139 37.1542 30.3045 36.9912 30.3371 36.8052C30.3639 36.6501 30.403 36.4992 30.4523 36.3533C30.5023 36.2081 30.5928 36.0601 30.7253 35.9113C30.8579 35.7619 31.0122 35.6389 31.1903 35.5416C31.3678 35.4437 31.5887 35.3664 31.853 35.3085L32.988 35.1261L33.0228 34.9302C33.0561 34.5312 32.8134 34.3259 32.2949 34.3138C32.029 34.3138 31.7915 34.3703 31.5822 34.4832C31.3736 34.5948 31.1824 34.7764 31.0078 35.026L30.7094 34.4739C31.0223 33.9512 31.5612 33.6644 32.326 33.6165C32.4571 33.6129 32.5983 33.6187 32.7526 33.6323C32.9061 33.6458 33.0553 33.678 33.2009 33.7302C33.3566 33.7881 33.4819 33.8511 33.5739 33.9197C33.6666 33.9884 33.7325 34.0813 33.7724 34.1986C33.8122 34.3159 33.8274 34.4647 33.818 34.6456C33.8093 34.8272 33.7796 35.0603 33.7296 35.3457L33.4255 37.0841ZM32.8562 35.8749C32.1275 35.9235 31.6655 36.0258 31.4728 36.1809C31.2823 36.3333 31.1693 36.5113 31.1338 36.7151C31.1193 36.7938 31.1266 36.866 31.1541 36.9297C31.1831 36.994 31.2251 37.047 31.2816 37.0899C31.3374 37.1328 31.4047 37.1642 31.4815 37.1878C31.559 37.2107 31.6394 37.2222 31.7212 37.2222C31.7994 37.2222 31.8835 37.2114 31.9718 37.19C32.0602 37.1692 32.1471 37.1406 32.2318 37.1034C32.3173 37.067 32.3991 37.0241 32.4795 36.9733C32.5599 36.9225 32.6309 36.8682 32.6925 36.8067L32.8562 35.8749Z" fill="white"/>
<path d="M35.7106 31.4847H36.537L35.4187 37.86H34.5923L35.7106 31.4847Z" fill="white"/>
<path d="M37.3677 33.6616H38.1941L37.4575 37.8601H36.6304L37.3677 33.6616ZM38.0862 31.8953C38.2223 31.8953 38.3303 31.9425 38.4099 32.0369C38.4903 32.1313 38.5186 32.2464 38.4947 32.383C38.4715 32.5174 38.4027 32.6326 38.2882 32.7298C38.1745 32.8278 38.0492 32.8757 37.9131 32.8757C37.7856 32.8757 37.6827 32.8264 37.6024 32.7277C37.5234 32.6283 37.4952 32.5138 37.5176 32.383C37.5408 32.255 37.6089 32.142 37.7233 32.0433C37.8385 31.9453 37.9594 31.8953 38.0862 31.8953Z" fill="white"/>
<path d="M38.9205 33.6616H41.0818L41.4454 34.4375L39.2733 37.0842H40.9855L40.8493 37.8601H38.7873L38.3237 37.0842L40.4814 34.4375H38.7836L38.9205 33.6616Z" fill="white"/>
<path d="M45.4905 35.8606H42.5253C42.4601 36.3354 42.5253 36.6715 42.7194 36.8675C42.9135 37.0634 43.2039 37.1614 43.5914 37.1614C43.9912 37.1614 44.3113 36.9755 44.5518 36.605L45.1624 37.0069C44.9074 37.3387 44.6525 37.5747 44.3961 37.7142C44.1397 37.8536 43.8333 37.9244 43.4755 37.9244C42.9548 37.9244 42.5687 37.8279 42.3181 37.6369C42.0668 37.4453 41.8879 37.1871 41.7814 36.8632C41.675 36.5392 41.6511 36.201 41.7097 35.8477C41.8104 35.1362 42.0719 34.5877 42.4934 34.2022C42.9149 33.8175 43.4219 33.6251 44.0158 33.6251C45.3058 33.6251 45.7976 34.3703 45.4905 35.8606ZM42.6361 35.232H44.8205C44.9284 34.6177 44.6213 34.3102 43.8978 34.3102C43.5646 34.3102 43.2829 34.3967 43.0533 34.5698C42.8222 34.7436 42.6832 34.9638 42.6361 35.232Z" fill="white"/>
<path d="M47.7829 37.86C47.1861 37.86 46.7385 37.6641 46.4401 37.2715C46.1409 36.8789 46.0497 36.3526 46.1656 35.6925C46.2735 35.0746 46.5617 34.5669 47.0296 34.1679C47.4975 33.7696 48.0313 33.57 48.6303 33.57C48.9091 33.57 49.1952 33.6616 49.4907 33.8439L49.905 31.4847H50.722L49.6037 37.86H48.7867L48.8352 37.5811C48.7527 37.6362 48.6658 37.6834 48.5738 37.7227C48.4956 37.7564 48.4028 37.7878 48.2964 37.8164C48.1906 37.8457 48.0791 37.86 47.9639 37.86H47.7829ZM49.0178 36.5371L49.3241 34.7936C49.1358 34.5712 48.8773 34.4325 48.5477 34.3781C48.1885 34.3416 47.8582 34.4532 47.5583 34.7135C47.2585 34.9738 47.0709 35.3185 46.9963 35.7469C46.9195 36.1817 46.9586 36.4906 47.1151 36.6737C47.365 36.9568 47.667 37.0827 48.0204 37.052C48.3732 37.0219 48.7063 36.8503 49.0178 36.5371Z" fill="white"/>
<path d="M53.6576 34.6791C53.7112 34.3716 53.7988 34.0777 53.919 33.7967C54.0393 33.5156 54.1877 33.2525 54.363 33.0093C54.539 32.7655 54.7397 32.5452 54.9635 32.3471C55.1873 32.1498 55.4284 31.9796 55.6877 31.838C55.947 31.6971 56.2201 31.5877 56.5083 31.5119C56.7952 31.4368 57.0921 31.3975 57.3978 31.3975C57.6245 31.3975 57.8432 31.4211 58.0532 31.4668C58.2633 31.5126 58.461 31.5777 58.645 31.6628C58.8289 31.7479 58.9984 31.8516 59.1512 31.9731C59.3041 32.0954 59.4359 32.232 59.5445 32.3836L58.8355 32.9822C58.763 32.8778 58.6696 32.7869 58.5566 32.7054C58.4443 32.6253 58.3183 32.5567 58.1793 32.5002C58.0409 32.4444 57.8924 32.4015 57.7316 32.3722C57.5716 32.3428 57.4057 32.3285 57.2333 32.3285C56.9089 32.3285 56.6011 32.3865 56.3084 32.5016C56.0158 32.6175 55.7515 32.7798 55.5168 32.9879C55.2821 33.1967 55.0837 33.4449 54.9236 33.7316C54.7621 34.0191 54.652 34.3352 54.5912 34.6784C54.5282 35.0374 54.5245 35.3614 54.5796 35.6503C54.6346 35.9392 54.7418 36.1859 54.899 36.3897C55.0576 36.5935 55.2633 36.7501 55.5175 36.8596C55.7732 36.969 56.0694 37.0233 56.4084 37.0233C56.6199 37.0233 56.8147 37.0004 56.9929 36.9525C57.1703 36.9053 57.3347 36.8431 57.4847 36.7652C57.6346 36.6872 57.7722 36.5992 57.899 36.4977C58.0257 36.3976 58.1423 36.2946 58.2481 36.1873L58.7913 36.7673C58.6247 36.9439 58.4436 37.1048 58.2481 37.2486C58.0532 37.3937 57.8483 37.5182 57.6331 37.6233C57.4173 37.7277 57.1942 37.8092 56.961 37.8672C56.7278 37.9251 56.4902 37.9537 56.2447 37.9537C55.7696 37.9537 55.3517 37.8714 54.9917 37.707C54.6317 37.5425 54.3391 37.3144 54.1131 37.0226C53.8872 36.7308 53.7336 36.384 53.6525 35.985C53.5743 35.5874 53.575 35.1504 53.6576 34.6791Z" fill="white"/>
<path d="M62.267 37.0841C62.2655 37.0934 62.4632 37.2715 62.8587 37.6183L62.1091 37.983L61.5695 37.5132C61.1892 37.7871 60.7409 37.9244 60.2267 37.9244C60.0811 37.9244 59.9399 37.9008 59.8008 37.8529C59.6617 37.805 59.5415 37.7363 59.4379 37.6426C59.3344 37.5504 59.2576 37.4338 59.2069 37.2944C59.1555 37.1542 59.146 36.9912 59.1786 36.8052C59.2062 36.6501 59.2445 36.4992 59.2945 36.3533C59.3438 36.2081 59.435 36.0601 59.5676 35.9113C59.6994 35.7619 59.8544 35.6389 60.0318 35.5416C60.2093 35.4437 60.4309 35.3664 60.6946 35.3085L61.8295 35.1261L61.865 34.9302C61.8983 34.5312 61.6549 34.3259 61.1371 34.3138C60.8706 34.3138 60.633 34.3703 60.4244 34.4832C60.2151 34.5948 60.0239 34.7764 59.85 35.026L59.5516 34.4739C59.8645 33.9512 60.4034 33.6644 61.169 33.6165C61.2993 33.6129 61.4413 33.6187 61.5956 33.6323C61.7484 33.6458 61.8983 33.678 62.0432 33.7302C62.1996 33.7881 62.3242 33.8511 62.4162 33.9197C62.5089 33.9884 62.5755 34.0813 62.6146 34.1986C62.6552 34.3159 62.6704 34.4647 62.661 34.6456C62.6516 34.8272 62.6226 35.0603 62.5726 35.3457L62.267 37.0841ZM61.6984 35.8749C60.9691 35.9235 60.5077 36.0258 60.3143 36.1809C60.1238 36.3333 60.0116 36.5113 59.9753 36.7151C59.9609 36.7938 59.9688 36.866 59.9963 36.9297C60.0246 36.994 60.0673 37.047 60.1231 37.0899C60.1789 37.1328 60.2462 37.1642 60.3237 37.1878C60.4012 37.2114 60.4809 37.2222 60.5627 37.2222C60.641 37.2222 60.725 37.2114 60.8141 37.19C60.9017 37.1692 60.9886 37.1406 61.0741 37.1034C61.1588 37.067 61.2407 37.0241 61.3218 36.9733C61.4014 36.9232 61.4724 36.8682 61.5347 36.8067L61.6984 35.8749Z" fill="white"/>
<path d="M64.9243 33.6616L64.8548 34.0592C65.1257 33.7395 65.4683 33.5793 65.8833 33.5793C66.2128 33.5793 66.5062 33.7009 66.7633 33.9448L66.2324 34.5927C66.1607 34.3989 66.0028 34.3009 65.7572 34.3009C65.5182 34.3009 65.277 34.4168 65.0337 34.6477C64.7896 34.8787 64.6505 35.1376 64.6158 35.4229L64.1885 37.8601H63.3613L64.0986 33.6616H64.9243Z" fill="white"/>
<path d="M70.8272 35.8606H67.8627C67.7968 36.3354 67.862 36.6715 68.0561 36.8675C68.251 37.0634 68.5414 37.1614 68.9289 37.1614C69.328 37.1614 69.6481 36.9755 69.8886 36.605L70.4999 37.0069C70.2442 37.3387 69.9892 37.5747 69.7328 37.7142C69.4764 37.8536 69.1701 37.9244 68.8123 37.9244C68.2915 37.9244 67.9062 37.8279 67.6549 37.6369C67.4036 37.446 67.2254 37.1871 67.1189 36.8632C67.0124 36.5392 66.9878 36.201 67.0472 35.8477C67.1479 35.1362 67.4086 34.5877 67.8302 34.2022C68.2517 33.8175 68.7594 33.6251 69.3533 33.6251C70.6433 33.6251 71.1336 34.3703 70.8272 35.8606ZM67.9728 35.232H70.1565C70.2645 34.6177 69.9574 34.3102 69.2338 34.3102C68.9006 34.3102 68.6189 34.3967 68.3893 34.5698C68.1583 34.7436 68.0199 34.9638 67.9728 35.232Z" fill="white"/>
<path d="M74.7508 33.6615L74.7949 33.4105C74.9137 32.7347 75.1448 32.232 75.4888 31.8995C75.8343 31.5684 76.2051 31.4025 76.6049 31.4025C76.7773 31.4025 76.9815 31.4389 77.2169 31.5119L76.8932 32.3243C76.8113 32.257 76.673 32.2241 76.4796 32.2241C76.2978 32.2241 76.1291 32.3107 75.9733 32.4837C75.8169 32.6575 75.7003 32.9664 75.6228 33.4105L75.5779 33.6615H76.3232L76.1913 34.4103H75.4468L74.8413 37.86H74.0142L74.6204 34.4103H74.0207L74.1525 33.6615H74.7508Z" fill="white"/>
<path d="M78.9073 33.653C79.5425 33.653 80.0271 33.8589 80.3603 34.2708C80.6934 34.6834 80.8057 35.2012 80.6963 35.8248C80.5906 36.4312 80.2958 36.9332 79.8141 37.333C79.3318 37.7334 78.7676 37.9337 78.1193 37.9337C77.4928 37.9337 77.0126 37.7306 76.678 37.3237C76.3434 36.9182 76.2304 36.4105 76.3362 35.8019C76.4441 35.1876 76.7396 34.6756 77.2219 34.2665C77.7036 33.8575 78.2649 33.653 78.9073 33.653ZM78.7299 34.401C78.3337 34.401 77.9926 34.5318 77.7079 34.7936C77.4226 35.0546 77.2444 35.3878 77.1741 35.7926C77.1032 36.1945 77.1683 36.522 77.3697 36.7759C77.571 37.0298 77.8745 37.157 78.2837 37.157C78.6901 37.157 79.037 37.0276 79.3253 36.7709C79.6135 36.5149 79.7931 36.1852 79.8641 35.7833C79.9336 35.3843 79.8641 35.0539 79.6563 34.7929C79.4469 34.5318 79.1384 34.401 78.7299 34.401Z" fill="white"/>
<path d="M82.7554 33.6616L82.6851 34.0592C82.956 33.7395 83.2993 33.5793 83.7136 33.5793C84.0439 33.5793 84.3372 33.7009 84.5943 33.9448L84.0634 34.5927C83.991 34.3989 83.8331 34.3009 83.5876 34.3009C83.3493 34.3009 83.1074 34.4168 82.864 34.6477C82.6207 34.8787 82.4816 35.1376 82.4468 35.4229L82.0188 37.8601H81.1924L81.929 33.6616H82.7554Z" fill="white"/>
<path d="M89.6201 37.86H87.3364L88.4547 31.4847H90.1901C90.692 31.4847 91.0788 31.5555 91.3489 31.6971C91.6191 31.838 91.8002 32.0332 91.8914 32.2807C91.9827 32.5281 91.9993 32.8156 91.9421 33.141C91.8197 33.8382 91.5235 34.2866 91.052 34.4875C91.4206 34.5755 91.7009 34.7507 91.8929 35.0117C92.0848 35.2735 92.1384 35.6432 92.0551 36.1209C91.9921 36.4799 91.8545 36.7924 91.6408 37.0591C91.4279 37.3251 91.1476 37.5254 90.8028 37.6598C90.4559 37.7935 90.0619 37.86 89.6201 37.86ZM89.7266 35.026H88.7415L88.3866 37.0477H89.4173C89.8714 37.0477 90.2038 37.0083 90.4146 36.9311C90.6247 36.8539 90.7876 36.7445 90.9035 36.605C91.0179 36.4656 91.0976 36.276 91.1382 36.0386C91.1729 35.8448 91.1454 35.6661 91.0571 35.5051C90.9687 35.3442 90.8282 35.2234 90.6326 35.1447C90.4371 35.0653 90.135 35.026 89.7266 35.026ZM90.1372 32.2971H89.2203L88.8835 34.2144H89.623C90.4139 34.2144 90.8687 33.8811 90.9882 33.2146C91.0962 32.6032 90.8122 32.2971 90.1372 32.2971Z" fill="white"/>
<path d="M96.4777 35.8606H93.5125C93.4473 36.3354 93.5118 36.6715 93.7066 36.8675C93.9007 37.0634 94.1911 37.1614 94.5779 37.1614C94.9777 37.1614 95.2978 36.9755 95.539 36.605L96.1489 37.0069C95.8939 37.3387 95.639 37.5747 95.3833 37.7142C95.1269 37.8536 94.8198 37.9244 94.4627 37.9244C93.942 37.9244 93.5567 37.8279 93.3053 37.6369C93.054 37.446 92.8758 37.1871 92.7694 36.8632C92.6636 36.5392 92.6383 36.201 92.6977 35.8477C92.7983 35.1362 93.0591 34.5877 93.4813 34.2022C93.9029 33.8175 94.4099 33.6251 95.0031 33.6251C96.293 33.6251 96.7833 34.3703 96.4777 35.8606ZM93.6233 35.232H95.807C95.9142 34.6177 95.6064 34.3102 94.8843 34.3102C94.5504 34.3102 94.2694 34.3967 94.039 34.5698C93.8087 34.7436 93.6697 34.9638 93.6233 35.232Z" fill="white"/>
<path d="M97.1352 33.6616H97.8754L97.9957 32.9773L98.8981 32.4659L98.6881 33.6616H99.8057L99.6738 34.4104H98.5563L98.2035 36.4227C98.1203 36.894 98.2419 37.1464 98.5657 37.18C98.7982 37.2015 99.0198 37.1085 99.232 36.9018L99.3921 37.5683C99.0836 37.8115 98.7641 37.9338 98.4346 37.9338C98.0558 37.9338 97.7596 37.8229 97.5481 37.5998C97.4807 37.5333 97.4286 37.4582 97.3924 37.3745C97.3554 37.2909 97.3315 37.1814 97.3199 37.0463C97.3083 36.9111 97.3366 36.653 97.4032 36.2725L97.7299 34.4104H97.0034L97.1352 33.6616Z" fill="white"/>
<path d="M100.232 33.6616H100.973L101.092 32.9773L101.994 32.4659L101.785 33.6616H102.901L102.77 34.4104H101.653L101.301 36.4227C101.218 36.894 101.338 37.1464 101.663 37.18C101.895 37.2015 102.117 37.1085 102.328 36.9018L102.489 37.5683C102.179 37.8115 101.861 37.9338 101.53 37.9338C101.153 37.9338 100.857 37.8229 100.644 37.5998C100.577 37.5333 100.526 37.4582 100.489 37.3745C100.451 37.2909 100.428 37.1814 100.416 37.0463C100.405 36.9111 100.433 36.653 100.5 36.2725L100.826 34.4104H100.099L100.232 33.6616Z" fill="white"/>
<path d="M107.125 35.8606H104.16C104.095 36.3354 104.159 36.6715 104.353 36.8675C104.548 37.0634 104.839 37.1614 105.226 37.1614C105.626 37.1614 105.945 36.9755 106.186 36.605L106.796 37.0069C106.541 37.3387 106.286 37.5747 106.03 37.7142C105.774 37.8536 105.467 37.9244 105.11 37.9244C104.589 37.9244 104.203 37.8279 103.952 37.6369C103.701 37.4453 103.523 37.1871 103.416 36.8632C103.309 36.5392 103.285 36.201 103.344 35.8477C103.445 35.1362 103.706 34.5877 104.127 34.2022C104.55 33.8175 105.057 33.6251 105.651 33.6251C106.941 33.6251 107.432 34.3703 107.125 35.8606ZM104.27 35.232H106.455C106.562 34.6177 106.255 34.3102 105.531 34.3102C105.198 34.3102 104.916 34.3967 104.687 34.5698C104.456 34.7436 104.317 34.9638 104.27 35.232Z" fill="white"/>
<path d="M109.141 33.6616L109.071 34.0592C109.342 33.7395 109.686 33.5793 110.1 33.5793C110.429 33.5793 110.723 33.7009 110.981 33.9448L110.45 34.5927C110.377 34.3989 110.219 34.3009 109.974 34.3009C109.735 34.3009 109.493 34.4168 109.25 34.6477C109.006 34.8787 108.867 35.1376 108.832 35.4229L108.405 37.8601H107.578L108.315 33.6616H109.141Z" fill="white"/>
<path d="M114.998 32.265C115.163 32.1191 115.342 31.9911 115.533 31.8817C115.725 31.773 115.924 31.6814 116.129 31.6085C116.334 31.5348 116.542 31.4805 116.75 31.444C116.96 31.4075 117.165 31.3896 117.365 31.3896C117.566 31.3896 117.764 31.4075 117.96 31.444C118.156 31.4812 118.344 31.5355 118.525 31.6085C118.703 31.6814 118.871 31.7722 119.023 31.8817C119.177 31.9911 119.309 32.1191 119.42 32.265C119.646 32.5574 119.802 32.9021 119.891 33.2983C119.979 33.6959 119.978 34.1493 119.889 34.6606C119.799 35.1719 119.64 35.6275 119.413 36.0251C119.185 36.4241 118.906 36.7709 118.578 37.0656C118.416 37.2086 118.239 37.3337 118.048 37.4417C117.857 37.5497 117.658 37.6398 117.453 37.7135C117.248 37.7864 117.041 37.8415 116.831 37.8772C116.622 37.9144 116.417 37.9323 116.216 37.9323C116.017 37.9323 115.819 37.9144 115.623 37.8772C115.426 37.8408 115.238 37.7857 115.058 37.7135C114.879 37.6398 114.711 37.5497 114.559 37.4417C114.404 37.3337 114.271 37.2086 114.156 37.0656C113.93 36.7709 113.774 36.4241 113.687 36.0251C113.598 35.6267 113.599 35.1719 113.689 34.6606C113.779 34.1493 113.937 33.6952 114.164 33.2983C114.392 32.9021 114.67 32.5574 114.998 32.265ZM118.982 34.6613C119.041 34.3266 119.051 34.0141 119.011 33.7231C118.971 33.432 118.878 33.1796 118.733 32.9629C118.587 32.7469 118.387 32.5767 118.136 32.4516C117.883 32.3265 117.575 32.2642 117.212 32.2642C116.863 32.2642 116.542 32.3229 116.249 32.4402C115.956 32.5574 115.698 32.7212 115.476 32.9314C115.252 33.141 115.066 33.3927 114.916 33.6866C114.765 33.9798 114.659 34.3052 114.597 34.6606C114.539 34.9924 114.53 35.3028 114.572 35.5938C114.614 35.8849 114.708 36.1388 114.855 36.3562C115.001 36.5736 115.202 36.7445 115.453 36.8696C115.704 36.9948 116.012 37.057 116.373 37.057C116.718 37.057 117.037 36.9976 117.329 36.8789C117.621 36.7602 117.879 36.5957 118.104 36.3841C118.33 36.1724 118.517 35.9207 118.667 35.6267C118.814 35.3328 118.921 35.011 118.982 34.6613Z" fill="white"/>
<path d="M122.626 37.8601L122.686 37.5133C122.483 37.672 122.263 37.7829 122.026 37.8472C121.79 37.9109 121.559 37.9395 121.337 37.9338C121.074 37.9338 120.842 37.8673 120.643 37.735C120.443 37.6027 120.308 37.4232 120.233 37.1965C120.159 36.9705 120.169 36.5936 120.261 36.0673L120.683 33.6624H121.51L121.09 36.0587C121.019 36.4628 121.029 36.7617 121.12 36.9555C121.212 37.1486 121.418 37.2301 121.739 37.1993C122.14 37.1564 122.513 36.9347 122.859 36.5328L123.362 33.6624H124.189L123.452 37.8608L122.626 37.8601Z" fill="white"/>
<path d="M124.765 33.6616H125.505L125.625 32.9773L126.527 32.4659L126.317 33.6616H127.435L127.302 34.4104H126.185L125.833 36.4227C125.751 36.894 125.871 37.1464 126.195 37.18C126.427 37.2015 126.65 37.1085 126.861 36.9018L127.022 37.5683C126.713 37.8115 126.393 37.9338 126.063 37.9338C125.686 37.9338 125.389 37.8229 125.177 37.5998C125.11 37.5333 125.059 37.4582 125.022 37.3745C124.984 37.2909 124.961 37.1814 124.95 37.0463C124.938 36.9111 124.966 36.653 125.032 36.2725L125.359 34.4104H124.633L124.765 33.6616Z" fill="white"/>
<path d="M130.891 36.683L131.315 37.2486C130.77 37.7299 130.173 37.9573 129.524 37.9337C128.93 37.9337 128.469 37.7335 128.141 37.333C127.814 36.9326 127.705 36.417 127.816 35.7841C127.927 35.1569 128.212 34.6334 128.673 34.2122C129.135 33.7903 129.674 33.5794 130.292 33.5794C130.528 33.5765 130.778 33.6194 131.039 33.7081C131.3 33.796 131.536 33.9677 131.746 34.2237L131.1 34.7665C130.793 34.5019 130.48 34.3696 130.162 34.3696C129.789 34.3696 129.462 34.5069 129.179 34.7822C128.896 35.0582 128.723 35.3829 128.656 35.7562C128.586 36.1588 128.661 36.4928 128.88 36.7602C129.099 37.0284 129.361 37.1607 129.664 37.1578C130.075 37.1578 130.485 36.9991 130.891 36.683Z" fill="white"/>
<path d="M134.447 33.653C135.083 33.653 135.567 33.8589 135.9 34.2708C136.234 34.6834 136.346 35.2012 136.237 35.8248C136.131 36.4312 135.836 36.9332 135.355 37.333C134.873 37.7334 134.308 37.9337 133.66 37.9337C133.033 37.9337 132.553 37.7306 132.219 37.3237C131.883 36.9182 131.77 36.4105 131.876 35.8019C131.984 35.1876 132.28 34.6756 132.762 34.2665C133.244 33.8575 133.806 33.653 134.447 33.653ZM134.271 34.401C133.874 34.401 133.533 34.5318 133.248 34.7936C132.963 35.0546 132.784 35.3878 132.714 35.7926C132.644 36.1945 132.709 36.522 132.91 36.7759C133.111 37.0298 133.415 37.157 133.824 37.157C134.23 37.157 134.577 37.0276 134.866 36.7709C135.155 36.5149 135.334 36.1852 135.405 35.7833C135.474 35.3843 135.406 35.0539 135.197 34.7929C134.988 34.5318 134.679 34.401 134.271 34.401Z" fill="white"/>
<path d="M140.68 35.1619L140.207 37.8601H139.381L139.787 35.5409C139.864 35.1369 139.856 34.8408 139.761 34.6563C139.666 34.4718 139.459 34.3782 139.138 34.3782C138.748 34.3782 138.386 34.6392 138.051 35.1619L137.579 37.8601H136.752L137.489 33.6652H138.316L138.225 34.1765C138.553 33.8089 138.998 33.6101 139.564 33.5794C140.092 33.5794 140.459 33.7846 140.662 34.1944C141.03 33.8089 141.537 33.6015 142.18 33.5701C142.587 33.5701 142.895 33.7195 143.105 34.0177C143.315 34.3159 143.366 34.7708 143.259 35.3822L142.824 37.8601H141.996L142.431 35.3901C142.484 35.0861 142.455 34.8408 142.346 34.6563C142.236 34.4711 142.047 34.3782 141.78 34.3782C141.371 34.3782 141.006 34.6392 140.68 35.1619Z" fill="white"/>
<path d="M147.904 35.8606H144.939C144.874 36.3354 144.939 36.6715 145.133 36.8675C145.327 37.0634 145.618 37.1614 146.006 37.1614C146.405 37.1614 146.725 36.9755 146.966 36.605L147.576 37.0069C147.321 37.3387 147.066 37.5747 146.81 37.7142C146.554 37.8536 146.247 37.9244 145.889 37.9244C145.369 37.9244 144.983 37.8279 144.732 37.6369C144.481 37.4453 144.302 37.1871 144.195 36.8632C144.09 36.5392 144.064 36.201 144.124 35.8477C144.224 35.1362 144.486 34.5877 144.907 34.2022C145.329 33.8175 145.836 33.6251 146.43 33.6251C147.72 33.6251 148.211 34.3703 147.904 35.8606ZM145.049 35.232H147.234C147.342 34.6177 147.034 34.3102 146.31 34.3102C145.978 34.3102 145.695 34.3967 145.467 34.5698C145.235 34.7436 145.097 34.9638 145.049 35.232Z" fill="white"/>
<path d="M148.104 37.1528L148.579 36.5414C148.679 36.6815 148.776 36.7931 148.871 36.8753C148.965 36.9568 149.063 37.0291 149.166 37.0898C149.269 37.1506 149.369 37.1935 149.466 37.2179C149.564 37.2415 149.656 37.2543 149.744 37.2543C149.847 37.2543 149.951 37.2415 150.057 37.2179C150.163 37.1935 150.261 37.1606 150.353 37.1192C150.445 37.0777 150.524 37.0162 150.591 36.934C150.66 36.8524 150.701 36.7673 150.717 36.6794C150.737 36.575 150.728 36.4834 150.685 36.4026C150.644 36.3225 150.578 36.2546 150.488 36.1995C150.397 36.1452 150.282 36.1044 150.142 36.0794C150.004 36.0529 149.853 36.0064 149.688 35.9399C149.515 35.8727 149.374 35.7883 149.265 35.6868C149.156 35.5845 149.07 35.4815 149.008 35.3764C148.947 35.272 148.909 35.1612 148.897 35.0475C148.883 34.9338 148.887 34.8115 148.911 34.6799C148.938 34.5283 149.002 34.3702 149.105 34.2079C149.209 34.0449 149.326 33.914 149.456 33.8153C149.587 33.7159 149.739 33.6408 149.911 33.5872C150.084 33.5343 150.268 33.5078 150.461 33.5078C150.974 33.5171 151.342 33.7102 151.563 34.0878L151.064 34.6213C150.923 34.3416 150.679 34.2 150.335 34.1965C149.966 34.1965 149.742 34.3509 149.664 34.6584C149.616 34.9802 149.932 35.2177 150.61 35.37C151.344 35.5924 151.644 36.0286 151.511 36.6801C151.457 36.9719 151.345 37.2114 151.174 37.3988C151.004 37.5854 150.798 37.727 150.559 37.8228C150.32 37.9194 150.068 37.9666 149.805 37.9666C149.569 37.9666 149.364 37.9523 149.19 37.9258C149.016 37.8979 148.868 37.8536 148.745 37.7928C148.623 37.732 148.509 37.6491 148.403 37.5432C148.298 37.4374 148.198 37.3087 148.104 37.1528Z" fill="white"/>
</svg>
