<svg width="129" height="129" viewBox="0 0 129 129" fill="none" xmlns="http://www.w3.org/2000/svg">
<path d="M86.7386 67.0522H87.4311V71.8205H89.7262V72.3943H86.7386V67.0522Z" fill="white"/>
<path d="M91.1508 72.3943H90.4583V68.556H91.1508V72.3943ZM90.7946 67.8635C90.5374 67.8635 90.3594 67.6458 90.3594 67.4084C90.3594 67.171 90.5374 66.9731 90.8144 66.9731C91.0914 66.9731 91.2497 67.171 91.2497 67.4084C91.2497 67.6458 91.0716 67.8635 90.7946 67.8635Z" fill="white"/>
<path d="M92.3775 72.3943V69.0902H91.8433V68.556H92.3775V68.3779C92.3775 67.8437 92.4962 67.3491 92.8325 67.0325C93.0897 66.7753 93.4459 66.6764 93.7624 66.6764C94.0196 66.6764 94.2175 66.7357 94.356 66.7951L94.2768 67.3293C94.1581 67.2897 94.0196 67.2502 93.8218 67.2502C93.248 67.2502 93.0699 67.7646 93.0699 68.3581V68.5758H93.9999V69.11H93.0699V72.4141H92.3775V72.3943Z" fill="white"/>
<path d="M96.9677 70.0992C96.9874 69.6639 96.7896 68.9715 96.018 68.9715C95.3057 68.9715 95.0089 69.6244 94.9496 70.0992H96.9677ZM94.9298 70.5938C94.9496 71.5238 95.5431 71.9195 96.2356 71.9195C96.7302 71.9195 97.0468 71.8403 97.304 71.7216L97.4425 72.2162C97.1853 72.3152 96.7698 72.4537 96.1565 72.4537C94.9891 72.4537 94.2769 71.6623 94.2769 70.5147C94.2769 69.3474 94.9693 68.4373 96.0773 68.4373C97.3238 68.4373 97.6601 69.5452 97.6601 70.2377C97.6601 70.3762 97.6404 70.4949 97.6404 70.5741L94.9298 70.5938Z" fill="white"/>
<path d="M98.4318 71.5633C98.7483 71.7612 99.1836 71.9195 99.6584 71.9195C100.371 71.9195 100.766 71.5633 100.766 71.0093C100.766 70.5147 100.489 70.2179 99.7574 69.9607C98.8868 69.6441 98.3526 69.1891 98.3526 68.4372C98.3526 67.6063 99.0451 66.9929 100.074 66.9929C100.608 66.9929 101.024 67.1116 101.241 67.2501L101.043 67.8041C100.885 67.7052 100.529 67.5469 100.034 67.5469C99.3023 67.5469 99.0253 67.9822 99.0253 68.3383C99.0253 68.8329 99.3419 69.0902 100.094 69.3672C101.004 69.7233 101.439 70.1388 101.439 70.9302C101.439 71.7414 100.826 72.4734 99.5793 72.4734C99.0649 72.4734 98.4911 72.3152 98.2141 72.1173L98.4318 71.5633Z" fill="white"/>
<path d="M105.139 72.2558C104.941 72.3349 104.545 72.4734 104.031 72.4734C102.883 72.4734 102.132 71.682 102.132 70.5147C102.132 69.3276 102.943 68.4768 104.189 68.4768C104.605 68.4768 104.961 68.5757 105.159 68.6747L105 69.2089C104.842 69.1297 104.565 69.0308 104.189 69.0308C103.299 69.0308 102.844 69.6837 102.844 70.4949C102.844 71.3852 103.418 71.9194 104.169 71.9194C104.565 71.9194 104.822 71.8205 105.02 71.7414L105.139 72.2558Z" fill="white"/>
<path d="M106.643 72.3943H105.95V68.556H106.643V72.3943ZM106.286 67.8635C106.029 67.8635 105.851 67.6458 105.851 67.4084C105.851 67.171 106.029 66.9731 106.306 66.9731C106.583 66.9731 106.742 67.171 106.742 67.4084C106.742 67.6458 106.563 67.8635 106.286 67.8635Z" fill="white"/>
<path d="M110.224 70.0992C110.224 69.6639 110.046 68.9715 109.254 68.9715C108.542 68.9715 108.245 69.6244 108.186 70.0992H110.224ZM108.186 70.5938C108.206 71.5238 108.799 71.9195 109.492 71.9195C109.986 71.9195 110.303 71.8403 110.56 71.7216L110.679 72.2162C110.441 72.3152 110.006 72.4537 109.393 72.4537C108.225 72.4537 107.513 71.6623 107.513 70.5147C107.513 69.3474 108.206 68.4373 109.314 68.4373C110.56 68.4373 110.896 69.5452 110.896 70.2377C110.896 70.3762 110.896 70.4949 110.877 70.5741L108.186 70.5938Z" fill="white"/>
<path d="M111.767 69.6046C111.767 69.2089 111.767 68.8923 111.728 68.5757H112.341L112.38 69.1891H112.4C112.598 68.8329 113.033 68.4768 113.666 68.4768C114.201 68.4768 115.032 68.7934 115.032 70.0992V72.3943H114.339V70.1783C114.339 69.565 114.102 69.0308 113.449 69.0308C112.994 69.0308 112.638 69.3474 112.519 69.7431C112.479 69.8222 112.46 69.9607 112.46 70.0596V72.3745H111.767V69.6046Z" fill="white"/>
<path d="M118.89 72.2558C118.712 72.3349 118.296 72.4734 117.782 72.4734C116.614 72.4734 115.882 71.682 115.882 70.5147C115.882 69.3276 116.694 68.4768 117.94 68.4768C118.356 68.4768 118.712 68.5757 118.91 68.6747L118.751 69.2089C118.593 69.1297 118.316 69.0308 117.94 69.0308C117.07 69.0308 116.595 69.6837 116.595 70.4949C116.595 71.3852 117.168 71.9194 117.92 71.9194C118.316 71.9194 118.573 71.8205 118.771 71.7414L118.89 72.2558Z" fill="white"/>
<path d="M122.075 70.0992C122.075 69.6639 121.897 68.9715 121.126 68.9715C120.413 68.9715 120.116 69.6244 120.057 70.0992H122.075ZM120.037 70.5938C120.057 71.5238 120.651 71.9195 121.343 71.9195C121.838 71.9195 122.154 71.8403 122.412 71.7216L122.53 72.2162C122.273 72.3152 121.858 72.4537 121.244 72.4537C120.077 72.4537 119.365 71.6623 119.365 70.5147C119.365 69.3474 120.057 68.4373 121.165 68.4373C122.412 68.4373 122.728 69.5452 122.728 70.2377C122.728 70.3762 122.728 70.4949 122.708 70.5741L120.037 70.5938Z" fill="white"/>
<path d="M52.253 55.7945L50.0964 49.5028C49.6413 48.0782 49.3248 46.7724 48.9884 45.5259H48.8895C48.5927 46.7724 48.2366 48.1376 47.8211 49.4632L45.6843 55.7945H52.253ZM45.0907 57.9906L42.8154 64.8561H39.907L47.3265 43.0132H50.7295L58.1886 64.8561H55.1812L52.8268 57.9906H45.0907Z" fill="white"/>
<path d="M61.2156 54.093C61.2156 52.2331 61.1761 50.6503 61.0771 49.206H63.5701L63.6888 52.2727H63.7877C64.5 50.1557 66.2411 48.8301 68.1801 48.8301C68.4571 48.8301 68.6945 48.8696 68.9319 48.929V51.5802C68.5955 51.5407 68.3383 51.5209 67.9426 51.5209C65.9443 51.5209 64.5198 53.0443 64.1043 55.1614C64.0449 55.5769 64.0252 56.0319 64.0252 56.5068V64.8561H61.1761L61.2156 54.093Z" fill="white"/>
<path d="M73.5815 49.2059L77.0044 58.4654C77.3803 59.4943 77.776 60.721 78.0332 61.6707H78.0926C78.4091 60.7408 78.7257 59.5338 79.1016 58.4061L82.2079 49.2257H85.235L80.9416 60.345C78.9037 65.7266 77.5188 68.4966 75.56 70.1981C74.1355 71.3852 72.7703 71.8799 72.058 72.0184L71.3458 69.6243C72.058 69.4265 72.9879 68.9714 73.8387 68.2196C74.6103 67.6062 75.56 66.4983 76.2327 65.0539C76.3712 64.7572 76.4504 64.5791 76.4504 64.3812C76.4504 64.223 76.391 63.9855 76.2327 63.669L70.4752 49.2059H73.5815Z" fill="white"/>
<path d="M87.2927 61.9674C88.183 62.5016 89.6669 63.0754 91.0914 63.0754C93.1293 63.0754 94.0988 62.0663 94.0988 60.7407C94.0988 59.3755 93.3074 58.6237 91.2299 57.8521C88.3809 56.8034 87.0553 55.28 87.0553 53.4202C87.0553 50.8876 89.1327 48.8102 92.4764 48.8102C94.0592 48.8102 95.4442 49.2257 96.295 49.7797L95.6025 51.8175C94.9891 51.4614 93.8614 50.9074 92.3973 50.9074C90.7155 50.9074 89.8054 51.8769 89.8054 53.0442C89.8054 54.3896 90.7155 54.9634 92.7732 55.7548C95.4442 56.7639 96.8885 58.1093 96.8885 60.4835C96.8885 63.2534 94.7122 65.2122 91.0717 65.2122C89.3306 65.2122 87.7675 64.7571 86.6595 64.1042L87.2927 61.9674Z" fill="white"/>
<path d="M103.932 45.427V49.206H108.008V51.3626H103.932V59.8307C103.932 61.7696 104.486 62.8578 106.069 62.8578C106.86 62.8578 107.315 62.7985 107.731 62.66L107.869 64.8364C107.315 65.0342 106.445 65.2321 105.337 65.2321C103.991 65.2321 102.943 64.777 102.25 64.0252C101.459 63.1546 101.142 61.7696 101.142 59.9296V51.3824H98.7285V49.2258H101.142V46.3371L103.932 45.427Z" fill="white"/>
<path d="M119.483 56.8629C116.377 56.8035 112.836 57.3575 112.836 60.3847C112.836 62.2643 114.082 63.115 115.507 63.115C117.564 63.115 118.91 61.829 119.365 60.5034C119.464 60.1868 119.483 59.89 119.483 59.5933V56.8629ZM122.273 61.1167C122.273 62.4819 122.352 63.7877 122.53 64.8759H119.958L119.701 62.8974H119.602C118.751 64.1043 117.05 65.2321 114.814 65.2321C111.629 65.2321 110.026 62.9963 110.026 60.7408C110.026 56.942 113.389 54.8646 119.424 54.9041V54.5876C119.424 53.2818 119.088 50.9273 115.863 50.9471C114.379 50.9471 112.855 51.3626 111.747 52.1144L111.114 50.215C112.4 49.4038 114.319 48.8499 116.298 48.8499C121.126 48.8499 122.273 52.1144 122.273 55.2603V61.1167Z" fill="white"/>
<path d="M25.4043 61.3343C23.4654 60.7605 18.8554 57.2981 17.3715 56.6452C14.9775 55.6164 13.1968 56.5067 11.614 57.3971C9.93224 58.3467 7.4393 61.3541 7.26123 61.5915L7.34037 61.552C7.36016 61.5322 9.87289 59.6526 12.722 61.0178C13.4342 61.3541 14.6609 62.1059 15.4919 62.6204C16.3229 63.1348 18.0442 64.1636 20.0425 65.2122C22.575 66.5576 25.246 66.0432 27.1059 64.8957C27.7588 64.5197 28.7283 63.8075 29.6779 63.1348H29.6582C21.566 66.3796 16.1052 59.9098 16.1052 59.9098C16.1052 59.9098 23.3269 67.8239 33.2789 60.5627L35.0793 59.2371C35.1189 58.8612 35.1585 58.4655 35.1585 58.0895C33.5163 59.3558 30.0934 61.7102 27.7588 61.6707C27.739 61.6509 26.7102 61.7102 25.4043 61.3343Z" fill="white"/>
<path d="M15.4128 53.8752C17.3518 54.449 21.9617 57.9312 23.4456 58.5643C25.8396 59.5932 27.6401 58.7028 29.2031 57.8125C30.8849 56.8628 33.3383 53.8752 33.5559 53.618L33.4965 53.6576C33.4768 53.6576 30.964 55.557 28.115 54.1918C27.4027 53.8357 26.176 53.1036 25.3648 52.5892C24.5338 52.0748 22.8125 51.0459 20.8142 49.9973C18.2817 48.6519 15.6107 49.1663 13.7508 50.2941C13.1177 50.6898 12.1284 51.3823 11.1788 52.0748H11.1985C19.2907 48.83 24.7515 55.2998 24.7515 55.2998C24.7515 55.2998 17.5298 47.3857 7.59762 54.6469L5.26296 56.388C5.24317 56.7639 5.22339 57.1398 5.22339 57.5157C6.78643 56.1901 10.2686 53.5191 13.0979 53.5784C13.0979 53.5784 14.1268 53.4993 15.4128 53.8752Z" fill="white"/>
<path d="M33.9713 65.9245C33.9911 65.8849 34.0307 65.8454 34.0505 65.8058C34.1494 65.6277 34.2483 65.4694 34.3473 65.2914C34.4066 65.1924 34.4462 65.0935 34.5056 64.9946C34.5649 64.8759 34.6243 64.7572 34.7034 64.6187C34.7825 64.4406 34.8617 64.2823 34.9408 64.1043C34.9606 64.0449 35.0002 63.9855 35.02 63.946C35.752 62.2642 36.2071 60.4242 36.3258 58.4852C36.3258 58.4655 36.3258 58.4259 36.3258 58.4061C36.3258 58.2676 36.3258 58.1093 36.3456 57.9708C36.3456 57.8323 36.3456 57.7136 36.3456 57.5751C36.3456 57.5553 36.3456 57.5553 36.3456 57.5355C36.3456 57.4366 36.3456 57.3377 36.3456 57.2388C36.3456 57.0805 36.3456 56.9222 36.3258 56.7639C36.3258 56.6254 36.306 56.5067 36.306 56.388C36.306 56.2495 36.2862 56.111 36.2664 55.9725C36.2467 55.8142 36.2269 55.6559 36.2071 55.4779C36.1873 55.3789 36.1873 55.28 36.1675 55.2009C36.1477 55.003 36.1082 54.8052 36.0686 54.6073C36.0488 54.548 36.0488 54.4886 36.029 54.4293C35.9894 54.2116 35.9301 53.994 35.8905 53.7763C35.8905 53.7368 35.8707 53.717 35.8707 53.6774C35.8114 53.44 35.752 53.2026 35.6729 52.9849C35.6729 52.9651 35.6729 52.9651 35.6531 52.9454C35.574 52.7079 35.5146 52.4705 35.4355 52.2331C35.4355 52.2133 35.4355 52.2133 35.4157 52.1935C35.3365 51.9561 35.2574 51.7385 35.1585 51.5208C35.1585 51.501 35.1387 51.4812 35.1387 51.4615C35.0595 51.2438 34.9606 51.046 34.8617 50.8283C34.8419 50.7888 34.8221 50.769 34.8221 50.7294C34.743 50.5513 34.644 50.3535 34.5451 50.1754C34.5253 50.1161 34.4858 50.0567 34.466 49.9974C34.3868 49.8391 34.3077 49.7006 34.2088 49.5423C34.1494 49.4631 34.1098 49.3642 34.0703 49.2851C33.9911 49.1664 33.9318 49.0477 33.8526 48.9289C33.7735 48.8102 33.7141 48.6915 33.635 48.5728C33.5756 48.4937 33.5361 48.4145 33.4767 48.3354C33.3778 48.1969 33.2789 48.0386 33.1602 47.9001C33.1206 47.8605 33.1008 47.821 33.0612 47.7616C32.9227 47.5835 32.7842 47.4055 32.6457 47.2472C32.6457 47.2274 32.6259 47.2274 32.6259 47.2076C31.4784 45.8227 30.1132 44.6355 28.57 43.7056C28.5502 43.6858 28.5304 43.6858 28.5106 43.6661C28.3128 43.5474 28.1347 43.4484 27.9368 43.3297C27.8577 43.2901 27.7588 43.2506 27.6796 43.1912C27.5411 43.1121 27.4224 43.0527 27.2839 42.9934C27.1059 42.9142 26.9278 42.8351 26.7695 42.7559C26.7102 42.7362 26.6706 42.7164 26.6112 42.6966C24.7514 41.8854 22.7333 41.4303 20.5965 41.371C20.4778 41.371 20.3591 41.371 20.2602 41.371C20.2404 41.371 20.2404 41.371 20.2206 41.371C20.1217 41.371 20.0227 41.371 19.9238 41.371C19.7655 41.371 19.6072 41.371 19.449 41.3908C19.3302 41.3908 19.2115 41.4105 19.0928 41.4105C18.9543 41.4105 18.796 41.4303 18.6575 41.4501C18.519 41.4699 18.3806 41.4897 18.2421 41.5095C18.1233 41.5293 18.0046 41.5293 17.8859 41.549C17.7079 41.5688 17.5496 41.6084 17.3715 41.6282C17.2924 41.648 17.1934 41.648 17.1143 41.6678C16.9164 41.7073 16.7384 41.7469 16.5405 41.7865C16.4812 41.8062 16.4218 41.8062 16.3625 41.826C16.1646 41.8854 15.9667 41.925 15.7689 41.9843C15.7293 42.0041 15.67 42.0041 15.6304 42.0239C15.4325 42.0832 15.2347 42.1426 15.0368 42.2217C14.9973 42.2415 14.9379 42.2613 14.8983 42.2613C14.7005 42.3207 14.5224 42.3998 14.3246 42.4789C14.2652 42.4987 14.2059 42.5185 14.1465 42.5383C13.9684 42.6174 13.8102 42.6768 13.6321 42.7559C13.5529 42.7955 13.4738 42.8153 13.4144 42.8549C13.2759 42.9142 13.1375 42.9934 12.9792 43.0725C12.8802 43.1319 12.7813 43.1714 12.6824 43.2308C12.5637 43.2901 12.4648 43.3495 12.346 43.4089C12.2075 43.488 12.0888 43.5474 11.9503 43.6265C11.8712 43.6661 11.8118 43.7056 11.7327 43.765C11.5744 43.8639 11.3963 43.9628 11.2381 44.0816C11.1985 44.1013 11.1787 44.1211 11.1391 44.1409C9.02211 45.5852 7.26122 47.5242 6.03454 49.7995C5.91583 50.0171 5.8169 50.2348 5.69819 50.4524C5.65862 50.5316 5.61905 50.6305 5.57948 50.7096C5.52012 50.8481 5.46076 50.9866 5.40141 51.1251C5.32227 51.323 5.24313 51.5208 5.16399 51.7385C5.1442 51.7582 5.1442 51.7978 5.12442 51.8176C4.57043 53.3015 4.21429 54.9041 4.11537 56.5661C4.11537 56.5858 4.11537 56.6056 4.11537 56.6254C4.11537 56.7837 4.11537 56.9222 4.09558 57.0805C4.09558 57.1992 4.09558 57.3377 4.09558 57.4564C4.09558 57.4762 4.09558 57.4762 4.09558 57.496C4.09558 57.5949 4.09558 57.6938 4.09558 57.773C4.09558 57.9312 4.09558 58.1093 4.11537 58.2676C4.11537 58.3863 4.13515 58.505 4.13515 58.6237C4.13515 58.7622 4.15494 58.9205 4.17472 59.059C4.19451 59.1975 4.21429 59.3558 4.23408 59.4943C4.25386 59.613 4.25386 59.7317 4.27365 59.8306C4.29343 60.0087 4.333 60.1868 4.35279 60.3451C4.37257 60.4242 4.37257 60.5033 4.39236 60.5825C4.43193 60.7803 4.4715 60.9782 4.51107 61.1562C4.53086 61.2156 4.53086 61.275 4.55064 61.3343C4.61 61.5322 4.64957 61.7498 4.70892 61.9477C4.72871 61.9872 4.72871 62.0268 4.7485 62.0862C4.80785 62.3038 4.88699 62.5016 4.94635 62.6995C4.96613 62.7391 4.96613 62.7786 4.98592 62.8182C5.06506 63.0161 5.12442 63.2139 5.20356 63.4118C5.22334 63.4711 5.24313 63.5107 5.26291 63.57C5.34205 63.7481 5.42119 63.9262 5.50034 64.1043C5.53991 64.1834 5.55969 64.2428 5.59926 64.3021C5.6784 64.4604 5.73776 64.5989 5.8169 64.7374C5.85647 64.8363 5.91583 64.9352 5.9554 65.0144C6.01475 65.1331 6.07411 65.2518 6.15325 65.3507C6.23239 65.4694 6.29175 65.6079 6.37089 65.7267C6.41046 65.8058 6.46981 65.8849 6.50938 65.9641C6.60831 66.1224 6.70724 66.2806 6.80616 66.4389C6.82595 66.4785 6.86552 66.5181 6.8853 66.5576C7.0238 66.7555 7.14251 66.9336 7.28101 67.1116C8.66598 68.9714 10.4664 70.5147 12.5043 71.6424C12.5241 71.6424 12.5439 71.6622 12.5637 71.6622C12.7615 71.7612 12.9594 71.8799 13.1572 71.959C13.2562 71.9986 13.3551 72.0579 13.454 72.0975C13.5727 72.1569 13.6914 72.2162 13.8299 72.2558C14.0278 72.3547 14.2454 72.4339 14.4631 72.513C14.4829 72.513 14.5026 72.5328 14.5422 72.5328C16.0261 73.0868 17.6287 73.4429 19.2709 73.5418C19.2907 73.5418 19.3105 73.5418 19.3302 73.5418C19.4885 73.5418 19.6468 73.5616 19.8051 73.5616C19.9238 73.5616 20.0425 73.5616 20.181 73.5616C20.2008 73.5616 20.2008 73.5616 20.2206 73.5616C20.3195 73.5616 20.4184 73.5616 20.5174 73.5616C20.6756 73.5616 20.8339 73.5616 20.9922 73.5418C21.1109 73.5418 21.2494 73.522 21.3681 73.522C21.5066 73.522 21.6451 73.5023 21.7836 73.4825C21.9419 73.4627 22.1002 73.4429 22.2585 73.4231C22.3574 73.4033 22.4563 73.4033 22.5552 73.3835C22.7531 73.3638 22.9312 73.3242 23.1092 73.2846C23.1686 73.2648 23.2477 73.2648 23.3071 73.2451C23.5247 73.2055 23.7424 73.1659 23.9402 73.1066C23.9798 73.1066 24.0194 73.0868 24.0589 73.0868C24.2963 73.0274 24.514 72.9681 24.7514 72.9087C24.7712 72.9087 24.791 72.8889 24.8108 72.8889C25.0482 72.8098 25.2856 72.7504 25.5032 72.6713C25.523 72.6713 25.523 72.6713 25.5428 72.6515C25.7802 72.5724 25.9979 72.4932 26.2155 72.3943C26.2353 72.3943 26.2551 72.3745 26.2749 72.3745C26.4925 72.2954 26.6904 72.1964 26.908 72.0975C26.9476 72.0777 26.9674 72.0777 27.0069 72.0579C27.2048 71.9788 27.3829 71.8799 27.5807 71.7809C27.6401 71.7612 27.6796 71.7216 27.739 71.7018C27.8973 71.6227 28.0556 71.5237 28.2138 71.4446C28.293 71.405 28.3721 71.3654 28.4513 71.3061C28.57 71.227 28.7085 71.1478 28.8272 71.0687C28.9261 71.0093 29.0448 70.9302 29.1437 70.8708C29.2427 70.8115 29.3218 70.7521 29.4207 70.6927C29.5592 70.5938 29.6977 70.5147 29.8164 70.4158C29.8758 70.3762 29.9352 70.3366 29.9945 70.2773C30.1528 70.1586 30.3111 70.0398 30.4694 69.9013C30.4891 69.8816 30.5287 69.8618 30.5485 69.8222C30.7266 69.6639 30.9046 69.5254 31.0827 69.3671C31.0827 69.3671 31.0827 69.3671 31.1025 69.3671C32.0522 68.4966 32.9029 67.5271 33.635 66.4587C33.635 66.4587 33.635 66.4587 33.635 66.4389C33.7141 66.34 33.8329 66.1421 33.9713 65.9245ZM20.181 72.4932C11.9306 72.4932 5.22334 65.786 5.22334 57.5158V57.496C5.22334 57.1201 5.24313 56.7441 5.26291 56.3682C5.85647 48.652 12.3065 42.5383 20.181 42.5383C28.4315 42.5383 35.1387 49.2455 35.1387 57.5158C35.1387 57.6938 35.1387 57.8719 35.1189 58.05C35.0991 58.4457 35.0793 58.8216 35.0398 59.1975C34.2088 66.6763 27.8577 72.4932 20.181 72.4932Z" fill="white"/>
<path d="M40.639 84.4039H39.907L41.1139 78.7651H41.8262L40.639 84.4039Z" fill="white"/>
<path d="M44.0619 84.404L44.6356 81.6736C44.7148 81.2581 44.6554 80.902 44.1014 80.902C43.4089 80.902 43.1715 81.5351 43.0528 82.0693L42.5582 84.404H41.925L42.578 81.2977C42.6373 81.0207 42.6769 80.7437 42.7165 80.4865H43.3892L43.2902 81.0009H43.3298C43.6662 80.5656 44.0025 80.4073 44.4971 80.4073C45.3479 80.4073 45.4468 80.9218 45.2688 81.6934L44.695 84.4238H44.0619V84.404Z" fill="white"/>
<path d="M47.9398 84.404L48.5136 81.6736C48.6125 81.2581 48.5333 80.902 47.9794 80.902C47.2869 80.902 47.0495 81.5351 46.9307 82.0693L46.4361 84.404H45.803L46.4559 81.2977C46.5152 81.0207 46.5548 80.7437 46.5944 80.4865H47.2671L47.1682 81.0009H47.2077C47.5441 80.5656 47.8804 80.4073 48.3751 80.4073C49.2258 80.4073 49.3248 80.9218 49.1467 81.6934L48.5729 84.4238H47.9398V84.404Z" fill="white"/>
<path d="M50.0172 82.4848C50.2546 81.3373 50.591 80.3876 51.9561 80.3876C53.3213 80.3876 53.2422 81.3373 53.0048 82.4848C52.6288 84.2259 51.9166 84.4633 51.0856 84.4633C50.2546 84.4633 49.6413 84.2259 50.0172 82.4848ZM52.3914 82.2078C52.609 81.1394 52.3321 80.902 51.8374 80.902C51.3428 80.902 50.9669 81.1394 50.7294 82.2078C50.4525 83.4939 50.5316 83.9489 51.1845 83.9489C51.8572 83.9489 52.1144 83.4939 52.3914 82.2078Z" fill="white"/>
<path d="M53.994 80.4667H54.7063L54.8844 83.7906H54.9041L56.5463 80.4667H57.219L55.1613 84.4039H54.3304L53.994 80.4667Z" fill="white"/>
<path d="M59.2174 83.8302C58.9206 84.2853 58.5645 84.4831 58.0698 84.4831C57.2389 84.4831 57.1004 83.9489 57.2784 83.1971C57.5356 82.01 58.703 81.9506 59.5933 81.9704C59.712 81.456 59.8505 80.8822 59.158 80.8822C58.7228 80.8822 58.4458 81.179 58.3864 81.5945H57.6939C57.9116 80.7041 58.4458 80.4073 59.2767 80.4073C60.2858 80.4073 60.4441 80.9218 60.3056 81.5945L59.9099 83.4939C59.8505 83.8104 59.8109 84.127 59.7912 84.4238H59.0987L59.2174 83.8302ZM57.8918 83.2169C57.8126 83.5928 57.9313 83.9489 58.3468 83.9489C58.7425 83.9489 59.2767 83.7115 59.4746 82.4452C58.881 82.4452 58.0698 82.3859 57.8918 83.2169Z" fill="white"/>
<path d="M61.8686 80.4667L62.0268 79.7149L62.7193 79.4181L62.5017 80.4667H63.3525L63.2535 80.9416H62.4028L61.8883 83.3554C61.829 83.6126 61.7696 83.9291 62.3434 83.9291C62.383 83.9291 62.5017 83.9093 62.6402 83.8896L62.5413 84.3842C62.3236 84.404 62.106 84.4435 61.8883 84.4435C61.275 84.4435 61.0574 84.1863 61.1563 83.7511L61.7498 80.9613H61.0969L61.1959 80.4865H61.8686V80.4667Z" fill="white"/>
<path d="M63.7482 84.4039H63.1151L63.9461 80.4667H64.5792L63.7482 84.4039ZM64.2627 78.7651H64.9749L64.8364 79.4576H64.1242L64.2627 78.7651Z" fill="white"/>
<path d="M65.1529 82.4848C65.3903 81.3373 65.7267 80.3876 67.0919 80.3876C68.4571 80.3876 68.3779 81.3373 68.1405 82.4848C67.7646 84.2259 67.0523 84.4633 66.2213 84.4633C65.3903 84.4633 64.7968 84.2259 65.1529 82.4848ZM67.5469 82.2078C67.7646 81.1394 67.4876 80.902 66.993 80.902C66.4983 80.902 66.1224 81.1394 65.885 82.2078C65.608 83.4939 65.6871 83.9489 66.34 83.9489C67.0127 83.9489 67.2699 83.4939 67.5469 82.2078Z" fill="white"/>
<path d="M70.8907 84.404L71.4645 81.6736C71.5436 81.2581 71.4843 80.902 70.9303 80.902C70.2378 80.902 70.0004 81.5351 69.8817 82.0693L69.387 84.404H68.7539L69.4068 81.2977C69.4662 81.0207 69.5057 80.7437 69.5453 80.4865H70.218L70.1191 81.0009H70.1587C70.495 80.5656 70.8314 80.4073 71.326 80.4073C72.1768 80.4073 72.2757 80.9218 72.0976 81.6934L71.5238 84.4238H70.8907V84.404Z" fill="white"/>
<path d="M73.3242 84.404H72.5922L72.7702 83.5928H73.5023L73.3242 84.404Z" fill="white"/>
<path d="M78.6465 78.7651H79.5566L80.1898 84.3842H79.3786L79.2599 83.0388H77.0835L76.3712 84.3842H75.6392L78.6465 78.7651ZM78.9433 79.4378L77.4198 82.4452H79.2203L78.9433 79.4378Z" fill="white"/>
<path d="M83.7907 80.4667H84.4238L83.5137 84.7997C83.3356 85.6702 82.7025 85.8879 81.832 85.8879C81.179 85.8879 80.6646 85.5515 80.8625 84.8392H81.5747C81.4956 85.1954 81.6935 85.413 82.0496 85.413C82.4849 85.413 82.8014 85.136 82.8806 84.7403L83.0586 83.9291H83.0389C82.8014 84.2457 82.4057 84.4238 82.0694 84.4238C81.001 84.4238 80.9812 83.5136 81.2384 82.3265C81.6143 80.5261 82.564 80.4073 82.8806 80.4073C83.2961 80.4073 83.5731 80.5854 83.672 80.9613H83.6918L83.7907 80.4667ZM82.9399 80.9218C82.2079 80.9218 82.01 81.7923 81.8913 82.3067C81.6143 83.573 81.8517 83.8698 82.3266 83.8698C83.0982 83.8698 83.2763 82.9597 83.3752 82.4057C83.5137 81.8319 83.7511 80.9218 82.9399 80.9218Z" fill="white"/>
<path d="M85.3933 84.4039H84.7601L85.5911 80.4667H86.2242L85.3933 84.4039ZM85.9077 78.7651H86.6199L86.4815 79.4576H85.7692L85.9077 78.7651Z" fill="white"/>
<path d="M87.1344 84.4039H86.4814L87.6883 78.7651H88.3215L87.1344 84.4039Z" fill="white"/>
<path d="M88.8557 84.4039H88.2225L89.0535 80.4667H89.6866L88.8557 84.4039ZM89.3701 78.7651H90.0823L89.9439 79.4576H89.2316L89.3701 78.7651Z" fill="white"/>
<path d="M90.8738 80.4667L91.0321 79.7149L91.7246 79.4181L91.5069 80.4667H92.3577L92.2588 80.9416H91.408L90.8936 83.3554C90.8342 83.6126 90.7749 83.9291 91.3486 83.9291C91.3882 83.9291 91.5069 83.9093 91.6454 83.8896L91.5465 84.3842C91.3289 84.404 91.1112 84.4435 90.8936 84.4435C90.2802 84.4435 90.0626 84.1863 90.1615 83.7511L90.7551 80.9613H90.1022L90.2011 80.4865H90.8738V80.4667Z" fill="white"/>
<path d="M93.4657 83.6719H93.4855L95.1079 80.4667H95.8004L92.8722 85.8878H92.1995L92.9711 84.4039L92.4765 80.4667H93.2085L93.4657 83.6719Z" fill="white"/>
<path d="M95.9784 84.404H95.2463L95.4046 83.5928H96.1367L95.9784 84.404Z" fill="white"/>
<path d="M100.074 81.8121L99.52 84.4039H98.8077L99.9949 78.7849H101.934C102.923 78.7849 103.141 79.4774 102.982 80.1897C102.844 80.8426 102.369 81.357 101.677 81.4757V81.4955C102.31 81.5944 102.488 81.8121 102.29 82.9398C102.25 83.1772 102.132 84.0676 102.171 84.4039H101.419C101.301 84.0082 101.499 83.2762 101.597 82.5441C101.696 81.8516 101.142 81.8318 100.905 81.8318H100.074V81.8121ZM100.212 81.1789H101.281C101.795 81.1789 102.132 80.7437 102.25 80.249C102.33 79.8533 102.231 79.3983 101.677 79.3983H100.588L100.212 81.1789Z" fill="white"/>
<path d="M104.09 82.6431C103.853 83.7511 104.11 83.9687 104.605 83.9687C105.04 83.9687 105.337 83.6126 105.456 83.2169H106.148C105.95 84.0874 105.337 84.4831 104.506 84.4831C103.675 84.4831 103.062 84.2259 103.437 82.5046C103.675 81.357 104.011 80.4073 105.376 80.4073C106.504 80.4073 106.643 81.0207 106.366 82.3265L106.287 82.6629H104.09V82.6431ZM105.733 82.1485C105.97 81.0009 105.693 80.8624 105.218 80.8624C104.803 80.8624 104.427 81.0603 104.189 82.1485H105.733Z" fill="white"/>
<path d="M108.146 84.4633C107.296 84.4633 106.841 84.0874 107.058 83.1773H107.79C107.751 83.3949 107.632 83.9291 108.285 83.9291C108.661 83.9291 108.997 83.7313 109.096 83.3356C109.235 82.6233 107.276 82.6233 107.533 81.4362C107.612 81.0207 108.008 80.3678 109.116 80.3678C109.808 80.3678 110.343 80.7041 110.125 81.4758H109.413C109.512 81.0603 109.334 80.8426 108.938 80.8426C108.601 80.8426 108.285 81.0207 108.226 81.3768C108.087 82.0693 110.046 82.0495 109.789 83.2564C109.571 84.1468 108.918 84.4633 108.146 84.4633Z" fill="white"/>
<path d="M113.389 80.4667H114.023L113.37 83.573C113.31 83.85 113.271 84.127 113.231 84.3842H112.558L112.657 83.9093H112.638C112.361 84.2655 111.945 84.4633 111.53 84.4633C110.837 84.4633 110.54 84.127 110.679 83.4543L111.312 80.4469H111.945L111.371 83.1773C111.272 83.6521 111.431 83.9687 111.866 83.9687C112.202 83.9687 112.697 83.7115 112.835 83.0586L113.389 80.4667Z" fill="white"/>
<path d="M114.972 84.4039H114.339L115.526 78.7651H116.159L114.972 84.4039Z" fill="white"/>
<path d="M116.99 80.4667L117.149 79.7149L117.841 79.4181L117.623 80.4667H118.474L118.375 80.9416H117.525L117.01 83.3554C116.951 83.6126 116.891 83.9291 117.485 83.9291C117.525 83.9291 117.643 83.9093 117.782 83.8896L117.683 84.3842C117.465 84.404 117.248 84.4435 117.03 84.4435C116.417 84.4435 116.199 84.1863 116.298 83.7511L116.891 80.9613H116.239L116.337 80.4865H116.99V80.4667Z" fill="white"/>
<path d="M119.384 84.4633C118.534 84.4633 118.079 84.0874 118.296 83.1773H119.028C118.989 83.3949 118.87 83.9291 119.523 83.9291C119.899 83.9291 120.235 83.7313 120.334 83.3356C120.473 82.6233 118.514 82.6233 118.771 81.4362C118.85 81.0207 119.246 80.3678 120.354 80.3678C121.046 80.3678 121.581 80.7041 121.363 81.4758H120.651C120.75 81.0603 120.572 80.8426 120.176 80.8426C119.839 80.8426 119.523 81.0207 119.464 81.3768C119.325 82.0693 121.284 82.0495 121.027 83.2564C120.829 84.1468 120.176 84.4633 119.384 84.4633Z" fill="white"/>
<path d="M122.372 84.404H121.64L121.818 83.5928H122.55L122.372 84.404Z" fill="white"/>
</svg>
