<svg width="189" height="67" viewBox="0 0 189 67" fill="none" xmlns="http://www.w3.org/2000/svg">
<g clip-path="url(#clip0_34_51)">
<mask id="mask0_34_51" style="mask-type:luminance" maskUnits="userSpaceOnUse" x="0" y="0" width="189" height="67">
<path d="M189 0.012207H0V66.0122H189V0.012207Z" fill="white"/>
</mask>
<g mask="url(#mask0_34_51)">
<path d="M1.63154 41.4763C1.94253 41.4763 2.19041 41.7236 2.19041 42.0338C2.19041 42.3441 1.94253 42.5734 1.63154 42.5734C1.32056 42.5734 1.09521 42.3351 1.09521 42.0338C1.09521 41.7326 1.33408 41.4763 1.63154 41.4763ZM1.33859 43.6075H1.93351V47.6406H1.33859V43.6075Z" fill="white"/>
<path d="M3.4027 43.6075H3.99762V44.4797C4.22748 43.9357 4.76381 43.5131 5.52999 43.5131C6.07984 43.5131 6.48998 43.6974 6.74237 44.0166C6.99025 44.3179 7.09842 44.7091 7.09842 45.2711V47.6406H6.5035V45.4464C6.5035 44.6551 6.16548 44.0436 5.32718 44.0436C4.4348 44.0436 3.99311 44.826 3.99311 45.5723V47.6406H3.39819V43.6075H3.4027Z" fill="white"/>
<path d="M8.35143 43.6075H8.94635V44.4797C9.17621 43.9357 9.71254 43.5131 10.4787 43.5131C11.0286 43.5131 11.4387 43.6974 11.6911 44.0166C11.939 44.3179 12.0472 44.7091 12.0472 45.2711V47.6406H11.4522V45.4464C11.4522 44.6551 11.1142 44.0436 10.2759 44.0436C9.38353 44.0436 8.94184 44.826 8.94184 45.5723V47.6406H8.34692V43.6075H8.35143Z" fill="white"/>
<path d="M13.0612 45.6308C13.0612 44.4843 13.8995 43.5176 15.1794 43.5176C16.4594 43.5176 17.3157 44.4843 17.3157 45.6308C17.3157 46.7773 16.4774 47.744 15.1794 47.744C13.8814 47.744 13.0612 46.7683 13.0612 45.6308ZM16.7208 45.6308C16.7208 44.772 16.1169 44.0571 15.1794 44.0571C14.242 44.0571 13.6561 44.7765 13.6561 45.6308C13.6561 46.4851 14.26 47.1955 15.1794 47.1955C16.0989 47.1955 16.7208 46.4761 16.7208 45.6308Z" fill="white"/>
<path d="M18.3659 43.6075L19.7901 46.8044L21.2279 43.6075H21.8769L19.9974 47.6407H19.5693L17.7169 43.6075H18.3659Z" fill="white"/>
<path d="M26.5056 43.6075V47.6406H25.9106V46.7953C25.6447 47.3573 25.0453 47.744 24.3422 47.744C23.0938 47.744 22.251 46.7683 22.251 45.6308C22.251 44.4933 23.0893 43.5176 24.3422 43.5176C25.0453 43.5176 25.6447 43.8908 25.9106 44.4663V43.612H26.5056V43.6075ZM25.9106 45.6308C25.9106 44.772 25.3112 44.0571 24.3693 44.0571C23.4273 44.0571 22.8459 44.7765 22.8459 45.6308C22.8459 46.4851 23.4498 47.1955 24.3693 47.1955C25.2887 47.1955 25.9106 46.4761 25.9106 45.6308Z" fill="white"/>
<path d="M30.1247 47.6407C29.9714 47.6677 29.6875 47.6947 29.4396 47.6947C28.9078 47.6947 28.2047 47.5867 28.2047 46.2918V44.1157H27.3934V43.6031H28.2047V42.1104H28.8086V43.6031H29.9759V44.1157H28.8086V46.1704C28.8086 47.0337 29.1286 47.1461 29.5568 47.1461C29.719 47.1461 29.9759 47.1281 30.1202 47.1012V47.6362L30.1247 47.6407Z" fill="white"/>
<path d="M31.2469 41.4763C31.5579 41.4763 31.8013 41.7236 31.8013 42.0338C31.8013 42.3441 31.5534 42.5734 31.2469 42.5734C30.9404 42.5734 30.7106 42.3351 30.7106 42.0338C30.7106 41.7326 30.9494 41.4763 31.2469 41.4763ZM30.9539 43.6075H31.5489V47.6406H30.9539V43.6075Z" fill="white"/>
<path d="M33.1353 43.6075L34.555 46.8044L35.9973 43.6075H36.6463L34.7669 47.6407H34.3387L32.4863 43.6075H33.1353Z" fill="white"/>
<path d="M37.6783 45.7567C37.7053 46.539 38.1065 47.2224 39.1025 47.2224C39.7695 47.2224 40.1526 46.8852 40.2878 46.4851H40.8918C40.7566 47.1505 40.0986 47.7395 39.1025 47.7395C37.7414 47.7395 37.0879 46.7683 37.0879 45.6173C37.0879 44.4663 37.809 43.5131 39.0755 43.5131C40.1256 43.5131 40.9459 44.2954 40.9459 45.316C40.9459 45.424 40.9459 45.5633 40.9188 45.7522H37.6783V45.7567ZM37.6873 45.2936H40.36C40.36 44.5022 39.7831 43.9852 39.0529 43.9852C38.2507 43.9852 37.7189 44.4842 37.6828 45.2936" fill="white"/>
<path d="M47.2871 46.557C47.2871 47.3304 46.6652 47.7395 45.7277 47.7395C44.7903 47.7395 44.0376 47.2854 44.0376 46.2738H44.6235C44.6235 46.9932 45.1148 47.2494 45.7548 47.2494C46.3587 47.2494 46.7238 47.0111 46.7238 46.566C46.7238 46.04 46.1649 45.9725 45.3897 45.7567C44.7227 45.5948 44.1683 45.4195 44.1683 44.6641C44.1683 43.9087 44.8083 43.5176 45.6646 43.5176C46.5209 43.5176 47.224 44.0256 47.224 44.8574H46.6426C46.6426 44.2999 46.2686 44.0032 45.6556 44.0032C45.1283 44.0032 44.7542 44.2505 44.7542 44.6776C44.7542 45.1587 45.2004 45.2306 45.9756 45.442C46.6426 45.6083 47.2916 45.7702 47.2916 46.5615" fill="white"/>
<path d="M48.0894 45.6308C48.0894 44.4843 48.9277 43.5176 50.2076 43.5176C51.4876 43.5176 52.3439 44.4843 52.3439 45.6308C52.3439 46.7773 51.5056 47.744 50.2076 47.744C48.9096 47.744 48.0894 46.7683 48.0894 45.6308ZM51.749 45.6308C51.749 44.772 51.1496 44.0571 50.2076 44.0571C49.2657 44.0571 48.6843 44.7765 48.6843 45.6308C48.6843 46.4851 49.2837 47.1955 50.2076 47.1955C51.1316 47.1955 51.749 46.4761 51.749 45.6308Z" fill="white"/>
<path d="M54.0432 41.265H53.4482V47.6362H54.0432V41.265Z" fill="white"/>
<path d="M59.1044 43.6075V47.6407H58.5095V46.7684C58.2796 47.3124 57.7433 47.7396 56.9771 47.7396C56.4408 47.7396 56.0171 47.5507 55.7647 47.2315C55.5169 46.9302 55.4087 46.5391 55.4087 45.9726V43.6075H56.0126V45.8017C56.0126 46.593 56.3416 47.2045 57.1799 47.2045C58.0723 47.2045 58.514 46.4222 58.514 45.6758V43.6075H59.1089H59.1044Z" fill="white"/>
<path d="M62.7281 47.6407C62.5748 47.6677 62.2909 47.6947 62.043 47.6947C61.5157 47.6947 60.8126 47.5867 60.8126 46.2918V44.1157H60.0013V43.6031H60.8126V42.1104H61.4165V43.6031H62.5838V44.1157H61.4165V46.1704C61.4165 47.0337 61.7365 47.1461 62.1647 47.1461C62.3269 47.1461 62.5838 47.1281 62.7326 47.1012V47.6362L62.7281 47.6407Z" fill="white"/>
<path d="M64.0441 41.4763C64.3551 41.4763 64.5985 41.7236 64.5985 42.0338C64.5985 42.3441 64.3506 42.5734 64.0441 42.5734C63.7377 42.5734 63.5033 42.3351 63.5033 42.0338C63.5033 41.7326 63.7422 41.4763 64.0441 41.4763ZM63.7512 43.6075H64.3461V47.6406H63.7512V43.6075Z" fill="white"/>
<path d="M65.3737 45.6308C65.3737 44.4843 66.212 43.5176 67.4919 43.5176C68.7719 43.5176 69.6282 44.4843 69.6282 45.6308C69.6282 46.7773 68.7899 47.744 67.4919 47.744C66.1939 47.744 65.3737 46.7683 65.3737 45.6308ZM69.0333 45.6308C69.0333 44.772 68.4339 44.0571 67.4919 44.0571C66.55 44.0571 65.9686 44.7765 65.9686 45.6308C65.9686 46.4851 66.5725 47.1955 67.4919 47.1955C68.4114 47.1955 69.0333 46.4761 69.0333 45.6308Z" fill="white"/>
<path d="M70.6828 43.6075H71.2778V44.4797C71.5076 43.9357 72.044 43.5131 72.8101 43.5131C73.36 43.5131 73.7701 43.6974 74.0225 44.0166C74.2704 44.3179 74.3786 44.7091 74.3786 45.2711V47.6406H73.7837V45.4464C73.7837 44.6551 73.4456 44.0436 72.6073 44.0436C71.7104 44.0436 71.2733 44.826 71.2733 45.5723V47.6406H70.6783V43.6075H70.6828Z" fill="white"/>
<path d="M78.561 46.557C78.561 47.3304 77.9391 47.7395 77.0016 47.7395C76.0642 47.7395 75.3115 47.2854 75.3115 46.2738H75.8974C75.8974 46.9932 76.3887 47.2494 77.0287 47.2494C77.6326 47.2494 77.9977 47.0111 77.9977 46.566C77.9977 46.04 77.4433 45.9725 76.6636 45.7567C75.9966 45.5948 75.4422 45.4195 75.4422 44.6641C75.4422 43.9087 76.0822 43.5176 76.9385 43.5176C77.7949 43.5176 78.498 44.0256 78.498 44.8574H77.9166C77.9166 44.2999 77.5425 44.0032 76.9295 44.0032C76.4022 44.0032 76.0281 44.2505 76.0281 44.6776C76.0281 45.1587 76.4743 45.2306 77.2495 45.442C77.9165 45.6083 78.561 45.7702 78.561 46.5615" fill="white"/>
<path d="M4.11937 34.723C4.15993 35.7077 4.56105 36.6519 6.03032 36.6519C6.95425 36.6519 7.52213 36.2113 7.68889 35.6043H11.6821C11.326 37.7445 9.32943 39.3587 6.04835 39.3587C2.267 39.3587 -0.0045166 37.196 -0.0045166 33.8643C-0.0045166 30.8428 1.99207 28.3474 5.96272 28.3474C9.93336 28.3474 11.8488 30.7169 11.8488 33.1719C11.8488 33.653 11.8263 34.1161 11.7226 34.723H4.11937ZM4.11937 32.7312H7.73396C7.73396 31.5982 7.03989 30.9058 5.9492 30.9058C4.85851 30.9058 4.11937 31.5577 4.11937 32.7312Z" fill="white"/>
<path d="M15.8556 28.6396L18.0415 34.8489L20.2904 28.6396H24.5766L19.8488 39.0619H16.2342L11.5649 28.6396H15.8556Z" fill="white"/>
<path d="M29.3674 28.6442H25.248V39.0664H29.3674V28.6442Z" fill="white"/>
<path d="M44.5649 33.9317C44.1323 36.9621 41.676 39.4845 37.6242 39.4845C33.0767 39.4845 30.395 36.2113 30.395 32.5378C30.395 28.8644 33.0541 25.5912 37.507 25.5912C41.9599 25.5912 44.1683 28.19 44.5289 31.3688H40.414C40.1887 30.1279 39.2422 29.1477 37.6242 29.1477C35.5104 29.1477 34.4152 30.7483 34.4152 32.5378C34.4152 34.4577 35.6411 35.928 37.6963 35.928C39.1476 35.928 40.1661 35.0243 40.414 33.9317H44.5649Z" fill="white"/>
<path d="M45.3491 33.8642C45.3491 30.8247 47.535 28.3518 51.4245 28.3518C55.314 28.3518 57.518 30.8247 57.518 33.8642C57.518 36.9036 55.3095 39.3586 51.4245 39.3586C47.5395 39.3586 45.3491 36.8632 45.3491 33.8642ZM53.376 33.8642C53.376 32.6907 52.6189 31.8094 51.42 31.8094C50.2212 31.8094 49.464 32.6907 49.464 33.8642C49.464 35.0377 50.2437 35.9189 51.42 35.9189C52.5963 35.9189 53.376 34.9972 53.376 33.8642Z" fill="white"/>
<path d="M66.8069 32.3311C66.2616 32.1827 65.9461 32.1422 65.4008 32.1422C63.8233 32.1422 62.6064 32.8751 62.6064 35.393V39.0619H58.4871V28.6397H62.6064V30.2943C63.0707 29.3501 64.247 28.4283 65.7388 28.4283C66.203 28.4283 66.4734 28.4688 66.8114 28.5767V32.3311H66.8069Z" fill="white"/>
<path d="M71.3048 34.723C71.3454 35.7077 71.7465 36.6519 73.2158 36.6519C74.1397 36.6519 74.7076 36.2113 74.8788 35.6043H78.872C78.516 37.7445 76.5194 39.3587 73.2383 39.3587C69.4524 39.3587 67.1854 37.196 67.1854 33.8643C67.1854 30.8428 69.182 28.3474 73.1527 28.3474C77.1233 28.3474 79.0388 30.7169 79.0388 33.1719C79.0388 33.653 79.0162 34.1161 78.9126 34.723H71.3048ZM71.3048 32.7312H74.9194C74.9194 31.5982 74.2253 30.9058 73.1346 30.9058C72.0439 30.9058 71.3048 31.5577 71.3048 32.7312Z" fill="white"/>
</g>
<mask id="mask1_34_51" style="mask-type:luminance" maskUnits="userSpaceOnUse" x="24" y="20" width="7" height="6">
<path d="M27.2312 20.5329C26.5146 20.5958 25.825 20.9645 25.3653 21.5895C24.527 22.745 24.7884 24.3547 25.9467 25.1865C27.105 26.0228 28.7185 25.762 29.5568 24.611C30.3906 23.4554 30.1292 21.8458 28.9754 21.0095C28.5157 20.6813 27.9883 20.5194 27.461 20.5194C27.3844 20.5194 27.3078 20.5194 27.2312 20.5284" fill="white"/>
</mask>
<g mask="url(#mask1_34_51)">
<path d="M30.3906 20.5194H24.5315V26.0228H30.3906V20.5194Z" fill="white"/>
</g>
<mask id="mask2_34_51" style="mask-type:luminance" maskUnits="userSpaceOnUse" x="0" y="0" width="189" height="67">
<path d="M189 0.012207H0V66.0122H189V0.012207Z" fill="white"/>
</mask>
<g mask="url(#mask2_34_51)">
<path d="M31.2514 54.3489C31.8328 55.6483 33.3652 56.2328 34.6677 55.6483C35.9702 55.0638 36.5561 53.5396 35.9702 52.2402C35.3843 50.9453 33.8564 50.3608 32.5539 50.9408C31.9635 51.2061 31.5173 51.6647 31.2649 52.2087C30.963 52.8607 30.9359 53.6385 31.2514 54.3489Z" fill="white"/>
<path d="M40.1076 61.7857C41.0991 62.8108 42.7396 62.8333 43.7582 61.8441C44.7813 60.8504 44.8083 59.2183 43.8168 58.1977C42.8208 57.177 41.1847 57.1546 40.1571 58.1437C39.6929 58.5933 39.4315 59.1779 39.3819 59.7758C39.3188 60.4907 39.5622 61.2326 40.1031 61.7902" fill="white"/>
<path d="M50.9784 65.7559C52.2629 66.3764 53.8133 65.8414 54.4308 64.5599C55.0527 63.2785 54.5164 61.7363 53.2364 61.1113C51.9519 60.4909 50.406 61.0259 49.7796 62.3073C49.5001 62.8873 49.4551 63.5258 49.6083 64.1013C49.7976 64.7937 50.2753 65.4097 50.9784 65.7469" fill="white"/>
<path d="M62.5568 65.7738C63.9765 65.9222 65.2475 64.888 65.3917 63.4762C65.5359 62.0599 64.5038 60.792 63.0841 60.6436C61.6644 60.4997 60.3935 61.5339 60.2492 62.9502C60.1861 63.5931 60.3619 64.2046 60.7045 64.6947C61.1191 65.2837 61.7816 65.6974 62.5568 65.7738Z" fill="white"/>
<path d="M74.4012 63.13C75.7849 62.7838 76.6277 61.381 76.2761 60.0006C75.9291 58.6203 74.5229 57.7795 73.1393 58.1257C71.7556 58.4764 70.9173 59.8748 71.2644 61.2596C71.4266 61.8846 71.8007 62.4016 72.292 62.7433C72.8824 63.1525 73.6486 63.3189 74.4012 63.1255" fill="white"/>
<path d="M84.0641 55.428C85.2449 54.6277 85.5559 53.0225 84.7537 51.849C83.9514 50.671 82.3425 50.3608 81.1616 51.1611C79.9808 51.9614 79.6743 53.5666 80.4721 54.7446C80.8371 55.2796 81.3644 55.6348 81.9458 55.7877C82.6444 55.972 83.4151 55.8641 84.0596 55.428" fill="white"/>
<path d="M89.4409 44.4348C90.2792 43.2792 90.0178 41.6651 88.864 40.8378C87.7057 40.0015 86.0923 40.2623 85.254 41.4133C84.4202 42.5688 84.6771 44.1785 85.8354 45.0148C86.3627 45.3924 86.9801 45.5453 87.5796 45.4914C88.2962 45.4284 88.9857 45.0597 89.4409 44.4303" fill="white"/>
<path d="M90.1531 33.0638C90.5452 31.6925 89.7475 30.2672 88.3774 29.8805C87.0027 29.4893 85.574 30.2851 85.1819 31.6565C84.7943 33.0233 85.592 34.4531 86.9622 34.8443C87.5841 35.0197 88.2196 34.9522 88.765 34.7004C89.4185 34.3947 89.9413 33.8147 90.1531 33.0683" fill="white"/>
<path d="M88.161 21.6885C88.0573 20.2677 86.8224 19.1976 85.3982 19.301C83.974 19.4044 82.9013 20.6364 83.005 22.0572C83.1086 23.4735 84.348 24.5436 85.7723 24.4446C86.4167 24.3952 86.9936 24.1164 87.4173 23.6938C87.9221 23.1857 88.2195 22.4618 88.161 21.6885Z" fill="white"/>
<path d="M82.3875 11.6753C81.8061 10.3759 80.2737 9.7914 78.9757 10.3759C77.6732 10.9559 77.0873 12.4846 77.6732 13.784C78.2591 15.079 79.787 15.6635 81.094 15.0834C81.6844 14.8182 82.1306 14.3596 82.383 13.8155C82.685 13.1636 82.712 12.3857 82.392 11.6753" fill="white"/>
<path d="M73.5313 4.23863C72.5398 3.21349 70.8993 3.19101 69.8762 4.18018C68.8531 5.16935 68.8261 6.80597 69.8176 7.82661C70.8136 8.84726 72.4497 8.86974 73.4728 7.88057C73.937 7.43095 74.1984 6.84644 74.248 6.24844C74.311 5.53354 74.0677 4.79167 73.5268 4.23413" fill="white"/>
<path d="M62.6605 0.272931C61.376 -0.347548 59.8301 0.187503 59.2081 1.46443C58.5862 2.74585 59.1225 4.28805 60.407 4.91303C61.6915 5.53351 63.2374 4.99846 63.8638 3.71703C64.1433 3.13253 64.1884 2.49856 64.0306 1.91855C63.8413 1.22613 63.3591 0.610147 62.6605 0.272931Z" fill="white"/>
<path d="M51.0821 0.254891C49.6624 0.106516 48.3915 1.14065 48.2472 2.55246C48.0985 3.96877 49.1351 5.2367 50.5548 5.38508C51.9745 5.52896 53.2455 4.49932 53.3897 3.08301C53.4528 2.44005 53.277 1.82857 52.9345 1.33848C52.5198 0.749475 51.8573 0.335823 51.0821 0.259387" fill="white"/>
<path d="M40.1978 4.18914C38.8141 4.53534 37.9713 5.93817 38.3229 7.3185C38.6699 8.69884 40.0761 9.53964 41.4597 9.18893C42.8434 8.83823 43.6817 7.4399 43.3346 6.05507C43.1724 5.43009 42.7983 4.91303 42.307 4.57131C41.7166 4.16216 40.9504 3.9958 40.1978 4.18914Z" fill="white"/>
<path d="M31.319 11.5989C30.1382 12.3992 29.8272 14.0044 30.6294 15.1779C31.4317 16.3559 33.0407 16.6661 34.2215 15.8658C35.4023 15.0655 35.7088 13.4603 34.9111 12.2823C34.546 11.7473 34.0142 11.3921 33.4373 11.2392C32.7387 11.0548 31.968 11.1628 31.3235 11.5989" fill="white"/>
<path d="M96.1654 23.3475H97.1119V31.8993C97.6302 30.4425 99.0228 29.1611 101.074 29.1611C102.353 29.1611 103.345 29.5658 103.999 30.3256C104.652 31.045 104.968 32.0342 104.968 33.4235V39.0573H104.021V33.6708C104.021 31.6295 103.03 30.0559 100.826 30.0559C98.3513 30.0559 97.1119 32.2545 97.1119 34.1384V39.0528H96.1654V23.3385V23.3475Z" fill="white"/>
<path d="M107.595 34.3273C107.618 36.5035 108.812 38.4369 111.467 38.4369C113.242 38.4369 114.369 37.4702 114.752 36.3506H115.744C115.361 37.9243 113.81 39.2912 111.471 39.2912C108.231 39.2912 106.658 36.9127 106.658 34.2194C106.658 31.3239 108.37 29.1702 111.403 29.1702C113.9 29.1702 115.883 31.0541 115.883 33.5C115.883 33.7024 115.883 33.9721 115.838 34.3318H107.604L107.595 34.3273ZM107.618 33.518H114.932C114.932 31.3868 113.332 29.948 111.376 29.948C109.15 29.948 107.753 31.4093 107.618 33.518Z" fill="white"/>
<path d="M127.48 29.3905V39.0663H126.511V36.6204C125.857 38.1896 124.33 39.2912 122.324 39.2912C119.286 39.2912 117.285 36.9576 117.285 34.2419C117.285 31.5262 119.286 29.1702 122.324 29.1702C124.325 29.1702 125.857 30.2717 126.511 31.8634V29.395H127.48V29.3905ZM126.511 34.2374C126.511 31.9713 124.893 30.0604 122.351 30.0604C119.809 30.0604 118.254 31.9668 118.254 34.2374C118.254 36.508 119.877 38.3919 122.351 38.3919C124.825 38.3919 126.511 36.4855 126.511 34.2374Z" fill="white"/>
<path d="M130.91 23.3475H129.968V39.0618H130.91V23.3475Z" fill="white"/>
<path d="M138.968 39.0618C138.585 39.1292 137.909 39.1966 137.346 39.1966C135.998 39.1966 134.533 38.8819 134.533 35.8515V30.2402H132.397V29.3859H134.533V25.4337H135.48V29.3859H138.608V30.2402H135.48V35.7166C135.48 38.0051 136.426 38.2974 137.503 38.2974C137.909 38.2974 138.585 38.2524 138.968 38.185V39.0618Z" fill="white"/>
<path d="M140.316 23.3475H141.262V31.8993C141.78 30.4425 143.173 29.1611 145.224 29.1611C146.508 29.1611 147.495 29.5658 148.149 30.3256C148.802 31.045 149.118 32.0342 149.118 33.4235V39.0573H148.171V33.6708C148.171 31.6295 147.18 30.0559 144.976 30.0559C142.502 30.0559 141.262 32.2545 141.262 34.1384V39.0528H140.316V23.3385V23.3475Z" fill="white"/>
<path d="M159.168 32.911C159.011 31.4273 158.019 30.0379 155.612 30.0379C153.206 30.0379 151.741 32.0343 151.741 34.2149C151.741 36.3956 153.048 38.3919 155.657 38.3919C157.861 38.3919 158.921 37.2499 159.213 35.7436H160.182C159.89 37.7445 158.452 39.2912 155.617 39.2912C152.467 39.2912 150.803 36.8452 150.803 34.2194C150.803 31.5936 152.494 29.1702 155.617 29.1702C158.74 29.1702 159.962 31.0316 160.137 32.92H159.168V32.911Z" fill="white"/>
<path d="M171.72 29.3905V39.0663H170.751V36.6204C170.098 38.1896 168.57 39.2912 166.564 39.2912C163.526 39.2912 161.525 36.9576 161.525 34.2419C161.525 31.5262 163.526 29.1702 166.564 29.1702C168.565 29.1702 170.098 30.2717 170.751 31.8634V29.395H171.72V29.3905ZM170.751 34.2374C170.751 31.9713 169.129 30.0604 166.587 30.0604C164.045 30.0604 162.49 31.9668 162.49 34.2374C162.49 36.508 164.108 38.3919 166.587 38.3919C169.066 38.3919 170.751 36.4855 170.751 34.2374Z" fill="white"/>
<path d="M179.837 30.2852C179.432 30.1728 179.229 30.1504 178.868 30.1504C176.281 30.1504 175.155 32.5289 175.155 34.687V39.0619H174.208V29.386H175.155V32.0568C175.831 30.1279 177.336 29.2286 178.868 29.2286C179.252 29.2286 179.567 29.2736 179.837 29.386V30.2852Z" fill="white"/>
<path d="M180.716 34.3273C180.739 36.5035 181.933 38.4369 184.588 38.4369C186.363 38.4369 187.49 37.4702 187.873 36.3506H188.865C188.482 37.9243 186.931 39.2912 184.588 39.2912C181.347 39.2912 179.774 36.9127 179.774 34.2194C179.774 31.3239 181.482 29.1702 184.52 29.1702C187.017 29.1702 189 31.0541 189 33.5C189 33.7024 189 33.9721 188.955 34.3318H180.721L180.716 34.3273ZM180.739 33.518H188.053C188.053 31.3868 186.458 29.948 184.497 29.948C182.271 29.948 180.874 31.4093 180.739 33.518Z" fill="white"/>
</g>
</g>
<defs>
<clipPath id="clip0_34_51">
<rect width="189" height="66" fill="white" transform="translate(0 0.012207)"/>
</clipPath>
</defs>
</svg>
