<svg width="115" height="41" viewBox="0 0 115 41" fill="none" xmlns="http://www.w3.org/2000/svg">
<path d="M13.4408 27.4227C11.3956 27.4227 10.4126 25.869 10.926 24.0718C11.9858 20.3468 18.7961 14.8268 23.437 14.8268C26.8213 14.8268 26.5637 17.819 24.5797 20.3713L23.483 21.5709C19.5496 25.385 15.9032 27.4227 13.4408 27.4227ZM30.0284 2.30359C24.1054 2.30586 17.5831 5.88632 13.4868 9.27722L13.8102 9.74041C20.1683 5.33632 28.9906 2.47268 31.4226 6.76813C32.707 9.03404 30.527 13.6104 27.457 17.2272C28.1911 15.63 27.7063 12.5631 23.4255 12.5631C16.3093 12.5631 2.30005 21.8781 2.30005 31.4113C2.30005 35.23 4.98093 37.7213 9.39693 37.7213C21.2171 37.7213 37.2472 18.5759 37.2472 8.95995C37.2472 5.56313 35.2696 2.30359 30.0284 2.30359Z" fill="white"/>
<path d="M45.2462 27.4226C44.558 27.4226 43.9853 27.1854 43.627 26.7522C43.2534 26.2981 43.1421 25.6544 43.3192 24.9899C43.7125 23.5481 45.2853 22.4154 46.9026 22.4154H50.7068L49.3475 27.4226H45.2462ZM56.1794 12.4117C55.0915 11.0899 53.3302 10.4985 52.0698 10.4985H45.1569L43.9835 14.8231H50.503L51.1277 14.8881C51.1342 14.8881 51.7262 14.9563 52.0565 15.3954C52.3233 15.7626 52.3624 16.3081 52.1705 17.0235L51.8623 18.1617H47.7545C44.219 18.1617 39.2901 20.6681 38.1911 24.7163C37.6447 26.7349 38.1235 28.4835 39.1852 29.7685C40.2386 31.044 42.2267 31.7481 44.3745 31.7481H48.1787H48.1764H53.0114L55.2792 23.3794L56.9486 17.2281C57.6041 14.8094 56.8938 13.2731 56.1794 12.4117Z" fill="white"/>
<path d="M103.666 10.4985C101.796 10.4985 100.058 11.0454 98.6448 12.0804C97.2179 13.1244 96.4308 14.379 95.9616 16.1094C94.9436 19.8599 97.9263 21.6699 100.323 22.9531C102.042 23.8731 103.529 24.6667 103.207 25.8422C102.979 26.6858 102.606 27.424 100.492 27.424H94.0365L92.8654 31.7481H100.011C101.926 31.7481 103.695 31.354 105.119 30.2731C106.545 29.1885 107.351 27.6776 107.849 25.8335C108.328 24.0785 108.005 22.4022 106.862 21.1513C105.91 20.1008 104.539 19.3713 103.332 18.7267C101.784 17.904 100.325 17.1276 100.58 16.1867C100.736 15.6172 101.308 14.8231 102.558 14.8231H108.837L110.011 10.4985H103.666Z" fill="white"/>
<path d="M66.2037 10.4985C64.3338 10.4985 62.5963 11.0454 61.1828 12.0804C59.7558 13.1244 58.9688 14.379 58.495 16.1094C57.4793 19.8599 60.4642 21.6699 62.8604 22.9531C64.5803 23.8731 66.0634 24.6667 65.7446 25.8422C65.515 26.6858 65.1438 27.424 63.0292 27.424H56.5749L55.4015 31.7481H62.5462C64.4644 31.7481 66.2322 31.354 67.6568 30.2731C69.0851 29.1885 69.8892 27.6776 70.3874 25.8335C70.8639 24.0785 70.541 22.4022 69.4025 21.1513C68.4498 20.1008 67.0772 19.3713 65.8674 18.7267C64.3223 17.904 62.865 17.1276 63.1203 16.1867C63.2735 15.6172 63.8475 14.8231 65.0951 14.8231H71.3708L72.5466 10.4985H66.2037Z" fill="white"/>
<path d="M75.9529 10.4985L70.3488 31.7481H75.0835L80.6831 10.4985H75.9529Z" fill="white"/>
<path d="M93.2794 10.4985C84.9437 10.5281 80.5815 16.0135 79.1969 21.1235C77.5566 27.1826 80.8207 31.7485 86.7901 31.7485H90.7903L91.9615 27.4244H87.9627C85.7285 27.4244 82.6561 25.6872 83.8944 21.1235C84.8779 17.4963 88.4572 14.8235 92.3833 14.8235H94.9234L96.0969 10.499L93.2794 10.4985Z" fill="white"/>
</svg>
