<svg width="48" height="54" viewBox="0 0 48 54" fill="none" xmlns="http://www.w3.org/2000/svg">
<g clip-path="url(#clip0_34_262)">
<mask id="mask0_34_262" style="mask-type:luminance" maskUnits="userSpaceOnUse" x="0" y="0" width="48" height="54">
<path d="M47.7896 0.200684H0.790039V53.2007H47.7896V0.200684Z" fill="white"/>
</mask>
<g mask="url(#mask0_34_262)">
<path d="M6.84343 46.798C6.76653 46.5481 6.54194 45.9865 6.48077 45.5719C6.34576 44.6535 6.81677 44.0487 7.24934 43.9101C7.73478 43.7721 7.92441 44.0206 8.11229 44.5983C8.35523 45.4779 8.38232 46.6305 8.30061 48.2806C8.19444 50.5347 7.08811 53.2569 4.33803 53.2003C1.96415 53.1473 0.913754 51.58 0.80452 49.1888C0.752962 48.0615 0.832047 46.9347 1.28996 45.3411C1.53289 44.4878 1.74961 44.1841 2.50333 44.0206C3.09582 43.9101 3.04251 44.5417 2.90837 45.2864C2.613 46.9347 2.4758 47.7306 2.58504 49.6007C2.69078 51.58 3.58257 52.3501 4.55344 52.3501C6.00975 52.3786 6.65642 51.1418 6.92732 49.3531C7.14098 47.9243 6.97975 47.2371 6.84343 46.798ZM37.8939 48.7501C38.4611 48.7501 38.6236 49.4337 38.4882 49.8479C38.3527 50.2595 37.8681 50.7289 37.1135 50.8656C36.951 50.4523 36.8697 48.7501 37.8939 48.7501ZM27.3524 49.6818C27.3524 49.2164 27.1081 48.8311 26.8141 48.8311C26.5685 48.8311 26.0044 49.105 26.0044 49.9851C26.0044 50.6746 26.2447 51.0015 26.3548 51.1418C27.1348 50.8932 27.3524 50.2318 27.3524 49.6818ZM18.9641 44.0754C18.926 43.6345 18.587 43.3343 18.1282 43.3343C17.6165 43.3343 17.1346 43.8816 17.1857 44.5693C17.2185 45.0227 17.4807 45.3955 17.9958 45.3955C18.587 45.3959 19.0182 44.7087 18.9641 44.0754ZM23.3496 45.6899C23.3028 44.9212 23.1202 44.5742 22.7152 44.6027C22.1782 44.6357 21.93 46.3579 22.0397 48.1684C22.1096 49.3495 22.2822 49.5317 22.443 49.5201C22.7401 49.5019 23.4527 47.3917 23.3496 45.6899ZM41.2382 48.5835C40.904 49.9967 39.8907 52.0757 38.3789 52.0757C38.0289 52.0757 37.4085 51.9372 37.4085 51.58C37.4085 51.1948 39.7832 51.1418 39.7832 49.2988C39.7832 48.6124 39.1632 47.6491 38.2457 47.6491C37.0323 47.6491 35.8486 48.9973 35.8486 50.8661C35.8486 52.5416 36.8697 53.0916 37.8944 53.0916C39.6749 53.0916 40.7537 51.6063 41.3195 50.3704C41.5904 51.1952 41.7495 53.0916 42.4263 53.0916C42.695 53.0916 42.885 52.954 43.2088 52.2129C44.0158 50.3699 44.7988 48.2535 45.8781 48.2535C46.2814 48.2535 46.0397 48.9973 47.0102 48.9973C47.4676 48.9973 47.7901 48.6125 47.7901 48.1706C47.7901 47.5378 47.2247 47.0447 46.3626 47.0447C43.8271 47.0447 43.2896 50.9208 42.8846 50.9208C42.21 50.9208 42.4258 47.8143 41.9395 47.8143C41.5078 47.8139 41.2959 48.3381 41.2382 48.5835ZM19.6658 51.8815C20.0699 51.8815 20.7651 51.7479 21.3122 50.8549C20.9993 50.1468 20.776 48.7158 20.745 48.1947C20.5842 45.53 21.5914 43.0234 22.6938 42.9539C23.5021 42.904 24.1488 43.6839 24.223 44.9474C24.4218 48.2677 23.3369 49.6537 22.7938 50.8496C22.8856 51.3132 23.6572 52.1024 24.3851 52.1024C24.6539 52.1024 24.9789 51.9648 25.0606 51.8535C25.0065 51.6624 24.9514 51.4152 24.9514 51.0567C24.9514 49.1326 26.1652 47.5101 27.2174 47.5101C28.0532 47.5101 28.5387 48.6369 28.5387 49.3807C28.5387 50.259 27.8098 50.9752 26.7319 51.6624C26.9216 51.8535 27.2702 51.9924 27.5682 51.9924C29.1067 51.9924 29.9115 50.0951 30.5075 48.3626C30.615 48.0321 30.8051 47.5658 31.1817 47.5658C31.8288 47.5658 32.0997 51.9091 33.1754 51.9091C33.6355 51.9091 34.0122 50.9462 34.0122 50.206C34.0122 49.6555 33.8234 49.6003 33.8234 48.8031C33.8234 47.9243 34.2822 47.1828 34.904 47.1828C35.281 47.1828 35.4174 47.5658 35.4174 48.0321C35.4174 49.7918 34.1751 53.0636 32.3439 53.0636C30.9663 53.0636 31.0738 50.6443 30.5888 50.6443C30.047 50.6443 29.2919 53.0907 26.6249 53.0907C26.1914 53.0907 25.734 52.8712 25.3573 52.4302C24.7111 52.8712 24.1702 53.0636 23.5497 53.0636C22.5531 53.0636 22.1205 52.0187 21.7172 52.0187C21.2309 52.0187 20.693 53.0907 19.0733 53.0907C17.7791 53.0907 17.5632 51.3333 17.1058 51.3333C16.7003 51.3333 16.0803 53.0907 15.4065 53.0907C14.2722 53.0907 14.0319 50.0403 13.0322 50.0403C12.2505 50.0403 9.77964 53.1384 9.10894 53.0676C8.83935 53.0391 8.72575 52.8337 8.75415 52.5585C8.79217 52.1781 9.11331 51.16 9.24352 50.6786C9.46155 49.8426 9.66167 48.9264 9.77353 48.6343C9.88451 48.3394 10.1838 48.1292 10.4241 48.1519C10.5452 48.1635 10.5814 48.3938 10.619 48.5839C10.7553 49.2636 10.9454 49.9566 11.1599 49.9566C11.5388 49.9566 12.7897 47.5097 13.5176 47.5097C14.409 47.5097 14.5156 51.3591 15.7285 51.3591C16.134 51.3591 16.4316 50.8652 16.7003 50.2586C16.7278 49.24 16.9974 47.7863 17.8062 47.7863C18.3729 47.7863 18.6429 49.077 18.237 50.2056C18.2361 51.5515 19.0982 51.8815 19.6658 51.8815Z" fill="white"/>
</g>
<path d="M38.4488 8.776C38.2487 8.776 37.9621 8.776 37.8044 8.45578C37.675 8.193 37.7187 7.76945 37.4753 7.58016C37.7187 7.65276 37.9761 7.65276 38.1762 7.65276C38.8211 7.65276 39.4372 7.2007 39.91 7.2007C40.2215 7.2007 40.322 7.40513 40.322 7.60867C40.3224 8.25135 39.0509 8.776 38.4488 8.776ZM38.7634 10.4243C40.2503 10.4243 41.6118 9.21381 41.6118 8.14936C41.6118 7.65276 41.382 7.24479 40.7952 7.17175C40.8952 7.30314 40.9381 7.40513 40.9381 7.63851C40.9381 8.44108 39.7387 9.33095 38.4349 9.33095C37.9621 9.33095 37.8188 9.66587 37.8188 9.8409C37.8188 10.2498 38.2059 10.4243 38.7634 10.4243ZM38.6494 11.0372C38.836 12.4223 40.8952 14.2898 41.4532 14.2457C41.8264 14.2136 41.9692 12.437 41.9692 11.0372C41.9692 10.2351 42.0125 9.60753 41.597 9.46144C40.9376 10.8185 39.2082 11.0955 38.6494 11.0372Z" fill="white"/>
<path d="M6.44083 20.2115C6.92671 20.2115 6.82665 17.1771 7.61357 17.1771C7.80015 17.1771 7.85738 17.3669 7.85738 17.6003C7.85738 18.2857 7.52793 19.2927 7.52793 19.8463C7.52793 20.1238 7.59959 20.2115 7.72849 20.2115C8.07236 20.2115 8.67315 16.8707 9.25951 16.8707C9.44565 16.8707 9.53129 17.0605 9.53129 17.2502C9.53129 17.9503 8.65916 19.963 8.65916 20.5317C8.65916 20.6195 8.68713 20.6921 8.75922 20.6921C9.11707 20.6921 9.83234 19.1172 10.0609 18.3298C10.1898 17.9209 10.3615 17.7018 10.5192 17.7018C10.6621 17.7018 10.7914 17.8626 10.7914 18.1984C10.7914 18.9858 10.0753 20.8382 9.44565 22.0785C8.95978 23.041 8.20125 24.4257 8.20125 25.1989C8.20125 25.593 8.2716 26.001 8.83001 26.4971C7.91419 26.4388 7.54235 26.3515 7.19936 25.6224C5.66789 28.7289 10.018 28.4229 8.52983 31.1785C8.25762 30.6837 6.11182 30.1728 6.11182 27.285C6.11182 24.7909 8.25762 23.3323 8.25762 22.2972C8.25762 22.0932 8.18683 21.9182 8.0007 21.7579C7.52793 21.3486 7.51351 21.0141 7.14168 21.0141C6.87034 21.0141 6.54002 21.6554 6.88389 22.2242C6.9988 22.4139 7.09886 22.5306 7.09886 22.7056C7.09886 23.1136 6.4688 24.207 6.02574 24.207C5.58182 24.207 5.23926 23.0855 5.23926 21.276C5.23926 19.6708 5.59624 18.0528 6.04016 18.0528C6.16862 18.0528 6.21144 18.1401 6.21144 18.2572C6.21144 18.4469 6.15464 18.8255 6.15464 19.4673C6.15464 20.1527 6.31194 20.2115 6.44083 20.2115Z" fill="white"/>
<path d="M10.0891 24.4845C10.6907 24.4845 11.191 24.0315 11.191 23.0268V21.5383C11.191 20.9696 11.2343 20.3282 11.6065 19.8753C11.5633 20.0654 11.5633 20.2694 11.5633 20.4591C11.5633 21.7138 12.2497 22.5747 12.2497 23.7848C12.2497 24.2364 12.1208 24.4849 11.7783 24.4849C11.4488 24.4849 11.4776 24.1785 11.4055 24.1785C11.3487 24.1785 11.2627 24.3678 11.2627 24.5722C11.2627 24.8786 11.4772 25.3596 12.078 25.3596C12.5936 25.3596 13.0078 24.8786 13.0078 24.3388C13.0078 23.0272 12.0063 21.5677 12.0063 20.1679C12.0063 19.555 12.1636 19.1471 12.2925 18.8255C12.2925 21.7285 14.7105 23.8431 14.7105 25.0532C14.7105 25.3307 14.5104 25.5498 14.2098 25.5498C13.8808 25.5498 13.7231 25.2866 13.7231 25.0822C13.7231 24.9802 13.7086 24.9512 13.6658 24.9512C13.5806 24.9512 13.3228 25.243 13.3228 25.6229C13.3228 26.1034 13.7086 26.6878 14.4243 26.6878C15.2392 26.6878 15.6832 25.9867 15.6832 25.3596C15.6832 23.8289 12.75 21.5094 12.75 19.0304C12.75 18.6068 12.8208 17.9214 13.1223 17.3967C11.2334 18.6358 10.647 20.2846 10.647 21.7285C10.647 22.9831 10.6042 23.6093 9.97458 23.6093C9.64512 23.6093 9.55948 23.3038 9.44457 23.3038C9.35893 23.3038 9.31567 23.5661 9.31567 23.6387C9.31655 24.1781 9.70324 24.4845 10.0891 24.4845Z" fill="white"/>
<path d="M31.7675 8.06162C31.9492 7.93736 32.7558 8.13422 33.7988 7.60867C33.9273 7.53696 34.0562 7.50757 34.1706 7.50757C34.6722 7.50757 34.5433 8.09057 35.0017 8.09057C35.3587 8.09057 35.8179 7.78415 36.0901 7.78415C36.5165 7.78415 37.1322 9.15547 37.1322 9.79726C37.1322 10.541 36.0324 10.9935 34.7295 10.9935C32.8275 10.9935 31.6814 9.30155 31.6814 8.20726C31.6818 8.11996 31.7251 8.09057 31.7675 8.06162ZM34.8872 9.91395C35.5173 9.91395 35.9896 9.62222 35.9896 9.44675C35.9896 9.38929 35.904 9.3452 35.7174 9.3452C35.5312 9.3452 35.159 9.33095 34.4573 9.21381C33.8552 9.11182 33.3972 8.87844 33.2255 8.87844C33.1683 8.87844 33.1395 8.90739 33.1395 8.95104C33.1395 9.33095 33.8272 9.91395 34.8872 9.91395Z" fill="white"/>
<path d="M10.39 29.9831C9.91814 30.1003 9.15918 30.8574 9.15918 32.055C9.15918 33.4834 10.6618 35.6867 13.1371 35.6867C15.2256 35.6867 15.7412 34.2133 15.7412 33.2206C15.7412 31.0186 14.4112 29.4723 12.68 29.4723C11.7354 29.4723 10.8908 30.1724 10.8908 31.2075C10.8908 32.1713 11.6065 33.6148 13.3088 33.6148C14.1101 33.6148 14.582 33.0304 14.582 32.3615C14.582 31.7045 13.9956 30.8009 13.1366 30.8009C12.8793 30.8009 12.6936 30.9741 12.6936 31.2525C12.6936 31.6016 13.165 31.9526 13.7523 31.9526C13.8947 31.9526 14.0096 31.9232 14.0673 31.8938C14.0953 31.9388 14.1101 32.0109 14.1101 32.0693C14.1101 32.4051 13.7951 32.6095 13.3088 32.6095C12.5791 32.6095 11.8778 32.0555 11.8778 31.1785C11.8778 30.6548 12.3217 30.2758 12.9653 30.2758C14.2386 30.2758 14.9967 31.4275 14.9967 32.5806C14.9967 33.6152 14.4396 34.2142 13.2944 34.2142C11.0048 34.2138 9.88974 32.1129 10.39 29.9831Z" fill="white"/>
<path d="M26.7236 38.5291C27.41 38.5291 27.3742 38.4707 27.5892 38.4707C27.8033 38.4707 27.8181 38.6021 27.8181 38.6899C27.8181 39.011 27.1164 39.4047 25.8716 39.4047C25.1419 39.4047 24.698 39.0105 24.5695 38.5732C23.8542 39.0399 22.7671 39.463 21.6936 39.463C18.7609 39.463 18.0168 38.1639 17.1005 37.7421C16.3992 37.421 15.3261 38.0485 13.8235 36.3418C14.024 36.3859 14.2963 36.4002 14.5108 36.4002C15.8264 36.4002 16.5277 35.745 16.5277 34.6939C16.5277 34.5621 16.5133 34.4178 16.4989 34.2869C16.9 34.4472 17.8162 35.1464 18.0312 36.3859C18.0592 36.532 18.6455 36.6629 19.0178 36.6629C19.5334 36.6629 20.1914 36.4438 20.2915 35.5842C22.0086 35.4386 23.1683 34.4035 23.4116 33.0892C24.026 33.2937 24.7272 33.8624 24.899 34.155C25.1423 34.0677 25.4281 34.0236 25.7571 34.0236C26.215 34.0236 26.7306 34.1114 27.3454 34.3011C27.3742 34.1114 27.4026 33.878 27.6892 33.878C28.1183 33.878 28.0038 34.3595 28.1472 34.6351C28.2188 34.7812 28.5771 34.8685 28.5771 35.1607C28.5771 35.4386 28.3468 35.541 28.204 35.541C28.1467 35.541 28.0751 35.5263 28.0318 35.5121C27.746 35.6141 27.7312 37.7131 26.5296 37.7131C25.6431 37.7131 24.8273 36.9694 24.469 36.0367C24.369 35.7597 24.1544 35.5842 23.9539 35.5842C23.7254 35.5842 23.5965 35.6283 23.3251 35.9348C22.5526 36.7943 21.2645 37.5381 19.6763 37.5381C19.1895 37.5381 18.8033 37.4936 18.7028 37.4936C18.6451 37.4936 18.6451 37.5083 18.6451 37.5225C18.6451 37.625 19.1314 38.0191 20.1905 38.0191C22.709 38.0191 23.3247 36.5748 23.7249 36.5748C23.783 36.5748 23.9534 36.5748 24.0535 36.8086C24.6412 38.208 25.9223 38.5291 26.7236 38.5291ZM25.6142 35.6141C25.6142 35.9352 25.872 36.198 26.1871 36.198C26.5021 36.198 26.7594 35.9352 26.7594 35.6141C26.7594 35.2925 26.5021 35.0297 26.1871 35.0297C25.872 35.0297 25.6142 35.2925 25.6142 35.6141Z" fill="white"/>
<path d="M36.9467 28.3347C36.7461 28.3347 36.5316 28.4955 36.5316 28.8901C36.5316 29.3261 36.861 29.604 37.0467 29.6909C37.1472 29.7501 37.3049 29.8085 37.4609 29.8085C37.8765 29.8085 38.2063 29.6909 38.2063 29.3404C38.2059 28.8901 37.561 28.3347 36.9467 28.3347ZM35.403 29.2384C35.1023 29.2384 33.4402 31.4991 32.3693 31.4991C32.1119 31.4991 31.897 31.0034 31.897 30.6257C31.897 30.4213 32.0254 30.2752 32.4847 30.1724C34.945 29.6036 34.4006 27.7214 36.5023 27.7214C37.661 27.7214 38.9509 28.5249 38.9509 30.3327C38.9509 32.2581 36.2624 34.6493 35.8613 34.6493C35.5319 34.6493 35.174 34.1683 35.174 33.8476C35.174 33.7456 35.2173 33.6142 35.5034 33.4975C36.8754 32.9426 37.6615 31.6595 37.6615 31.0025C37.6615 30.8565 37.5903 30.7122 37.4041 30.7122C37.1612 30.7122 36.1195 33.1323 34.959 33.1323C34.1564 33.1323 33.3402 32.3903 33.3402 32.0394C33.3402 31.455 35.6607 30.3768 35.6607 29.5591C35.6603 29.2522 35.5174 29.2384 35.403 29.2384Z" fill="white"/>
<path d="M7.08445 10.1183C7.08445 10.1183 6.6698 10.4386 6.15465 10.4386C5.53988 10.4386 5.05313 9.97224 5.05313 9.31575C5.05313 8.86325 5.28209 8.39694 5.81122 8.16312C5.79724 8.25085 5.79724 8.32345 5.79724 8.41119C5.7968 9.24316 6.25471 9.8698 7.08445 10.1183ZM10.1465 12.9189C9.83191 13.2974 9.50246 13.9397 9.50246 14.5957C9.50246 15.3831 9.97523 16.0392 10.7049 16.0392C11.4058 16.0392 11.7352 15.4268 11.7352 14.8001C11.7352 13.823 10.8622 13.1367 10.1465 12.9189ZM5.39656 13.5019C5.36947 13.5468 5.35331 13.6043 5.35331 13.6626C5.35331 13.794 5.49662 13.9397 5.62465 13.9397C5.73912 13.9397 5.81078 13.9107 5.86802 13.9107C6.21101 13.9107 6.5977 14.1584 7.15567 14.1584C7.48425 14.1584 7.87094 14.0559 8.35725 13.8087C9.38755 13.2832 9.78865 11.9854 9.78865 11.7662C9.78865 11.4888 9.57019 11.5253 9.38755 11.2701C9.20491 11.0158 9.27482 10.7908 9.15859 10.6719C9.09261 10.6038 8.88725 10.5993 8.62902 10.5699C8.54295 10.5606 8.42847 10.5552 8.31399 10.5552C7.84254 10.5552 7.28282 10.6145 6.65451 11.0224C5.41361 11.8299 5.59624 13.1665 5.39656 13.5019ZM8.75879 11.6932C8.85798 11.8308 9.1315 12 9.1315 12.102C9.1315 12.3056 9.01615 12.5688 8.78763 12.5688C8.28647 12.5688 7.88623 11.7956 7.88623 11.3574C7.88623 11.0808 8.04397 11.0518 8.25806 11.0518C8.35812 11.0518 8.40138 11.0665 8.4726 11.1102C8.60106 11.1832 8.60106 11.4745 8.75879 11.6932ZM7.44187 13.4729C6.96997 13.4729 6.45483 12.8752 6.45483 12.335C6.45483 12.0437 6.66936 11.6785 6.82666 11.6785C6.8839 11.6785 6.91274 11.7226 6.92672 11.825C7.01236 12.5394 7.4707 12.9483 7.90021 13.1518C7.94303 13.1807 7.97187 13.1954 7.97187 13.2244C7.97187 13.3268 7.69966 13.4729 7.44187 13.4729ZM8.65874 9.79721C8.72996 9.56338 8.78719 9.27255 8.78719 8.95099C8.78719 8.2513 8.47173 7.1864 7.4991 7.1864C6.94157 7.1864 6.54003 7.63846 6.54003 8.17826C6.54003 9.3309 7.67082 9.79721 8.65874 9.79721ZM4.95264 15.6312C4.95264 16.7393 5.28209 17.2649 5.86846 17.2649C6.32637 17.2649 6.94157 16.929 7.67082 16.2873C7.11329 16.4186 6.68334 16.5064 6.29753 16.5064C5.78238 16.5064 5.38215 16.302 4.95264 15.6312ZM5.4538 14.3329C5.43982 14.4064 5.43982 14.479 5.43982 14.5516C5.43982 15.2371 5.7968 15.6165 6.26913 15.6165C6.62567 15.6165 7.04163 15.3978 7.41259 14.9159C7.25617 14.9449 7.0696 14.9596 6.89788 14.9596C6.36919 14.9596 5.7968 14.8144 5.4538 14.3329ZM8.95935 14.129C8.62946 14.2162 7.94303 14.6247 7.94303 15.3537C7.94303 15.8784 8.34327 16.2147 8.84443 16.2147C9.10223 16.2147 9.28793 16.1559 9.4024 16.0686C9.00217 15.6749 8.85885 15.2371 8.85885 14.8001C8.85885 14.4933 8.90167 14.304 8.95935 14.129ZM9.47406 10.1326C9.47406 10.4532 9.73142 10.7165 10.046 10.7165C10.361 10.7165 10.6188 10.4537 10.6188 10.1326C10.6188 9.8119 10.361 9.54869 10.046 9.54869C9.73142 9.54869 9.47406 9.8119 9.47406 10.1326ZM10.2177 11.4451C10.2177 11.7662 10.476 12.029 10.7914 12.029C11.1056 12.029 11.3634 11.7662 11.3634 11.4451C11.3634 11.1249 11.1056 10.8621 10.7914 10.8621C10.4755 10.8621 10.2177 11.1249 10.2177 11.4451Z" fill="white"/>
<path d="M32.5413 18.6064C32.5413 18.3151 32.7991 18.0671 33.0818 18.0671C33.3972 18.0671 33.6406 18.3151 33.6406 18.6064C33.6406 18.9418 33.3968 19.1756 33.0818 19.1756C32.7991 19.1756 32.5413 18.9418 32.5413 18.6064ZM27.5174 14.1143C27.5174 14.435 27.7756 14.6978 28.0893 14.6978C28.4052 14.6978 28.663 14.435 28.663 14.1143C28.663 13.7941 28.4048 13.5313 28.0893 13.5313C27.7756 13.5313 27.5174 13.7941 27.5174 14.1143ZM27.0315 16.1706C27.0315 16.6232 27.4025 17.0017 27.8468 17.0017C28.2899 17.0017 28.663 16.6232 28.663 16.1706C28.663 15.719 28.2899 15.3391 27.8468 15.3391C27.4025 15.3391 27.0315 15.719 27.0315 16.1706ZM28.8347 15.2371C28.8347 15.7337 29.2214 16.127 29.7051 16.127C30.1914 16.127 30.5794 15.7337 30.5794 15.2371C30.5794 14.7414 30.1914 14.3477 29.7051 14.3477C29.2214 14.3477 28.8347 14.7414 28.8347 15.2371ZM28.9068 13.3412C28.9068 13.648 29.1502 13.8965 29.4478 13.8965C29.7484 13.8965 29.9917 13.648 29.9917 13.3412C29.9917 13.0356 29.7479 12.7876 29.4478 12.7876C29.1502 12.7876 28.9068 13.0356 28.9068 13.3412ZM31.4957 11.9418C31.4957 12.2473 31.7391 12.4954 32.0401 12.4954C32.3407 12.4954 32.5845 12.2473 32.5845 11.9418C32.5845 11.6349 32.3407 11.3868 32.0401 11.3868C31.7391 11.3868 31.4957 11.6349 31.4957 11.9418ZM30.4217 13.7358C30.4217 14.2457 30.8368 14.6684 31.3379 14.6684C31.8396 14.6684 32.2551 14.2457 32.2551 13.7358C32.2551 13.2245 31.84 12.8023 31.3379 12.8023C30.8368 12.8023 30.4217 13.2245 30.4217 13.7358ZM28.9492 17.1483C28.9492 17.4694 29.207 17.7313 29.5194 17.7313C29.8344 17.7313 30.0927 17.4694 30.0927 17.1483C30.0927 16.8271 29.8344 16.5648 29.5194 16.5648C29.207 16.5648 28.9492 16.8271 28.9492 17.1483ZM30.8228 15.9809C30.8228 16.302 31.0802 16.5648 31.3961 16.5648C31.7107 16.5648 31.9684 16.302 31.9684 15.9809C31.9684 15.6607 31.7107 15.3979 31.3961 15.3979C31.0802 15.3979 30.8228 15.6607 30.8228 15.9809ZM30.2932 18.0377C30.2932 18.5917 30.7367 19.0442 31.2811 19.0442C31.8251 19.0442 32.2699 18.5917 32.2699 18.0377C32.2699 17.4836 31.8251 17.0311 31.2811 17.0311C30.7367 17.0311 30.2932 17.4836 30.2932 18.0377ZM32.3547 16.7973C32.3547 17.1772 32.6557 17.4836 33.0254 17.4836C33.3977 17.4836 33.6983 17.1772 33.6983 16.7973C33.6983 16.4187 33.3977 16.1123 33.0254 16.1123C32.6557 16.1123 32.3547 16.4187 32.3547 16.7973ZM32.3119 14.9597C32.3119 15.2959 32.5845 15.573 32.91 15.573C33.2399 15.573 33.5121 15.2959 33.5121 14.9597C33.5121 14.6247 33.2399 14.3477 32.91 14.3477C32.5845 14.3477 32.3119 14.6247 32.3119 14.9597Z" fill="white"/>
<path d="M33.7695 34.0966C33.3972 34.3888 32.5268 35.044 31.0801 35.044C30.3072 35.044 29.9633 34.7959 29.8488 34.7959C29.7055 34.7959 29.5482 34.9415 29.3905 35.1317C29.0506 35.5405 28.6062 36.299 28.6062 37.1297C28.6062 37.7127 29.0506 38.2952 29.8773 38.2952C32.5557 38.2952 34.5573 36.5894 34.5573 35.2047C34.5573 34.4178 34.0994 34.0966 33.7695 34.0966ZM33.0254 33.9363C33.1412 33.8356 33.1683 33.674 33.1683 33.5127V33.1774C33.1683 32.7538 32.5413 32.5071 31.6818 32.5071C30.6362 32.5071 30.0778 32.9872 30.0778 33.1921V33.8628C30.0778 34.1407 30.7083 34.4178 31.4817 34.4178C32.0973 34.4178 32.6557 34.2574 33.0254 33.9363ZM32.91 35.3802C32.9821 35.3802 33.0673 35.4234 33.0673 35.6866C33.0673 36.0069 32.9249 36.4295 32.4119 36.7644C32.0541 37.0134 31.5669 37.2178 30.8512 37.2308C30.9657 36.882 31.0517 36.5164 31.0517 36.1681C31.0517 36.051 31.0378 35.9632 31.0233 35.8323H31.2095C32.3407 35.8327 32.8279 35.3802 32.91 35.3802Z" fill="white"/>
<path d="M27.4458 17.5571C27.6031 18.7962 29.2359 18.1691 29.2359 19.6709C29.2359 19.89 29.1787 20.2116 29.1787 20.4882C29.1787 20.8093 29.2067 21.0863 29.4479 21.0863C29.6908 21.0863 29.7485 20.9117 29.7485 20.6779C29.7485 20.4441 29.6908 20.1528 29.6908 19.9925C29.6908 19.4816 30.0491 19.3654 30.2645 19.3654C30.8085 19.3654 31.2236 19.9341 32.0402 19.9341C31.8536 20.8676 29.9634 20.6195 29.9634 21.6408C29.9634 22.1516 30.4646 22.2674 30.7941 22.2674C31.0947 22.2674 31.1952 22.2238 31.1952 21.9619C31.1952 21.8154 31.1663 21.6551 31.1663 21.5531C31.1663 21.4943 31.2096 21.4359 31.2812 21.4359C31.5971 21.4359 33.1395 22.6322 33.1395 22.9974C33.1395 23.3323 31.5102 23.6677 31.0379 23.6677C30.8946 23.6677 30.8657 23.5657 30.8657 23.5074C30.8657 23.4054 31.1091 23.099 31.1091 22.9244C31.1091 22.793 30.8946 22.7053 30.3213 22.7053C30.0491 22.7053 29.8485 22.7347 29.8485 22.9538C29.8485 23.3466 30.4786 23.8285 30.4786 24.1924C30.4786 24.4845 30.3069 24.6596 29.8485 24.6596C29.4618 24.6596 28.8772 24.3527 28.8772 23.8428C28.8772 23.4343 29.2901 23.0268 29.2901 22.7783C29.2901 22.7053 29.2355 22.5886 29.0638 22.5886C28.5333 22.5886 28.3905 24.0173 26.5151 24.1781C26.8157 23.9011 27.0727 23.5947 27.0727 22.9685C27.0727 22.6621 27.0019 22.4135 27.0019 22.0786C27.0019 21.6408 27.2016 21.4217 27.4878 21.4217C28.0169 21.4217 28.2747 22.1797 28.6194 22.1797C28.806 22.1797 29.0061 22.0056 29.0061 21.7428C29.0061 20.6342 26.9162 20.7946 26.9162 19.234C26.9167 18.8109 27.0591 18.2858 27.4458 17.5571ZM34.2708 21.8305C34.2708 22.1944 34.3861 22.6175 34.744 22.6175C35.0446 22.6175 35.3019 22.1516 35.3019 21.6408C35.3019 21.0574 35.2019 20.6049 35.2019 20.371C35.2019 20.2695 35.2451 20.2258 35.3019 20.2258C35.5169 20.2405 35.717 20.8382 35.9469 20.8382C36.2046 20.8382 36.5887 20.3563 36.7456 20.3563C36.7888 20.3563 36.8028 20.4151 36.8028 20.4294C36.8028 20.6485 36.4734 21.1304 36.4734 21.3197C36.4734 21.48 37.304 21.509 37.304 21.6551C37.304 21.8742 36.4332 21.8742 36.0185 22.0639C35.6178 22.2385 35.3732 22.4572 35.3732 22.7493C35.3732 23.0411 35.6598 23.099 36.0609 23.099C37.0169 23.099 37.6898 22.5743 37.9043 22.5743C37.9472 22.5743 37.9756 22.6028 37.9756 22.6469C37.9756 22.793 37.4892 23.274 37.4892 23.4931C37.4892 23.7408 38.3771 24.0316 38.3627 24.1781C38.3487 24.2218 38.291 24.236 38.191 24.236C38.0328 24.236 37.7899 24.1924 37.6033 24.1924C37.4888 24.1924 37.3888 24.2066 37.3451 24.265C37.2459 24.3821 37.3739 25.1553 37.1747 25.1553C36.9881 25.1553 36.5013 23.4343 35.402 23.4343C35.2443 23.4343 35.1298 23.5657 35.1298 23.7844C35.1298 24.3674 35.6882 25.0381 36.2182 25.3593C36.4581 25.52 36.8596 25.6804 36.8596 25.7686C36.8596 25.9427 35.946 25.7828 35.946 26.0741C35.946 26.3369 36.0605 26.7315 36.0605 26.964C36.0605 27.037 36.046 27.1239 35.9604 27.1239C35.7887 27.1239 35.3727 26.3222 35.1726 26.3222C35.0009 26.3222 34.6286 26.8032 34.4709 26.8032C34.4281 26.8032 34.3997 26.7595 34.3997 26.7163C34.3997 26.3805 34.9297 25.6225 34.9297 24.8783C34.9297 24.5282 34.8864 23.7697 34.4709 23.7697C34.1275 23.7697 33.7403 24.3238 33.5686 24.8783C33.469 25.1989 33.5402 26.4389 33.3108 26.4389C33.0963 26.4389 33.1535 25.6078 32.8665 25.6078C32.6554 25.6078 32.1971 26.0011 32.0393 26.0011C32.0105 26.0011 31.9817 25.9864 31.9817 25.9574C31.9817 25.7828 32.3972 25.2136 32.3972 25.0969C32.3972 24.8783 31.4521 24.8493 31.4521 24.6743C31.4521 24.5718 31.8244 24.4992 32.1678 24.4404C32.8957 24.3091 33.9693 23.7697 33.9693 23.0117C33.9693 22.1659 33.1675 21.8007 32.6406 21.4506C32.3683 21.2756 32.0677 21.1304 32.0677 21.0137C32.0677 20.8966 32.4112 20.8966 32.5545 20.8966C32.769 20.8966 32.9814 20.8819 32.9814 20.7073C32.9814 20.5755 32.9525 20.3136 32.9525 20.1091C32.9525 19.9631 32.9665 19.8464 33.0246 19.8464C33.2392 19.8464 33.5398 20.5608 33.6835 20.5608C33.912 20.5608 34.2271 19.9773 34.4425 19.9773C34.5133 19.9773 34.5425 20.0214 34.5425 20.1523C34.5434 20.6921 34.2708 21.3045 34.2708 21.8305Z" fill="white"/>
<path d="M27.8612 25.8696C28.5201 25.9574 28.6779 26.1903 28.6779 26.3805C28.6779 26.7016 28.3912 26.8032 28.1186 26.8032C27.9189 26.8032 27.6895 26.7595 27.4461 26.7595C27.1307 26.7595 26.8165 26.8326 26.5592 27.139C26.7449 27.1679 27.0171 27.2998 27.0171 27.5919C27.0171 28.4377 24.7135 27.7367 24.7135 29.911C24.7135 31.0628 25.8871 32.3178 27.6607 32.3178C28.5778 32.3178 29.1646 32.0114 29.1646 31.6605C29.1646 31.3839 28.6783 31.5727 28.6783 31.3393C28.6783 31.2373 28.85 31.0472 28.85 30.8859C28.85 30.8156 28.7928 30.6833 28.6783 30.6833C28.4196 30.6833 27.9329 31.1051 26.9454 31.1051C26.1725 31.1051 25.4139 30.6543 25.4139 30.0411C25.4139 29.9101 25.4716 29.8366 25.5573 29.8366C25.6433 29.8366 25.7574 29.8954 25.8579 29.8954C25.9439 29.8954 25.9579 29.8366 25.9579 29.6767C25.9579 29.516 25.9579 29.0635 26.2293 29.0635C26.5019 29.0635 27.0171 30.0847 28.9929 30.0847C29.6487 30.0847 30.9233 29.9542 31.396 29.516C31.3816 31.1207 30.1495 33.2353 27.575 33.2353C24.8992 33.2353 23.4683 31.0472 23.4683 29.0341C23.4683 26.8032 25.2562 24.7762 27.7039 24.7762C28.3327 24.7762 28.8636 24.9945 28.8636 25.272C28.8631 25.6519 27.9324 25.418 27.8612 25.8696ZM32.2546 26.6437C32.3547 26.8032 32.3979 26.9639 32.3979 27.1096C32.3979 27.5184 32.1257 27.8975 32.1257 28.321C32.1257 28.802 32.484 29.1953 33.0254 29.1953C33.6122 29.1953 34.0133 28.7152 34.0133 28.1455C34.0133 27.3724 33.326 26.7163 32.2546 26.6437ZM27.5174 27.5768C27.6598 27.722 27.7035 27.8681 27.7035 28.0141C27.7035 28.2328 27.6034 28.4666 27.6034 28.7147C27.6034 29.0635 27.8612 29.3703 28.2326 29.3703C28.6342 29.3703 28.9068 29.0488 28.9068 28.6711C28.9068 28.1166 28.3467 27.5768 27.5174 27.5768ZM29.4193 25.0969C30.9228 25.3886 31.739 26.5413 31.739 27.6209C31.739 28.3651 31.2811 29.0492 30.4789 29.0492C29.7484 29.0492 29.2214 28.5392 29.2214 27.7224C29.2214 27.11 29.6907 26.4682 29.6907 25.8407C29.6907 25.5931 29.6195 25.345 29.4193 25.0969ZM30.1639 27.037C30.1639 27.241 30.3072 27.4017 30.5078 27.4017C30.7363 27.4017 30.88 27.1973 30.88 26.9639C30.88 26.658 30.6078 26.2349 30.35 26.2349C30.2351 26.2349 30.2784 26.4099 30.25 26.5996C30.2351 26.7448 30.1639 26.9199 30.1639 27.037Z" fill="white"/>
<path d="M14.3683 12.0291C14.8546 12.0291 15.4121 9.34522 15.4121 8.89272C15.4121 8.77603 15.3697 8.68829 15.2697 8.68829C14.8258 8.68829 14.211 11.2412 14.211 11.8104C14.2106 11.9124 14.239 12.0291 14.3683 12.0291ZM17.8738 12.8312C18.2308 12.8312 18.6315 11.4305 18.6315 10.5553C18.6315 10.3656 18.6031 10.162 18.5166 10.162C18.216 10.162 17.7152 11.606 17.7152 12.3934C17.7157 12.6998 17.7878 12.8312 17.8738 12.8312ZM15.5402 11.5329C15.6974 11.5329 15.898 11.357 16.2711 10.9352C16.2991 10.7455 16.2991 10.57 16.2991 10.3513C16.2991 10.0601 16.1846 9.73894 16.0134 9.73894C15.5834 9.73894 15.3693 10.9058 15.3693 11.2127C15.3697 11.3868 15.4549 11.5329 15.5402 11.5329ZM17.5011 10.9352C17.5011 10.6867 17.4435 10.6284 17.3866 10.6284C17.2433 10.6284 17.0865 10.8038 16.8575 11.1975C16.8859 11.7226 16.972 11.956 17.1149 11.956C17.2722 11.956 17.5011 11.4452 17.5011 10.9352ZM18.6031 9.21383C19.5477 9.21383 19.9764 10.0454 19.9764 10.9789C19.9764 11.3868 19.8628 11.9854 19.6766 11.9854C19.4905 11.9854 19.5193 11.6496 19.4905 11.3432C19.4621 10.9495 19.39 10.8622 19.2611 10.8622C19.0177 10.8622 18.8609 11.4452 18.8609 11.9854C18.8609 12.3203 18.9181 12.6998 19.175 12.6998C19.3183 12.6998 19.4472 12.6268 19.5333 12.5395C19.4761 13.2098 18.9889 13.7941 18.3025 13.7941C17.0432 13.7941 16.5709 12.2914 16.4284 11.4162C15.6699 12.2331 14.9691 12.8312 13.7094 12.8312C12.5366 12.8312 12.0071 11.956 12.0071 11.125C12.0071 10.8764 12.0927 10.2351 12.3938 10.2351C12.7512 10.2351 12.4366 11.4305 13.1374 11.4305C13.3096 11.4305 13.6233 11.2844 13.7959 10.8038C13.896 10.5117 13.9532 10.2061 13.9532 9.94292C13.9532 9.54876 13.8676 9.30157 13.5814 9.30157C13.3376 9.30157 13.0369 9.49041 12.9369 9.59285C13.2808 8.54265 14.1105 8.0033 15.025 8.0033C16.1567 8.0033 16.757 9.0241 16.757 10.162C16.757 10.3219 16.7426 10.497 16.7138 10.6578C17.2005 9.84093 17.8738 9.21383 18.6031 9.21383Z" fill="white"/>
<path d="M15.9273 13.1367C15.3121 13.1367 15.2837 13.8965 15.2837 15.4269C14.8253 14.4207 14.0677 13.3411 13.1803 13.3411C12.5795 13.3411 12.351 13.75 12.351 14.4639C12.351 14.61 12.365 14.8292 12.3938 14.9597C12.4654 14.7125 12.6944 14.61 12.9802 14.61C13.5962 14.61 14.3399 15.091 14.8262 15.748C14.2687 15.646 13.7247 15.5435 13.2672 15.5435C12.9806 15.5435 12.7232 15.5729 12.5087 15.6749C12.0936 15.8642 11.5356 16.4918 11.5356 17.44C11.5356 17.586 11.5501 17.7459 11.5789 17.921C12.0796 16.783 13.4101 16.2726 14.2687 16.2726C14.4408 16.2726 14.5689 16.2873 14.6694 16.302C14.2254 16.71 14.1258 17.4248 14.0965 17.9063C14.083 18.1397 13.9965 18.1548 13.8387 18.1548C13.8387 18.6354 14.2114 19.3506 14.2114 19.715C14.2114 19.8463 14.1398 19.963 14.0686 19.9924C14.0686 20.6342 14.6973 21.101 14.6973 21.5089C14.6973 21.6109 14.6694 21.6987 14.6257 21.7428C14.6694 22.0055 15.3615 22.4469 15.451 22.6683C15.5611 22.9373 15.6848 22.9827 15.7565 22.9827C15.9998 22.9827 16.3852 22.6905 16.3852 22.4278C16.3852 22.3405 16.3135 22.2385 16.2572 22.1944C15.985 21.9908 15.8417 21.553 15.7272 21.2618C15.6267 21.2618 15.4974 21.2186 15.4519 21.0466C15.3737 20.7447 15.3698 20.1822 15.2553 19.8463C15.0692 19.8027 14.9831 19.7297 14.9831 19.3359C14.9831 19.1462 15.098 18.402 15.098 18.1392C15.0124 18.1392 14.8979 18.0809 14.8979 17.9058C14.8979 17.4395 15.3562 17.0748 15.4842 16.4771C16.3 17.089 16.4997 17.7161 16.4997 18.271C16.4997 18.5619 16.4569 18.8393 16.3996 19.1026C17.0009 18.7957 17.9023 18.3436 17.9023 17.4248C17.9023 16.8846 17.6589 16.2869 16.0418 16.0535C16.5425 15.8638 17.1726 15.7622 17.7017 15.7622C18.618 15.7622 19.1471 16.0535 19.2611 16.7095C19.4473 16.4183 19.5906 16.0824 19.5906 15.7765C19.5906 15.0612 19.0033 14.5953 18.2597 14.5953C17.3867 14.5953 16.6142 15.0612 15.784 15.6308C16.1571 14.8434 16.4132 14.3767 16.872 14.3767C16.9432 14.3767 17.0148 14.3913 17.0865 14.406C16.9148 13.7647 16.2712 13.1367 15.9273 13.1367Z" fill="white"/>
<path d="M40.0358 23.653C40.7524 23.653 41.3247 24.6007 41.3247 25.7097C41.3247 26.8909 40.7803 28.1749 39.8099 29.0492C39.7955 27.0806 37.4316 27.7077 37.4316 26.2789C37.4316 25.6665 37.862 25.2577 38.3776 25.2577C38.836 25.2577 39.1938 25.389 39.4516 25.6523C39.1938 25.4037 39.0649 25.0532 39.0649 24.7183C39.0649 24.1629 39.4088 23.653 40.0358 23.653Z" fill="white"/>
<path d="M27.2598 9.7973C27.6325 10.1621 27.9606 10.322 28.3617 10.322C28.5199 10.322 28.7065 10.2788 28.807 10.2788C28.9359 10.2788 29.0211 10.3366 29.0211 10.4386C29.0211 10.5994 28.8777 10.8622 28.7065 11.0083C28.8777 11.0809 29.0643 11.1103 29.2649 11.1103C30.0776 11.1103 31.0083 10.5847 31.0083 9.27264C31.1808 9.50513 31.2809 9.98703 31.2809 10.2062C31.2809 11.7957 30.1348 12.4081 29.0783 12.4081C28.391 12.4081 28.0467 12.1743 27.9602 12.1743C27.6888 12.1743 27.7033 12.7292 27.5171 12.7145C27.1877 12.6562 26.8879 11.9124 26.8879 11.125C26.8884 10.6578 27.0029 10.1621 27.2598 9.7973ZM29.4196 8.7324C29.3051 8.54267 28.8778 8.44112 28.6781 8.44112C28.0471 8.44112 27.6176 8.89273 27.532 9.30159C27.4747 9.15551 27.4319 8.98047 27.4319 8.80544C27.4319 8.16365 27.8614 7.37622 28.9075 7.37622C29.8207 7.37622 30.1785 7.87193 30.3078 7.87193C30.4507 7.87193 30.594 7.72584 30.709 7.72584C30.8663 7.72584 30.8663 7.97392 30.8663 8.1494C30.8663 8.7324 30.608 9.73895 29.964 10.1037C29.8491 9.85564 29.6201 9.57817 29.2505 9.40358C29.1504 9.35994 29.1076 9.27264 29.1076 9.1849C29.1071 9.02412 29.25 8.81969 29.4196 8.7324Z" fill="white"/>
<path d="M17.3151 5.55274C17.3151 6.06315 19.1034 8.55726 19.4473 8.55726C19.7339 8.55726 19.948 8.04686 19.948 7.60861C19.948 7.49281 19.9192 7.37657 19.8628 7.28838C19.605 6.92362 17.7878 5.465 17.3867 5.465C17.3435 5.465 17.3151 5.5091 17.3151 5.55274ZM6.79799 4.05048C6.79799 4.34265 5.71089 5.31937 5.32507 5.31937C5.18219 5.31937 5.1385 5.14478 5.1385 4.98444C5.1385 4.69316 5.2674 4.28431 5.42513 4.15247C5.61039 3.97744 6.0399 3.89104 6.36892 3.89104C6.56903 3.89104 6.79799 3.93379 6.79799 4.05048ZM19.8628 4.8967C19.8628 4.02109 17.5414 2.43153 17.5156 1.74654C17.513 1.68374 17.5466 1.62139 17.5986 1.56572C17.9962 1.13816 19.6474 0.826391 19.6474 0.462072C19.6474 0.273231 19.3036 0.273231 19.1318 0.273231C17.8014 0.273231 15.8553 0.768937 15.8553 1.24995C15.8553 1.74654 17.6008 2.95708 17.6008 3.55522C17.6008 3.71556 17.5008 3.7739 17.343 3.7739C16.8572 3.7739 15.798 3.17531 15.2973 3.17531C15.0683 3.17531 14.9818 3.33565 14.9818 3.56992C14.9818 4.26961 15.7976 5.59684 15.7976 5.98966C15.7976 6.03375 15.7832 6.0921 15.7259 6.0921C15.4681 6.0921 14.253 4.63437 13.8231 4.63437C13.6662 4.63437 13.6513 4.85261 13.6513 5.17373V5.66943C13.6513 6.0048 13.6369 6.20923 13.4805 6.20923C13.1074 6.20923 12.9361 5.14478 12.5787 5.14478C12.2064 5.14478 12.1347 7.04031 11.7778 7.04031C11.3622 7.04031 11.7201 4.9546 11.3194 4.9546C10.8759 4.9546 10.3748 6.34062 10.0597 6.34062C9.94568 6.34062 9.91728 6.22348 9.91728 6.12149C9.91728 5.69883 10.1598 5.01339 10.1598 4.60542C10.1598 4.40055 10.1025 4.28431 9.9317 4.28431C9.48733 4.28431 8.51471 5.01339 8.14288 5.01339C8.08564 5.01339 8.01398 4.98444 8.01398 4.92565C8.01398 4.57647 9.57341 3.46748 9.57341 2.97178C9.57341 2.48988 7.4263 2.81144 7.4263 2.2565C7.4263 1.79019 8.95864 1.30874 8.95864 0.827282C8.95864 0.404172 7.14098 0.215332 6.44014 0.215332C5.59554 0.215332 5.13806 0.316433 5.13806 0.564508C5.13806 0.943971 7.05578 1.06111 7.05578 1.39603C7.05578 1.71715 5.06641 2.57762 5.06641 3.07332C5.06641 3.51113 7.87067 3.10227 7.87067 3.55522C7.87067 4.05048 5.42469 6.19409 5.42469 6.90892C5.42469 7.0697 5.53917 7.14274 5.69603 7.14274C6.44014 7.14274 8.37096 5.69883 8.90096 5.69883C9.0871 5.69883 9.10152 5.93176 9.10152 6.13619C9.10152 6.51565 8.97306 7.09865 8.97306 7.5222C8.97306 7.85713 9.0587 8.09051 9.34446 8.09051C9.8749 8.09051 10.3603 7.17169 10.7191 7.17169C11.1765 7.17169 10.9048 9.86979 11.5916 9.86979C12.178 9.86979 12.4209 6.95301 12.7932 6.95301C13.1655 6.95301 13.4665 7.79878 13.8095 7.79878C14.2382 7.79878 14.038 6.32592 14.4964 6.32592C14.9967 6.32592 16.4276 8.07626 17.0717 8.07626C17.2718 8.07626 17.343 7.91547 17.343 7.71105C17.343 6.93787 16.2848 5.18842 16.2848 4.63437C16.2848 4.48874 16.3271 4.44464 16.4844 4.44464C17.0424 4.44464 18.6744 5.23207 19.4464 5.23207C19.706 5.23207 19.8628 5.08643 19.8628 4.8967ZM18.3742 2.00887C18.3742 2.2712 19.2756 2.84039 19.6911 2.84039C19.9341 2.84039 20.0057 2.50458 20.0057 2.15451C20.0057 1.71715 19.8205 1.70245 19.4477 1.70245C18.9754 1.70245 18.3742 1.83384 18.3742 2.00887ZM15.0115 0.520861C15.0115 0.433122 14.5825 0.345382 13.9961 0.345382C13.0658 0.345382 13.1947 1.13415 12.4795 1.13415C11.7354 1.13415 11.9206 0.316433 10.9764 0.316433C10.404 0.316433 9.87533 0.41887 9.87533 0.549811C9.87533 0.72529 10.5473 0.652248 10.5473 1.13415C10.5473 1.64411 9.10196 1.79019 9.10196 2.09661C9.10196 2.1986 9.216 2.24225 9.35931 2.24225C9.67478 2.24225 10.1746 2.09661 10.5329 2.09661C10.7335 2.09661 10.9196 2.13981 10.9196 2.32954C10.9196 2.69431 10.1462 3.35079 10.1462 3.64252C10.1462 3.73026 10.2175 3.75965 10.2891 3.75965C10.5757 3.75965 11.0625 3.01542 11.52 3.01542C12.2785 3.01542 11.7782 4.66332 12.1924 4.66332C12.6215 4.66332 12.4358 3.04393 13.051 3.04393C13.5526 3.04393 13.924 4.16717 14.2674 4.16717C14.3535 4.16717 14.4247 4.09458 14.4247 3.99214C14.4247 3.68661 13.9957 3.05863 13.9957 2.65066C13.9957 2.40258 14.1674 2.28545 14.3963 2.28545C14.7249 2.28545 15.1688 2.48988 15.4113 2.48988C15.497 2.48988 15.583 2.46093 15.583 2.35894C15.583 2.00887 14.3107 1.62985 14.3107 1.17779C14.3111 0.72529 15.0115 0.72529 15.0115 0.520861Z" fill="white"/>
<path d="M40.3791 2.88459C40.3791 4.18197 39.4514 5.17383 37.7754 5.45086C37.9619 5.46511 38.1336 5.46511 38.3058 5.46511C40.2646 5.46511 40.9812 4.56144 40.9812 3.8034C40.9812 3.37985 40.7518 3.00128 40.3791 2.88459ZM37.9619 4.35701C37.9619 3.3215 35.5312 3.05873 35.5312 2.8258C35.5312 2.63651 36.8884 2.31495 37.5897 2.30025C36.5165 0.900427 34.9873 1.04651 34.9873 0.798435C34.9873 0.652351 36.1325 0.360183 37.1899 0.360183C38.0768 0.360183 38.907 0.564612 38.907 1.25005C38.907 1.62996 38.6064 2.02412 38.6064 2.60667C38.6064 2.92779 38.7628 3.20481 39.1792 3.20481C39.624 3.20481 39.7232 2.7238 39.7232 2.21251C39.7232 1.79029 39.652 1.46917 39.652 1.26475C39.652 0.652351 40.064 0.244385 40.6513 0.244385C41.138 0.244385 41.2529 0.462175 41.9691 0.462175C41.5819 0.696444 41.4391 1.11955 41.4391 1.32309C41.4391 1.93638 41.8266 2.35904 41.8266 3.61367C41.8266 5.91717 39.7092 6.73399 37.1182 6.73399C36.406 6.73399 35.6462 6.67565 34.9012 6.5594C34.7871 6.5447 34.7583 6.51575 34.7583 6.44271C34.7583 6.25298 35.7755 6.15054 35.7755 5.21792C35.7755 4.85271 35.6606 4.50309 35.6606 4.37215C35.6606 4.29911 35.7178 4.25501 35.7755 4.25501C35.99 4.25501 36.4204 5.10079 37.2191 5.10079C37.4315 5.10079 37.9619 5.02775 37.9619 4.35701ZM40.2934 1.13425C40.2934 1.33779 40.4507 1.49812 40.6513 1.49812C40.8518 1.49812 41.0096 1.33779 41.0096 1.13425C41.0096 0.929822 40.8518 0.76904 40.6513 0.76904C40.4507 0.76904 40.2934 0.929822 40.2934 1.13425Z" fill="white"/>
<path d="M39.022 14.6101C39.022 14.3041 38.2626 14.2751 38.1914 13.4142C38.1765 13.2833 38.1337 13.0503 37.976 13.0503C37.7186 13.0503 37.9188 13.8525 37.6326 13.8525C36.9745 13.8525 36.76 12.5395 36.5166 12.5395C36.4589 12.5395 36.3908 12.5831 36.3908 12.7582C36.3908 12.919 36.4196 13.0209 36.4196 13.2098C36.4196 13.4 36.3759 13.5313 36.2047 13.5313C35.818 13.5313 35.4741 12.6121 35.1446 12.6121C35.073 12.6121 35.0018 12.6562 35.0018 12.7292C35.0018 12.9043 35.2875 13.2245 35.2875 13.3853C35.2875 13.7358 34.3568 13.5456 34.3568 13.8378C34.3568 13.9692 34.4853 14.0124 34.6575 14.0124C34.9585 14.0124 35.4313 13.8819 35.6746 13.8819C35.818 13.8819 36.0325 13.9108 36.0325 14.0996C36.0325 14.3041 35.5169 14.5664 35.5169 14.7561C35.5169 14.8439 35.6026 14.8871 35.6742 14.8871C36.0609 14.8871 36.7451 14.2021 37.2319 14.2021C37.3175 14.2021 37.5321 14.2457 37.5321 14.3771C37.5321 14.5664 37.0458 14.9013 37.0458 15.1788C37.0458 15.2518 37.0894 15.3391 37.1751 15.3391C37.4311 15.3391 37.775 14.6541 38.2622 14.6541C38.4483 14.6541 38.7205 14.7272 38.8643 14.7272C38.9792 14.7272 39.022 14.6541 39.022 14.6101ZM39.3943 21.684C39.6237 20.9554 39.9103 20.4441 40.3791 19.6566C39.9103 19.4094 38.6637 18.8835 38.6637 18.023C38.6637 17.0164 39.8946 16.229 40.1498 16.229C40.2647 16.229 40.2931 16.3314 40.2931 16.5212C40.2931 17.0458 40.0497 17.8916 40.0497 18.3441C40.0497 18.7521 40.3075 19.1467 40.5364 19.1467C40.7798 19.1467 41.4527 18.2715 41.4527 17.4106C41.4527 15.8642 40.1209 15.3979 39.7089 15.3979C39.3222 15.3979 38.6205 16.0393 36.9741 16.0393C33.8985 16.0393 33.1968 12.9336 33.1968 11.5766C33.1968 11.5182 33.2103 11.5035 33.2247 11.5035C33.2964 11.5035 33.5979 11.8834 34.5709 11.8834C35.0721 11.8834 35.5305 11.7516 36.261 11.7516C37.9751 11.7516 38.7345 12.963 39.7945 14.5081C40.4355 14.916 41.9683 15.573 41.9683 17.4253C41.9683 19.0589 40.2642 19.9631 39.8518 21.7134C40.5072 21.6408 40.8943 20.4441 41.5672 20.4441C41.911 20.4441 42.0683 20.7215 42.0683 21.1598C42.0683 21.8007 41.7101 22.764 41.0228 23.3617C41.0367 23.3034 41.0367 23.2299 41.0367 23.1426C41.0367 22.7346 40.8799 22.1516 40.4207 22.1516C39.708 22.1516 39.4791 22.9391 39.0784 23.5947C38.6629 22.1075 38.1045 20.7652 37.103 19.9484C36.0897 19.1173 34.342 19.5689 34.342 18.0524C34.342 17.6435 34.6002 17.0605 34.6002 16.5938C34.6002 16.4334 34.5714 16.2873 34.4849 16.1707C35.8599 16.6962 35.3727 17.6288 36.2186 18.5917C36.7451 19.205 38.2054 19.788 39.05 22.3111C39.064 22.2385 39.0784 22.0492 39.0784 21.9178C39.0784 19.7591 36.275 17.6435 36.0316 16.7684C37.6601 16.9581 37.9463 17.3669 38.7197 19.5546C38.8783 20.0071 39.3943 21.1304 39.3943 21.684Z" fill="white"/>
<path d="M31.5675 6.25293C30.5647 6.25293 29.9063 5.74297 29.9063 5.47975C29.9063 5.34836 29.9919 5.26152 30.1072 5.26152C30.4218 5.26152 31.1091 5.75678 31.3377 5.75678C31.3958 5.75678 31.4382 5.72827 31.4382 5.64053C31.4382 5.37776 31.1948 4.9404 31.1948 4.72216C31.1948 4.66337 31.238 4.62017 31.3237 4.62017C31.7099 4.62017 32.2828 4.78051 32.5842 4.78051C32.6843 4.78051 32.7127 4.72216 32.7127 4.66337C32.7127 4.3427 31.7816 3.71561 31.7816 3.52588C31.7816 3.35084 32.9386 3.08762 32.9386 2.81149C32.9386 2.51932 31.3656 2.72375 31.3656 2.44628C31.3656 2.2423 31.6667 1.89223 31.6667 1.73189C31.6667 1.65885 31.609 1.6299 31.5094 1.6299C31.3805 1.6299 30.6932 1.90693 30.4065 1.90693C30.2637 1.90693 30.0915 1.87798 30.0915 1.6731C30.0915 1.33773 30.6499 0.973415 31.5238 0.973415C32.9382 0.973415 33.7836 1.96527 33.7836 3.62787C33.7845 5.72827 32.3409 6.25293 31.5675 6.25293ZM28.7781 3.48223C28.7781 3.32145 28.2188 3.01547 28.2188 2.84044C28.2188 2.81149 28.2468 2.79679 28.29 2.79679C28.4482 2.79679 28.7204 2.85514 28.9358 2.85514C29.122 2.85514 29.1504 2.03831 29.291 2.03831C29.3911 2.03831 29.5624 2.81149 29.721 2.81149C29.9067 2.81149 30.2501 2.59236 30.3934 2.59236C30.4218 2.59236 30.4507 2.60662 30.4507 2.63646C30.4507 2.73845 30.0928 3.13172 30.0928 3.24841C30.0928 3.37979 30.895 3.54057 30.895 3.65726C30.895 3.80335 30.0784 3.78865 30.0784 3.92004C30.0784 4.02114 30.3795 4.42999 30.3795 4.56138C30.3795 4.59078 30.3646 4.60547 30.3362 4.60547C30.2213 4.60547 29.7778 4.4006 29.6489 4.4006C29.4912 4.4006 29.2364 4.99874 29.1075 4.99874C29.0647 4.99874 29.0363 4.9404 29.0363 4.86736L29.0075 4.28436C29.0075 4.22601 28.9795 4.16722 28.9074 4.16722C28.7353 4.16722 28.4058 4.15252 28.3049 4.15252C28.2332 4.15252 28.2048 4.13827 28.2048 4.10888C28.2044 3.99219 28.7781 3.58422 28.7781 3.48223ZM28.3617 5.87302C28.5915 5.87302 28.6343 6.44266 28.678 6.77758C28.7064 6.95306 28.7353 6.96731 28.8069 6.96731C28.9791 6.96731 29.2504 6.29657 29.4344 6.29657C29.7057 6.29657 30.4367 7.06975 31.6536 7.06975C33.3838 7.06975 35.0162 5.82937 35.0162 3.64257C35.0162 1.52747 33.5547 0.287532 31.5387 0.287532C30.58 0.287532 29.8774 0.768986 29.5051 0.768986C29.2792 0.783684 28.9358 0.200684 28.7632 0.200684C28.692 0.200684 28.6203 0.345431 28.6203 0.593952C28.6203 0.754734 28.6203 1.26469 28.4482 1.26469C28.1039 1.26469 26.7739 0.259028 26.7739 0.622902C26.7739 0.958717 27.66 1.97997 27.66 2.2423C27.66 2.50462 26.7878 2.75315 26.7878 2.92773C26.7878 3.24841 27.7176 3.30675 27.7176 3.71561C27.7176 4.12357 26.7441 4.44469 26.7441 4.75111C26.7441 4.99874 27.7176 4.82415 27.7176 5.13013C27.7176 5.4361 27.0024 6.45736 27.0024 6.74819C27.0024 6.82167 27.0164 6.82167 27.0732 6.82167C27.3454 6.82167 28.1611 5.87302 28.3617 5.87302Z" fill="white"/>
<path d="M21.8801 31.4853C21.8801 31.6167 21.8369 31.7628 21.7224 31.908C21.566 31.6167 21.1216 31.4706 20.921 31.4711C19.4472 31.4711 20.0052 33.6445 18.4314 33.6445C17.7733 33.6445 17.7157 33.5568 17.4732 33.5568C17.3727 33.5568 17.3154 33.6009 17.3154 33.6882C17.3154 34.0681 17.845 35.0007 19.3188 35.0007C20.7926 35.0007 22.2096 34.0823 22.2096 32.9435C22.2096 32.7538 22.1667 32.5511 22.0807 32.3467C22.1379 32.2589 22.2817 32.2006 22.4101 32.2006C22.6386 32.2006 22.7675 32.4643 22.9821 32.4643C23.2115 32.4643 23.3832 32.2883 23.3832 32.0554C23.3832 31.8648 23.2831 31.7343 23.1118 31.6457C23.2263 31.5588 23.312 31.4127 23.312 31.2524C23.312 31.0034 23.1398 30.7714 22.8532 30.7714C22.7243 30.7714 22.6391 30.8159 22.539 30.9157C22.511 30.6547 22.3673 30.4066 22.0951 30.4066C21.8805 30.4066 21.7224 30.5665 21.7224 30.8155C21.7224 31.0471 21.8801 31.2377 21.8801 31.4853Z" fill="white"/>
<path d="M14.0389 28.7735C15.1836 29.0635 15.756 29.691 15.8701 30.4352C15.9845 31.1496 16.1274 31.7339 16.3992 32.0248C16.757 32.4341 17.4583 32.7966 18.074 32.7966C18.5891 32.7966 19.0033 32.6234 19.0033 32.1415C19.0033 31.6159 18.3025 30.4348 17.2722 30.4348C17.1721 30.4348 17.0432 30.4499 16.8999 30.4499C16.771 30.4499 16.5849 30.421 16.4708 30.3185C16.2423 30.1137 16.1702 29.0198 15.7412 28.3638C15.2693 27.6342 14.7541 27.4298 14.0533 27.4298C13.553 27.4298 12.9941 27.7064 12.9941 28.1152C12.9941 28.3647 13.123 28.5392 14.0389 28.7735ZM18.0312 32.0399C17.6012 32.0399 16.9576 31.5723 16.9576 31.3095C16.9576 31.0904 17.1582 30.9737 17.3146 30.9737C17.6729 30.9737 18.316 31.4271 18.316 31.8061C18.3165 31.9081 18.2448 32.0399 18.0312 32.0399Z" fill="white"/>
<path d="M16.7143 20.6778C16.7143 19.7443 18.8898 19.2486 18.8898 18.096C18.8898 17.9062 18.8182 17.5713 18.6893 17.3232C19.4469 17.7459 20.0053 18.4612 20.0053 19.0442C20.0053 20.0507 18.9755 20.5175 18.9755 21.145C18.9755 21.8741 20.077 21.9908 20.077 22.8949C20.077 23.6383 19.0323 24.4992 19.0323 25.4616C19.0323 26.2054 19.5479 26.8174 20.3339 26.9198C20.0766 26.9782 19.848 27.0218 19.6047 27.0218C18.1588 27.0218 16.6711 25.8117 16.6711 24.3673C16.6711 23.653 16.9717 23.0268 17.4287 22.5743C17.8303 22.9243 18.2305 23.1573 18.4883 23.1573C18.7168 23.1573 18.8177 23.041 18.8177 22.866C18.8182 22.3257 16.7143 21.8305 16.7143 20.6778ZM21.279 28.0435C20.7883 28.2724 20.5926 28.2332 20.5926 28.7441C20.5926 28.9334 20.5493 29.1801 20.5493 29.3119C20.5493 29.487 20.5777 29.5894 20.7778 29.5894C21.2934 29.5894 22.1092 28.7 22.1092 27.9411C22.1092 27.7362 21.9943 27.6502 21.8654 27.6502C21.7509 27.6502 21.6229 27.8827 21.279 28.0435ZM21.2218 26.9928C21.2218 26.3368 19.8909 26.3221 19.8909 25.3303C19.8909 25.0817 20.0477 24.6595 20.3632 24.2066C20.4925 24.965 20.7918 25.3592 21.4367 25.6077C22.7095 26.0883 22.8817 26.8174 22.8817 27.5914C22.8817 28.9044 21.9803 30.5376 19.6623 30.5376C17.8019 30.5376 16.4709 28.8452 16.4709 27.416C16.4709 27.0218 16.571 26.5849 16.8144 26.5849C17.0294 26.5849 17.1006 26.7595 17.2723 26.9341C17.9168 27.5914 18.6176 27.7656 19.6335 27.7656C20.5493 27.766 21.2218 27.387 21.2218 26.9928Z" fill="white"/>
<path d="M11.0885 27.309C11.1235 27.6137 10.9098 27.8884 10.6114 27.9241C10.3125 27.9597 10.0416 27.7415 10.0076 27.4373C9.9726 27.1322 10.1863 26.8565 10.4851 26.8209C10.784 26.7852 11.054 27.0039 11.0885 27.309ZM8.41448 27.8827C8.47522 28.3806 8.93094 28.7583 9.44522 28.6999C9.63091 28.679 9.80307 28.6273 9.91798 28.5543C10.0325 29.0206 10.4165 29.3208 10.9356 29.2513C11.4626 29.1814 11.8208 28.7583 11.764 28.2185C11.7492 28.0733 11.7208 27.9846 11.6784 27.8827C11.6784 27.8827 11.7479 27.8751 11.8003 27.8653C12.3172 27.7655 12.6654 27.3429 12.6222 26.8325C12.5654 26.3074 12.1031 25.9176 11.622 25.9782C11.4355 26.0014 11.2633 26.074 11.1484 26.176C11.0191 25.7391 10.6158 25.3591 10.0652 25.4518C9.56756 25.536 9.23854 25.9662 9.28836 26.5118C9.29666 26.6004 9.31676 26.7015 9.36001 26.8031C9.36001 26.8031 9.27568 26.816 9.21757 26.8244C8.79986 26.8877 8.34676 27.3161 8.41448 27.8827Z" fill="white"/>
</g>
<defs>
<clipPath id="clip0_34_262">
<rect width="47" height="53" fill="white" transform="translate(0.790039 0.200684)"/>
</clipPath>
</defs>
</svg>
