<svg width="100" height="21" viewBox="0 0 100 21" fill="none" xmlns="http://www.w3.org/2000/svg">
<g clip-path="url(#clip0_34_188)">
<path d="M13.6743 0.0356914C16.7062 0.0166286 19.167 0.934023 21.0614 2.84506C22.9558 4.7561 23.91 7.26762 23.9288 10.3749C23.9476 13.4225 23.0216 15.934 21.1484 17.907C19.2775 19.88 16.8825 20.8951 13.9657 20.9142H0V15.8864H13.1455C15.0281 15.8768 16.5088 15.3931 17.5853 14.4352C18.6617 13.4773 19.1952 12.1834 19.1858 10.5512C19.1647 6.8816 17.1316 5.05873 13.0844 5.08255H7.83134H0.0188027L0.0117517 0.0356914H13.6766H13.6743Z" fill="white"/>
<path d="M10.9832 5.77124H4.54794C4.54794 5.77124 3.6031 7.62986 3.62425 10.4297C3.636 11.9071 3.80053 13.4535 4.53383 15.1739H10.9573C10.9573 15.1739 9.55651 14.5473 8.93602 13.1819C8.7856 12.8507 8.60933 12.4098 8.50826 11.8999C8.4354 11.5258 8.38604 11.1088 8.36724 10.6751C8.35314 10.3654 8.35549 10.0461 8.38839 9.72199C8.52706 8.27323 9.19456 6.76012 10.9832 5.77124Z" fill="white"/>
<path d="M27.2029 20.9999H18.5137C18.5137 20.9999 19.9873 20.2589 21.3317 19.0532C22.3142 18.1715 23.1391 16.9086 23.5669 15.853L27.2052 15.822V20.9999H27.2029Z" fill="white"/>
<path d="M27.2028 0.269287H18.6311C18.6311 0.269287 20.1048 0.779216 21.4492 1.98493C22.4316 2.86659 23.1203 4.02703 23.548 5.08263L27.2052 5.00638V0.269287H27.2028Z" fill="white"/>
<path d="M31.7085 8.84517C31.7085 6.2169 32.5053 4.08664 34.0988 2.45439C35.6923 0.819757 37.7794 0.00244141 40.3554 0.00244141C42.9314 0.00244141 44.9621 0.819757 46.5885 2.452C48.2149 4.08425 49.0282 6.16686 49.0282 8.69744V20.8619H44.8728V9.3837C44.8728 7.75145 44.4779 6.46471 43.6882 5.52587C42.8985 4.58703 41.8291 4.11761 40.4753 4.11761C37.4316 4.11761 35.9109 5.87377 35.9109 9.3837V20.8619H31.7085V8.84517Z" fill="white"/>
<path d="M45.002 8.90475C45.002 6.25741 45.7987 4.11285 47.3946 2.46868C48.9881 0.824522 51.0729 0.00244141 53.6489 0.00244141C56.2248 0.00244141 58.2555 0.824522 59.882 2.46868C61.5084 4.11285 62.3216 6.20737 62.3216 8.75701V20.9143H58.1662V9.44803C58.1662 7.80387 57.7714 6.50999 56.9816 5.564C56.1943 4.61801 55.1225 4.14621 53.7687 4.14621C50.725 4.14621 49.2044 5.91428 49.2044 9.44803V20.9143H45.002V8.90475Z" fill="white"/>
<path d="M82.3301 8.86662C82.3301 6.23119 83.1433 4.09617 84.7698 2.45915C86.3962 0.82214 88.5256 0.00244141 91.1533 0.00244141C93.781 0.00244141 95.8516 0.819757 97.5133 2.45677C99.1727 4.09378 100.002 6.18116 100.002 8.71888V20.9143H95.7623V9.40753C95.7623 7.77051 95.3604 6.48139 94.5542 5.54017C93.7504 4.59895 92.6575 4.12953 91.2755 4.12953C88.1707 4.12953 86.6171 5.88807 86.6171 9.40753V20.9143H82.3278V8.86662H82.3301Z" fill="white"/>
<path d="M81.1644 12.0477C81.1644 14.6831 80.3512 16.8205 78.7248 18.4551C77.0983 20.0921 74.9713 20.9095 72.3412 20.9095C69.7112 20.9095 67.6405 20.0921 65.9812 18.4551C64.3219 16.8181 63.4922 14.7307 63.4922 12.193V0H67.7322V11.5068C67.7322 13.1438 68.1341 14.4329 68.9403 15.3741C69.7441 16.3153 70.837 16.7848 72.219 16.7848C75.3238 16.7848 76.8774 15.0262 76.8774 11.5044V0H81.1668V12.0477H81.1644Z" fill="white"/>
</g>
<defs>
<clipPath id="clip0_34_188">
<rect width="100" height="21" fill="white"/>
</clipPath>
</defs>
</svg>
