<svg width="115" height="47" viewBox="0 0 115 47" fill="none" xmlns="http://www.w3.org/2000/svg">
<g clip-path="url(#clip0_34_20)">
<path d="M100.82 6.97857V6.35357H105.184V6.97857H103.354V12.1718H102.65V6.97857H100.82ZM101.138 16.3536H101.979L103.956 21.1831H104.025L106.002 16.3536H106.843V22.1718H106.184V17.7513H106.127L104.309 22.1718H103.672L101.854 17.7513H101.797V22.1718H101.138V16.3536Z" fill="white"/>
<path d="M22.4216 44.2966C22.3963 44.8212 22.1754 45.0981 21.8207 45.2912C20.1194 46.2567 18.2551 47.0036 15.5655 47.0036C10.1104 47.0036 5.96924 43.2509 5.96924 37.0935C5.96924 30.9362 10.1104 27.1835 15.5655 27.1835C18.2551 27.1835 20.1194 27.9267 21.8207 28.8959C22.1754 29.089 22.3963 29.3659 22.4216 29.8905C22.4506 30.4698 22.0126 30.9945 21.3248 30.9945C21.1872 30.9945 20.9954 30.9653 20.8289 30.8852C19.3773 30.1128 17.9474 29.5881 15.8081 29.5881C10.9538 29.5881 8.4561 32.8453 8.4561 37.0972C8.4561 41.3491 10.9538 44.6063 15.8081 44.6063C17.9474 44.6063 19.3737 44.0816 20.8289 43.3056C20.9917 43.2218 21.1836 43.1963 21.3248 43.1963C22.0089 43.1963 22.4506 43.7173 22.4216 44.3002V44.2966Z" fill="white"/>
<path d="M43.8114 37.0899C43.7028 42.8611 40.025 47 34.1862 47C28.3473 47 24.6731 42.8611 24.5609 37.0899C24.6731 31.3224 28.3184 27.1798 34.1862 27.1798C40.054 27.1798 43.7028 31.3187 43.8114 37.0899ZM41.3173 37.0899C41.3173 32.838 38.711 29.5262 34.1862 29.5262C29.6613 29.5262 27.055 32.838 27.055 37.0899C27.055 41.3417 29.6324 44.6536 34.1862 44.6536C38.74 44.6536 41.3173 41.3417 41.3173 37.0899Z" fill="white"/>
<path d="M43.8114 37.0899C43.7028 42.8611 40.025 47 34.1862 47C28.3473 47 24.6731 42.8611 24.5609 37.0899C24.6731 31.3224 28.3184 27.1798 34.1862 27.1798C40.054 27.1798 43.7028 31.3187 43.8114 37.0899ZM41.3173 37.0899C41.3173 32.838 38.711 29.5262 34.1862 29.5262C29.6613 29.5262 27.055 32.838 27.055 37.0899C27.055 41.3417 29.6324 44.6536 34.1862 44.6536C38.74 44.6536 41.3173 41.3417 41.3173 37.0899Z" fill="white"/>
<path d="M63.0619 45.6228C63.0619 46.3114 62.595 46.8615 61.8276 46.8615C61.3063 46.8615 60.8683 46.5846 60.6475 46.0891L58.8665 41.7826H49.5417L47.7607 46.0891C47.5399 46.5846 47.1055 46.8615 46.5842 46.8615C45.8168 46.8615 45.3499 46.3077 45.3499 45.6228C45.3499 45.4552 45.4042 45.2621 45.4874 45.069L52.481 28.4514C52.7272 27.8721 53.2484 27.3219 54.0738 27.3219H54.3453C55.1706 27.3219 55.6919 27.8757 55.9344 28.4514L62.928 45.069C63.0076 45.2621 63.0656 45.4552 63.0656 45.6228M57.9072 39.4909L54.2077 30.5208L50.5046 39.4909H57.9108H57.9072Z" fill="white"/>
<path d="M63.0619 45.6228C63.0619 46.3114 62.595 46.8615 61.8276 46.8615C61.3063 46.8615 60.8683 46.5846 60.6475 46.0891L58.8665 41.7826H49.5417L47.7607 46.0891C47.5399 46.5846 47.1055 46.8615 46.5842 46.8615C45.8168 46.8615 45.3499 46.3077 45.3499 45.6228C45.3499 45.4552 45.4042 45.2621 45.4874 45.069L52.481 28.4514C52.7272 27.8721 53.2484 27.3219 54.0738 27.3219H54.3453C55.1706 27.3219 55.6919 27.8757 55.9344 28.4514L62.928 45.069C63.0076 45.2621 63.0656 45.4552 63.0656 45.6228H63.0619ZM57.9036 39.4909L54.2041 30.5208L50.5009 39.4909H57.9072H57.9036Z" fill="white"/>
<path d="M78.146 28.6445C78.146 29.3076 77.6248 29.8031 76.9696 29.8031H71.4022V45.6228C71.4022 46.3114 70.8266 46.8652 70.1389 46.8652C69.4511 46.8652 68.9081 46.3114 68.9081 45.6228V29.8031H63.3154C62.6566 29.8031 62.1606 29.3076 62.1606 28.6445C62.1606 27.9814 62.6566 27.4568 63.3154 27.4568H76.9732C77.6284 27.4568 78.1497 27.9814 78.1497 28.6445" fill="white"/>
<path d="M78.146 28.6445C78.146 29.3076 77.6248 29.8031 76.9696 29.8031H71.4022V45.6228C71.4022 46.3114 70.8266 46.8652 70.1389 46.8652C69.4511 46.8652 68.9081 46.3114 68.9081 45.6228V29.8031H63.3154C62.6566 29.8031 62.1606 29.3076 62.1606 28.6445C62.1606 27.9814 62.6566 27.4568 63.3154 27.4568H76.9732C77.6284 27.4568 78.1497 27.9814 78.1497 28.6445H78.146Z" fill="white"/>
<path d="M93.9685 41.6186C93.9685 44.7374 91.1993 47 86.9459 47C84.2057 47 82.0084 46.366 80.4193 45.6738C80.0066 45.5098 79.6519 45.0398 79.6519 44.5443C79.6519 43.9359 80.0899 43.3857 80.774 43.3857C80.9405 43.3857 81.107 43.4148 81.2989 43.495C82.5297 44.0452 84.3432 44.6281 86.7034 44.6281C89.4183 44.6281 91.4997 43.8557 91.4997 41.451C91.4997 37.3668 79.8437 39.6293 79.8437 32.838C79.8437 29.7739 82.3125 27.1798 86.9459 27.1798C89.0853 27.1798 90.9242 27.5369 92.4047 28.0907C92.7884 28.2291 93.1721 28.5315 93.1721 29.1946C93.1721 29.7484 92.7631 30.3532 92.0753 30.3532C91.9377 30.3532 91.7748 30.3022 91.6373 30.2439C90.3739 29.8031 88.8934 29.5007 87.2174 29.5007C84.4482 29.5007 82.3378 30.5791 82.3378 32.6486C82.3378 37.4251 93.9685 34.3318 93.9685 41.6223" fill="white"/>
<path d="M93.9685 41.6186C93.9685 44.7374 91.1993 47 86.9459 47C84.2057 47 82.0084 46.366 80.4193 45.6738C80.0066 45.5098 79.6519 45.0398 79.6519 44.5443C79.6519 43.9359 80.0899 43.3857 80.774 43.3857C80.9405 43.3857 81.107 43.4148 81.2989 43.495C82.5297 44.0452 84.3432 44.6281 86.7034 44.6281C89.4183 44.6281 91.4997 43.8557 91.4997 41.451C91.4997 37.3668 79.8437 39.6293 79.8437 32.838C79.8437 29.7739 82.3125 27.1798 86.9459 27.1798C89.0853 27.1798 90.9242 27.5369 92.4047 28.0907C92.7884 28.2291 93.1721 28.5315 93.1721 29.1946C93.1721 29.7484 92.7631 30.3532 92.0753 30.3532C91.9377 30.3532 91.7748 30.3022 91.6373 30.2439C90.3739 29.8031 88.8934 29.5007 87.2174 29.5007C84.4482 29.5007 82.3378 30.5791 82.3378 32.6486C82.3378 37.4251 93.9685 34.3318 93.9685 41.6223V41.6186Z" fill="white"/>
<path d="M96.6653 20.8877L100.227 21.3868L113.997 31.7013L114.077 33.523C114.077 33.523 106.692 26.6734 96.6653 20.8877Z" fill="white"/>
<path d="M0.162842 6.56904C0.162842 6.56904 20.4197 4.22633 26.3491 8.63121C32.2784 13.0397 17.9618 15.98 0.162842 6.56904Z" fill="white"/>
<path d="M0 10.8974C0 10.8974 19.6342 5.36673 26.179 8.78061C32.7237 12.1908 19.0478 17.3681 0 10.8974Z" fill="white"/>
<path d="M37.5852 8.01545C37.5852 8.01545 52.9516 3.16971 57.1543 7.25033C61.357 11.3346 50.291 16.4026 37.5852 8.01545Z" fill="white"/>
<path d="M34.8956 3.38104C34.8956 3.38104 54.1172 0.076462 59.1054 5.70918C64.0972 11.3382 50.3525 15.3387 34.8956 3.38104Z" fill="white"/>
<path d="M55.2032 16.614C53.5381 16.8763 50.4503 17.2297 47.5218 16.8362L47.0114 18.0276L46.787 18.5705C46.787 18.5705 50.4575 18.2863 52.2928 18.4211C51.7462 18.9603 51.015 20.68 51.015 20.68L53.8964 19.5068L63.1814 19.5688L68.7054 16.7961C61.9977 15.091 57.7806 15.6157 55.1996 16.6176" fill="white"/>
<path d="M37.5635 17.6597L25.3247 18.6579L22.1935 18.7563C22.1935 18.7563 25.3862 10.1834 44.2386 13.2584L37.5635 17.6597Z" fill="white"/>
<path d="M18.3167 20.1407C18.3167 20.1407 38.664 10.482 46.4612 13.721C54.2548 16.9564 40.4848 25.3435 18.3167 20.1407Z" fill="white"/>
<path d="M90.4934 18.2061C90.4934 18.2061 91.6337 17.2806 91.4599 16.0455C91.4599 16.0455 98.5911 20.0934 100.227 21.3904C100.227 21.3904 99.1377 21.6236 98.497 21.9734C98.497 21.9734 94.0879 19.0987 90.497 18.2061" fill="white"/>
<path d="M73.7515 18.4247C73.7515 18.4247 73.2266 19.8384 73.7515 21.2484C73.7515 21.2484 76.5279 20.5707 77.4039 19.8639C78.2799 19.1607 90.8192 20.1882 95.6083 23.3069L96.4843 22.8369C96.4843 22.8369 91.8074 18.8656 77.317 19.0259C77.317 19.0259 77.0238 18.3701 73.7478 18.4247" fill="white"/>
<path d="M60.4846 11.1525C60.4846 11.1525 60.6584 8.95549 61.3027 8.48914C61.3027 8.48914 67.4095 14.3113 79.6808 16.0492L80.1985 16.9674C80.1985 16.9674 73.8782 16.2059 65.7298 12.5989C65.7298 12.5989 63.5217 11.3383 60.4846 11.1561" fill="white"/>
<path d="M28.2242 12.2637C28.2242 12.2637 28.6333 10.4857 28.2242 9.36719C28.2242 9.36719 30.045 9.7206 30.9573 10.2926C31.026 10.3363 31.0912 10.3801 31.1491 10.4238C31.9636 11.0687 43.0658 10.8136 43.0658 10.8136L44.7707 11.5059L31.5545 11.5423C31.5545 11.5423 29.5093 12.7519 28.2242 12.2637Z" fill="white"/>
<path d="M49.3607 14.3077C49.3607 14.3077 48.8937 16.2241 49.7697 16.3553C49.7697 16.3553 51.5507 16.1622 52.8973 15.2804C54.2403 14.3987 61.8673 13.987 68.5279 14.7813C75.279 15.5865 83.8364 18.1842 83.8364 18.1842L81.3242 16.9673L79.2754 16.1949C79.2754 16.1949 70.7976 12.3912 53.2701 13.9324L51.9851 14.1218C51.9851 14.1218 49.8855 13.6081 49.357 14.3149" fill="white"/>
<path d="M78.8916 9.66236C78.8916 9.66236 74.8591 6.36872 74.1025 5.19189C74.1025 5.19189 80.0681 6.81321 83.4274 10.0595L78.8953 9.65872L78.8916 9.66236Z" fill="white"/>
<path d="M73.2266 1.30798C73.2266 1.30798 79.8003 8.87535 83.3079 10.8246L86.9025 11.1488C86.9025 11.1488 80.8537 4.74736 73.2266 1.30798Z" fill="white"/>
<path d="M65.2483 5.61449C65.2483 5.61449 79.7133 20.4541 88.2164 18.6033C96.7195 16.7488 84.6219 4.92589 73.2265 1.30798C73.2265 1.30798 84.6219 7.39612 85.4979 10.3947C85.4979 10.3947 70.6854 8.15395 65.2483 5.61449Z" fill="white"/>
<path d="M73.3315 19.2882C73.3315 23.4162 68.1514 24.6295 63.185 24.706H63.1922C52.224 25.9994 46.11 22.0135 46.11 22.0135C46.11 22.0135 46.1932 21.8678 46.3453 21.8678H46.11C46.11 21.8678 53.0059 16.1768 68.0247 16.3116L68.0935 16.3334C69.813 16.4063 71.2501 16.818 72.336 17.554C72.336 17.554 73.3677 18.1624 73.3243 19.2846" fill="white"/>
</g>
<defs>
<clipPath id="clip0_34_20">
<rect width="115" height="47" fill="white"/>
</clipPath>
</defs>
</svg>
