<svg width="125" height="67" viewBox="0 0 125 67" fill="none" xmlns="http://www.w3.org/2000/svg">
<g clip-path="url(#clip0_10_33)">
<path d="M80.0568 18.0732V0.765381H0.762451V44.2033H45.3793V61.4585H124.713V18.0732H80.0568Z" fill="black"/>
<path d="M63.6622 44.2033V19.9465H122.824V59.5851H47.2681V44.2033H63.6622Z" fill="white"/>
<path d="M120.759 63.8845H122.283V64.2423H121.753V66.313H121.295V64.2423H120.759V63.8845ZM123.078 66.313H122.622V63.8845H123.348L123.595 65.0132C123.634 65.1974 123.658 65.3869 123.679 65.5737H123.687C123.709 65.3316 123.727 65.1711 123.759 65.0132L124.003 63.8845H124.726V66.313H124.27V65.55C124.27 65.0685 124.278 64.5844 124.31 64.1029H124.305L123.815 66.313H123.539L123.059 64.1029H123.044C123.073 64.587 123.081 65.0685 123.081 65.55L123.078 66.313ZM68.0264 35.7757V26.0457H70.9809C71.7652 26.0457 72.5363 26.0983 73.0583 26.7587C73.4769 27.2902 73.5405 27.8506 73.5405 28.5111C73.5405 29.353 73.3577 30.1845 72.364 30.5476V30.5739C73.3974 30.716 73.7896 31.5711 73.7896 32.8288C73.7896 33.2314 73.7631 33.6339 73.6598 34.0234C73.2676 35.2574 72.5628 35.7757 71.2564 35.7757H68.0264ZM70.2495 34.347C70.6311 34.347 71.0206 34.3865 71.3465 34.2417C71.8447 34.0234 71.9083 33.3866 71.9083 32.8946C71.9083 31.8421 71.6989 31.4027 70.5622 31.4027H69.8574V34.347H70.2495ZM70.1965 29.9766C70.6417 29.9766 71.2167 30.0029 71.5029 29.6398C71.6725 29.3925 71.6989 29.0557 71.6989 28.59C71.6989 27.8638 71.5426 27.4981 70.7053 27.4744H69.8547V29.9766H70.1965ZM78.1935 34.6864H78.167C77.9047 35.5573 77.4092 35.9573 76.5851 35.9704C75.239 35.9704 74.9396 35.2811 74.9396 34.0628V28.4584H76.6381V33.4655C76.6381 33.7892 76.6249 34.1523 76.8077 34.4391C76.9534 34.5969 77.1098 34.6733 77.3324 34.6733C78.1273 34.6733 78.1167 33.7787 78.1167 33.2077V28.4584H79.8152V35.7757H78.1935V34.6864ZM82.714 33.3629C82.5842 34.7127 83.1062 34.6733 83.4957 34.6733C83.9806 34.6733 84.3225 34.3233 84.2032 33.855C84.1767 33.4392 83.6945 33.2077 83.3685 32.9867L82.4411 32.3499C81.5932 31.7658 81.042 31.0896 81.042 30.0398C81.042 28.911 81.943 28.2611 83.5779 28.2611C85.2234 28.2611 85.9812 29.1189 85.9415 30.687H84.243C84.2827 29.8687 84.0469 29.5583 83.4586 29.5583C83.0532 29.5583 82.7405 29.7398 82.7405 30.1555C82.7405 30.5844 83.0559 30.7765 83.3818 30.9975L84.765 31.9316C85.1969 32.1789 85.8752 32.8788 85.9282 33.3708C86.0713 34.6417 85.7586 35.9652 83.4056 35.9652C82.5047 35.9652 80.8195 35.5889 81.0155 33.3577H82.714M87.3511 28.4584H89.0496V35.7757H87.3511V28.4584ZM87.3511 26.0457H89.0496V27.577H87.3511V26.0457ZM92.3512 29.2109H92.3751C92.754 28.369 93.5119 28.2637 93.904 28.2637C94.8712 28.2637 95.6555 28.8215 95.6025 30.1319V35.7757H93.904V30.8975C93.904 30.1845 93.8272 29.7188 93.1859 29.6925C92.5447 29.6661 92.3221 30.2634 92.3512 31.0422V35.7757H90.6528V28.4584H92.3512V29.2109ZM97.0016 30.9738C96.9248 29.2478 97.8124 28.2611 99.4844 28.2611C101.851 28.2611 102.097 29.4793 102.097 31.479V32.4657H98.7001V33.5287C98.7133 34.4891 99.079 34.6706 99.5878 34.6706C100.213 34.6706 100.399 34.2181 100.372 33.2972H102.071C102.134 34.9311 101.456 35.9704 99.7176 35.9704C97.7594 35.9704 96.9619 35.0495 97.0016 32.8972V30.9738ZM100.401 31.1685V30.5344C100.388 29.7951 100.192 29.5609 99.5136 29.5609C98.663 29.5609 98.7028 30.2108 98.7028 30.8712V31.1685H100.401ZM105.118 33.3629C104.988 34.7127 105.51 34.6733 105.902 34.6733C106.387 34.6733 106.726 34.3233 106.61 33.855C106.583 33.4392 106.101 33.2077 105.772 32.9867L104.845 32.3499C103.997 31.7658 103.448 31.0896 103.448 30.0398C103.448 28.911 104.349 28.2611 105.984 28.2611C107.632 28.2611 108.388 29.1189 108.348 30.687H106.647C106.687 29.8687 106.451 29.5583 105.862 29.5583C105.457 29.5583 105.144 29.7398 105.144 30.1555C105.144 30.5844 105.46 30.7765 105.786 30.9975L107.171 31.9316C107.603 32.1789 108.282 32.8788 108.332 33.3708C108.478 34.6417 108.162 35.9652 105.812 35.9652C104.909 35.9652 103.223 35.5889 103.422 33.3577H105.118M111.114 33.3629C110.984 34.7127 111.506 34.6733 111.899 34.6733C112.384 34.6733 112.723 34.3233 112.603 33.855C112.577 33.4392 112.095 33.2077 111.769 32.9867L110.841 32.3499C109.991 31.7658 109.442 31.0896 109.442 30.0398C109.442 28.911 110.343 28.2611 111.978 28.2611C113.624 28.2611 114.381 29.1189 114.342 30.687H112.643C112.683 29.8687 112.447 29.5583 111.859 29.5583C111.456 29.5583 111.141 29.7398 111.141 30.1555C111.141 30.5844 111.456 30.7765 111.782 30.9975L113.165 31.9316C113.597 32.1789 114.275 32.8788 114.328 33.3708C114.472 34.6417 114.159 35.9652 111.806 35.9652C110.905 35.9652 109.217 35.5889 109.416 33.3577H111.114M68.0661 49.4394V39.7093H71.8023C73.5538 39.7093 74.089 41.1091 74.089 42.472C74.089 43.3008 73.8691 44.2375 73.1749 44.7822C72.5999 45.2374 71.8288 45.3795 71.1239 45.3663H69.8971V49.442L68.0661 49.4394ZM69.8971 43.9376H70.8775C71.6751 43.9376 72.2104 43.6008 72.2104 42.4194C72.2104 41.3038 71.7678 41.1354 70.7344 41.1354H69.8998L69.8971 43.9376ZM78.3234 49.4394C78.2182 49.2032 78.1815 48.9426 78.2174 48.6868H78.1909C77.7987 49.2946 77.2767 49.6341 76.7017 49.6341C75.3291 49.6341 74.7303 48.9473 74.7303 47.4423C74.7303 45.7689 75.92 45.3663 77.2529 44.8217C77.971 44.5243 78.2306 44.2007 78.0875 43.6034C78.008 43.2772 77.7457 43.2272 77.29 43.2272C76.5189 43.2272 76.389 43.6297 76.4023 44.2902H74.7833C74.77 42.9035 75.2258 41.93 77.3562 41.93C79.6695 41.93 79.8125 43.1377 79.786 44.0981V48.4185C79.786 48.7684 79.839 49.1052 79.9291 49.4446H78.3234V49.4394ZM78.0902 45.5847C77.6715 45.8689 77.1628 46.1557 76.715 46.5188C76.4685 46.7266 76.4288 47.0897 76.4288 47.4002C76.4288 47.958 76.5984 48.3369 77.2264 48.3369C78.2306 48.3369 78.0504 47.0766 78.0902 46.3767V45.5847ZM82.8068 43.4193H82.8333C83.0426 42.8878 83.2519 42.5904 83.501 42.3799C83.9833 41.9774 84.3092 42.0037 84.5583 41.9905V43.9876C83.6176 43.8981 82.8995 44.1297 82.873 45.2084V49.4367H81.1745V42.1195H82.8068V43.4193ZM88.4879 49.463C87.4836 49.5788 86.0686 49.6709 86.0686 48.3106V43.3561H85.3771V42.1221H86.0554V40.1092H87.7671V42.1221H88.4852V43.3561H87.7671V47.8949C87.8069 48.208 88.2759 48.1685 88.4852 48.1422L88.4879 49.463ZM91.5166 42.8746H91.5404C91.9193 42.0326 92.6772 41.9274 93.0693 41.9274C94.0365 41.9274 94.8208 42.4852 94.7678 43.7955V49.442H93.0693V44.5638C93.0693 43.8508 92.9925 43.3824 92.3512 43.3587C91.71 43.3324 91.4874 43.9297 91.5166 44.7059V49.442H89.8181V42.1247H91.5166V42.8746ZM96.1696 44.6375C96.0927 42.9114 96.9804 41.9247 98.6524 41.9247C101.019 41.9247 101.265 43.1456 101.265 45.1427V46.1294H97.8681V47.1923C97.8813 48.1527 98.247 48.3369 98.7557 48.3369C99.3811 48.3369 99.5666 47.8817 99.5401 46.9608H101.239C101.302 48.5974 100.624 49.6341 98.8856 49.6341C96.9274 49.6341 96.1298 48.7132 96.1696 46.5582V44.6375ZM99.5666 44.8322V44.1981C99.5533 43.4587 99.3572 43.2245 98.6789 43.2245C97.8283 43.2245 97.8681 43.8744 97.8681 44.5349V44.8322H99.5666ZM104.376 43.4193H104.402C104.612 42.8878 104.821 42.5904 105.067 42.3799C105.552 41.9774 105.878 42.0037 106.125 41.9905V43.9876C105.187 43.8981 104.466 44.1297 104.439 45.2084V49.4367H102.738V42.1195H104.373L104.376 43.4193Z" fill="black"/>
<path d="M9.81897 11.2374H18.9474V12.4162H9.81897V11.2374ZM9.81897 13.716H18.9474V14.8895H9.81897V13.716ZM12.4263 16.184H16.3427V17.3628H12.4263V16.184ZM12.4263 18.6573H16.3427V19.8335H12.4263V18.6573ZM12.4263 21.1254H16.3427V22.3041H12.4263V21.1254ZM12.4263 23.5987H16.3427V24.7827H12.4263V23.5987ZM9.81897 26.072H18.9474V27.2534H9.81897V26.072ZM9.81897 28.5453H18.9474V29.7214H9.81897V28.5453ZM20.2485 13.716H34.3187C34.438 13.9291 34.6712 14.608 34.7242 14.8895H20.2485V13.716ZM22.8585 16.184H26.7669V17.3628H22.8585V16.184ZM30.6806 16.184H34.8513C34.8646 16.4577 34.7507 17.0997 34.6738 17.3628H30.6806V16.184ZM22.8585 21.1254H32.9064C33.2217 21.3411 33.7358 21.9568 33.9902 22.3041H22.8585V21.1254ZM22.8585 23.5987H26.7669V24.7827H22.8585V23.5987ZM30.6806 23.5987H34.65C34.7374 23.7802 34.8646 24.5248 34.8752 24.7827H30.6806V23.5987ZM20.2485 26.072H34.7109C34.6465 26.4802 34.5233 26.8772 34.3452 27.2507H20.2485V26.072ZM20.2485 28.5453H33.3251C32.1645 29.5109 31.1443 29.7214 29.3478 29.7214H20.2485V28.5453ZM35.8954 11.2374H43.3518L43.7466 12.4162H35.8954V11.2374ZM35.8954 13.716H44.1759L44.5681 14.8895H35.8954V13.716ZM38.5027 16.184H45.0026L45.3974 17.3654H38.5027V16.184ZM46.8283 18.6573H54.1496V19.8335H50.2386V18.7968L49.8782 19.8335H46.4361L46.8283 18.6573ZM46.2215 19.8335H42.7742L42.4138 18.7942V19.8335H38.5027V18.6573H45.8293L46.2215 19.8335ZM38.5027 21.1254H42.4138V22.3041H38.5027V21.1254ZM38.5027 23.5987H42.4138V24.7827H38.5027V23.5987ZM35.8954 26.072H42.4138V27.2534H35.8954V26.072ZM35.8954 28.5453H42.4138V29.7214H35.8954V28.5453ZM49.3111 11.2374H56.757V12.4162H48.911L49.3111 11.2374ZM48.4818 13.716H56.757V14.8895H48.0896L48.4818 13.716ZM47.655 16.184H54.1496V17.3654H47.2602L47.655 16.184ZM50.2386 21.1254H54.1496V22.3041H50.2386V21.1254ZM50.2386 23.5987H54.1496V24.7827H50.2386V23.5987ZM50.2386 26.072H56.757V27.2534H50.2386V26.072ZM50.2386 28.5453H56.757V29.7214H50.2386V28.5453ZM43.214 21.1254H49.4436L49.0409 22.3068H43.6194L43.214 21.1254ZM44.0566 23.5987H48.5983L48.1956 24.7827H44.4594L44.0566 23.5987ZM44.8993 26.072H47.7531L47.353 27.2507H45.3073L44.8993 26.072ZM45.7472 28.5453H46.9157L46.5103 29.7188H46.1473L45.7472 28.5453ZM22.8585 19.8361H32.9064C33.235 19.6098 33.8338 18.9889 34.075 18.6573H22.8585V19.8361ZM20.2485 12.4162H33.3251C32.1645 11.4506 31.1443 11.2427 29.3478 11.2427H20.2485V12.4162ZM59.2743 12.5004C59.275 12.1634 59.4105 11.8404 59.651 11.6025C59.8915 11.3647 60.2173 11.2315 60.5568 11.2322C60.8962 11.2329 61.2215 11.3674 61.461 11.6063C61.7005 11.8451 61.8347 12.1686 61.834 12.5057C61.8333 12.8427 61.6977 13.1657 61.4572 13.4035C61.2167 13.6414 60.8909 13.7746 60.5515 13.7739C60.212 13.7732 59.8868 13.6386 59.6473 13.3998C59.4077 13.161 59.2736 12.8375 59.2743 12.5004ZM61.5955 12.5004C61.5944 12.2966 61.5326 12.0977 61.4179 11.9288C61.3031 11.7599 61.1405 11.6285 60.9506 11.5513C60.7607 11.474 60.552 11.4543 60.3509 11.4947C60.1498 11.5351 59.9652 11.6337 59.8204 11.7782C59.6757 11.9227 59.5773 12.1064 59.5376 12.3064C59.498 12.5063 59.5189 12.7134 59.5976 12.9016C59.6764 13.0897 59.8095 13.2505 59.9802 13.3636C60.1509 13.4767 60.3516 13.5371 60.5568 13.5371C60.6936 13.5371 60.8291 13.5102 60.9555 13.4581C61.0819 13.4059 61.1966 13.3295 61.2931 13.2331C61.3896 13.1368 61.466 13.0225 61.5179 12.8967C61.5698 12.771 61.5962 12.6363 61.5955 12.5004ZM61.1954 13.195H60.88L60.5727 12.6135H60.3024V13.195H60.0295V11.8189H60.6999C60.8164 11.8189 60.9701 11.8216 61.0735 11.8873C61.198 11.9663 61.2378 12.1005 61.2378 12.2425C61.2378 12.4899 61.1053 12.5951 60.8615 12.6109L61.1954 13.195ZM60.7078 12.4083C60.8615 12.4109 60.9675 12.3767 60.9675 12.2005C60.9675 12.0215 60.7714 12.0215 60.6389 12.0215H60.3024V12.4057H60.7078" fill="white"/>
</g>
<defs>
<clipPath id="clip0_10_33">
<rect width="123.988" height="65.5476" fill="white" transform="translate(0.750244 0.765381)"/>
</clipPath>
</defs>
</svg>
