<svg width="187" height="40" viewBox="0 0 187 40" fill="none" xmlns="http://www.w3.org/2000/svg">
<g clip-path="url(#clip0_10_54)">
<path d="M180.282 27.4606V24.0807H172.614V20.7009H179.476V17.5408H172.614V14.4632H179.865V11.1384H168.78V27.4606H180.282ZM159.501 17.1561C159.334 17.4034 159.084 17.6233 158.806 17.7607C158.501 17.8981 158.195 17.9805 157.862 18.0354C157.528 18.0904 157.195 18.1179 156.861 18.1179H154.972V14.3259H157.112C157.417 14.3259 157.723 14.3533 158.028 14.3808C158.334 14.4358 158.612 14.5182 158.89 14.6556C159.14 14.793 159.362 14.9853 159.529 15.2052C159.695 15.4799 159.779 15.8097 159.779 16.1394C159.779 16.4967 159.695 16.8539 159.501 17.1561ZM164.585 27.4606L160.279 20.481C161.279 20.2062 162.168 19.6567 162.807 18.8598C163.418 18.0629 163.752 17.0737 163.724 16.057C163.752 15.2601 163.557 14.4358 163.196 13.7213C162.862 13.1168 162.362 12.5947 161.751 12.21C161.14 11.8253 160.445 11.5231 159.723 11.3857C158.973 11.2208 158.195 11.1384 157.417 11.1384H151.138V27.4606H155.028V20.9756H156.389L159.973 27.4606H164.585ZM142.109 21.2779C141.887 21.8549 141.553 22.4045 141.137 22.8717C140.72 23.3113 140.192 23.6685 139.636 23.9158C138.414 24.4379 137.025 24.4379 135.802 23.9158C135.247 23.6685 134.747 23.3113 134.33 22.8717C133.913 22.4045 133.58 21.8549 133.358 21.2779C132.885 19.9864 132.885 18.5575 133.358 17.266C133.552 16.689 133.885 16.1394 134.33 15.6998C135.219 14.793 136.441 14.2709 137.719 14.2709C138.386 14.2709 139.025 14.3808 139.636 14.6556C140.192 14.9029 140.72 15.2601 141.137 15.6998C141.553 16.1669 141.887 16.689 142.109 17.266C142.359 17.8981 142.47 18.5575 142.47 19.2445C142.47 19.9315 142.359 20.6184 142.109 21.2779ZM146.054 15.6998C145.637 14.6831 144.998 13.7488 144.165 13.0069C143.331 12.265 142.359 11.6879 141.303 11.3032C138.97 10.5063 136.469 10.5063 134.135 11.3032C133.08 11.6879 132.135 12.265 131.302 13.0069C130.496 13.7763 129.857 14.6831 129.412 15.6998C128.94 16.8264 128.718 18.0354 128.746 19.2445C128.746 20.4535 128.968 21.6351 129.412 22.7617C129.829 23.8059 130.468 24.7402 131.302 25.5096C132.107 26.279 133.08 26.8835 134.135 27.2682C136.441 28.0926 138.997 28.0926 141.303 27.2682C142.359 26.8835 143.331 26.279 144.165 25.5096C144.971 24.7402 145.61 23.8059 146.054 22.7617C146.526 21.6351 146.749 20.4261 146.721 19.217C146.749 18.008 146.499 16.8264 146.054 15.6998ZM126.356 25.1798L123.578 22.5969C123.189 23.0915 122.717 23.5037 122.161 23.8059C121.522 24.1357 120.8 24.2731 120.078 24.2731C119.439 24.2731 118.8 24.1631 118.188 23.9158C117.633 23.6685 117.133 23.3388 116.716 22.8991C116.299 22.432 115.966 21.9099 115.743 21.3329C115.493 20.6734 115.382 19.9864 115.382 19.2995C115.382 18.6125 115.493 17.953 115.743 17.321C115.966 16.744 116.299 16.1944 116.716 15.7273C117.133 15.2876 117.66 14.9304 118.216 14.6831C118.827 14.4358 119.466 14.2984 120.133 14.2984C120.772 14.2984 121.411 14.4358 121.995 14.6556C122.578 14.9029 123.106 15.2876 123.467 15.8097L126.162 13.1443C125.412 12.3199 124.467 11.7154 123.411 11.3582C121.161 10.5613 118.716 10.5613 116.466 11.3582C115.41 11.7154 114.438 12.2924 113.604 13.0618C112.799 13.8312 112.132 14.7655 111.715 15.7822C111.243 16.9088 111.02 18.1179 111.02 19.3269C110.993 20.536 111.243 21.7176 111.687 22.8167C112.548 24.9051 114.243 26.5263 116.382 27.3232C117.522 27.7353 118.716 27.9552 119.911 27.9552C121.189 27.9826 122.439 27.7353 123.606 27.2407C124.662 26.7461 125.578 26.0317 126.356 25.1798ZM107.353 27.4606V24.0807H99.6852V20.7009H106.52V17.5408H99.6852V14.4632H106.936V11.1384H95.8512V27.4606H107.353ZM91.4616 14.4907V11.1384H78.1538V14.4907H82.8213V27.4331H86.7942V14.4907H91.4616ZM73.792 11.1384H69.7913V27.4606H73.792V11.1384ZM64.9294 12.7321C64.1793 12.0726 63.318 11.5505 62.3734 11.2483C61.4566 10.9185 60.4842 10.7537 59.5118 10.7537C58.7339 10.7537 57.956 10.8361 57.2059 11.0284C56.4835 11.2208 55.789 11.5231 55.15 11.9627C54.5388 12.3749 54.0387 12.9245 53.6775 13.5565C53.2886 14.2709 53.0941 15.0678 53.1219 15.8921C53.0663 17.1012 53.5386 18.2553 54.4276 19.0796C54.8166 19.4368 55.2889 19.7391 55.789 19.9589C56.2891 20.1788 56.8169 20.3986 57.3448 20.5635C57.9004 20.7283 58.3727 20.8932 58.7895 21.0306C59.1784 21.1405 59.5396 21.3054 59.873 21.5252C60.123 21.6901 60.3453 21.8824 60.5398 22.1023C60.7065 22.3221 60.7898 22.5969 60.762 22.8717C60.762 23.1464 60.7065 23.4487 60.5676 23.696C60.4564 23.9158 60.2897 24.1082 60.0675 24.2456C59.8452 24.383 59.5952 24.4929 59.3451 24.5478C59.0673 24.6028 58.7617 24.6303 58.4839 24.6303C57.7893 24.6303 57.1225 24.4654 56.5113 24.1357C55.9001 23.8334 55.3445 23.4212 54.9277 22.8991L52.3162 25.5371C53.0941 26.3065 54.0387 26.911 55.0666 27.2682C56.1501 27.6804 57.317 27.9002 58.4839 27.9002C59.2896 27.9002 60.0675 27.7903 60.8454 27.5705C61.5677 27.3781 62.2623 27.0209 62.8735 26.5812C63.4569 26.1141 63.9292 25.5371 64.2626 24.8776C64.6238 24.1357 64.8183 23.2838 64.7905 22.4595C64.8183 21.745 64.6516 21.0306 64.2904 20.4261C63.9848 19.904 63.5681 19.4368 63.068 19.0521C62.5679 18.6674 62.0122 18.3927 61.4288 18.1728C60.8176 17.953 60.2342 17.7332 59.6785 17.5683C59.2896 17.4584 58.9284 17.321 58.6228 17.2111C58.345 17.1012 58.0671 16.9913 57.8171 16.8264C57.4003 16.5791 57.1225 16.1394 57.1503 15.6448C57.1503 15.37 57.2059 15.0952 57.3726 14.8479C57.5115 14.6556 57.706 14.4632 57.9282 14.3533C58.1505 14.2159 58.4005 14.1335 58.6506 14.0785C58.9284 14.0236 59.1784 14.0236 59.4563 14.0236C60.5953 14.0511 61.6511 14.5732 62.3734 15.425L64.9294 12.7321Z" fill="black"/>
<path d="M20.0054 29.3017C21.5612 29.1093 23.0892 28.6422 24.4506 27.8728C27.8122 26.0043 29.757 22.8168 29.9237 18.8873L29.9515 18.5576H34.6189C34.3411 16.2769 33.4521 14.1061 32.0907 12.2375L27.3122 15.2327C28.7568 17.4035 28.9513 20.1513 27.84 22.487C26.5342 25.4547 23.4504 28.0377 20.0054 29.3017Z" fill="#EB1F1F"/>
<path d="M34.6744 19.2444H30.6182C30.3403 23.2288 28.2289 26.5811 24.7839 28.4771C22.7835 29.5488 20.5609 30.1259 18.2828 30.0984C16.4769 30.0984 14.671 29.7686 12.9763 29.1366C15.0044 30.4281 17.3937 31.1151 19.8108 31.1151H19.8386C24.2004 31.1151 28.2011 28.7794 30.3126 24.9874L30.507 24.6576L33.2297 26.3613C34.2021 24.4653 34.73 22.3494 34.73 20.2061C34.7022 19.9039 34.7022 19.5741 34.6744 19.2444Z" fill="#EB1F1F"/>
<path d="M19.8386 31.8296C15.4768 31.8296 11.3927 29.6863 8.47559 26.0316C11.6983 32.8463 19.922 35.7865 26.7842 32.5715C29.3402 31.3899 31.4795 29.439 32.8964 27.0209L30.7849 25.7019C28.4789 29.5214 24.3394 31.8571 19.8386 31.8296Z" fill="#EB1F1F"/>
<path d="M20.9221 34.5774C12.9208 34.5774 6.41967 28.1475 6.41967 20.2337C6.41967 12.3199 12.9208 5.88993 20.9221 5.88993C28.9234 5.88993 35.4245 12.3199 35.4245 20.2337C35.4245 28.1475 28.9512 34.5774 20.9221 34.5774C20.9499 34.5774 20.9499 34.5774 20.9221 34.5774ZM20.9221 0.50415C9.89248 0.50415 0.946533 9.32473 0.946533 20.2337C0.946533 31.1426 9.8647 39.9907 20.8943 39.9907C31.924 39.9907 40.8699 31.1701 40.8699 20.2612V20.2337C40.8699 9.35221 31.9517 0.50415 20.9499 0.50415H20.9221Z" fill="#EB1F1F"/>
<path d="M184.561 12.677V12.1549H184.866C184.95 12.1549 185.033 12.1824 185.116 12.2099C185.2 12.2373 185.255 12.3198 185.228 12.4022C185.228 12.4846 185.172 12.5945 185.089 12.622C185.005 12.6495 184.894 12.677 184.811 12.677H184.561ZM184.227 13.6937H184.561V12.9243H184.783L185.2 13.6937H185.616L185.116 12.8968C185.228 12.8693 185.339 12.8144 185.422 12.7319C185.505 12.6495 185.533 12.5121 185.533 12.4022C185.533 12.2373 185.45 12.0725 185.311 11.99C185.255 11.9351 185.172 11.9076 185.089 11.9076C185.005 11.8801 184.922 11.8801 184.839 11.8801H184.227V13.6937ZM183.588 12.2648C183.727 11.9351 183.977 11.6878 184.311 11.5504C184.672 11.413 185.033 11.413 185.394 11.5504C185.561 11.6053 185.728 11.7152 185.839 11.8526C186.089 12.0999 186.228 12.4572 186.228 12.8144C186.228 13.0067 186.2 13.1716 186.117 13.3365C185.978 13.6662 185.728 13.941 185.394 14.0784C185.033 14.2158 184.672 14.2158 184.311 14.0784C184.144 14.0234 183.977 13.9135 183.866 13.7761C183.727 13.6387 183.644 13.5013 183.561 13.3365C183.477 13.1716 183.449 13.0067 183.449 12.8144C183.449 12.622 183.505 12.4297 183.588 12.2648ZM183.366 13.4189C183.616 14.0234 184.227 14.3806 184.866 14.3806C185.311 14.3806 185.728 14.2158 186.033 13.9135C186.172 13.7761 186.311 13.6113 186.394 13.4189C186.561 13.0067 186.561 12.5671 186.394 12.1549C186.311 11.9625 186.2 11.7977 186.033 11.6603C185.894 11.5229 185.7 11.3855 185.505 11.3305C185.089 11.1382 184.644 11.1382 184.227 11.3305C184.033 11.413 183.866 11.5229 183.699 11.6603C183.561 11.7977 183.422 11.99 183.338 12.1824C183.172 12.5671 183.172 13.0342 183.366 13.4189Z" fill="black"/>
</g>
<defs>
<clipPath id="clip0_10_54">
<rect width="185.587" height="39.4865" fill="white" transform="translate(0.946533 0.50415)"/>
</clipPath>
</defs>
</svg>
