<svg xmlns="http://www.w3.org/2000/svg" width="250.865" height="24.018" viewBox="0 0 250.865 24.018">
  <g id="Group_1037" data-name="Group 1037" transform="translate(14201 14925.418)">
    <path id="Path_1045" data-name="Path 1045" d="M.5,13.5h0A11.666,11.666,0,0,1,12.3,1.7,11.5,11.5,0,0,1,24.1,13.295h0A11.5,11.5,0,0,1,12.3,24.89C5.469,24.89.5,19.92.5,13.5Zm19.463,0h0c0-4.348-3.106-8.075-7.661-8.075S4.641,9.154,4.641,13.5h0c0,4.348,3.106,8.075,7.661,8.075S19.963,18.057,19.963,13.5Z" transform="translate(-14201.5 -14926.704)"/>
    <path id="Path_1046" data-name="Path 1046" d="M13,4.814h3.934V7.3A6,6,0,0,1,22.11,4.4a5.836,5.836,0,0,1,5.176,2.9,6.713,6.713,0,0,1,5.8-2.9c3.727,0,6,2.278,6,6.419V21.792H35.154V12.268c0-2.692-1.242-4.141-3.52-4.141-2.07,0-3.727,1.449-3.727,4.141v9.524H23.974V12.268c0-2.692-1.242-4.141-3.52-4.141s-3.727,1.656-3.727,4.141v9.524H13Z" transform="translate(-14187.119 -14923.813)"/>
    <path id="Path_1047" data-name="Path 1047" d="M27.007,4.707h3.934V7.4a5.942,5.942,0,0,1,5.383-2.9c3.934,0,6,2.485,6,6.419V21.892H38.395V12.161c0-2.692-1.242-4.141-3.727-4.141a3.863,3.863,0,0,0-3.934,4.141v9.524H26.8V4.707Z" transform="translate(-14171.346 -14923.706)"/>
    <rect id="Rectangle_4326" data-name="Rectangle 4326" width="4.141" height="3.727" transform="translate(-14125.119 -14925.211)" fill="#f48220"/>
    <rect id="Rectangle_4327" data-name="Rectangle 4327" width="3.934" height="16.978" transform="translate(-14125.119 -14918.999)"/>
    <path id="Path_1048" data-name="Path 1048" d="M38.7,13.4h0c0-4.969,3.52-8.9,8.282-8.9,5.383,0,8.075,4.348,8.075,9.11v1.035H42.634A4.922,4.922,0,0,0,47.6,18.993a5.589,5.589,0,0,0,4.555-2.07l2.278,2.07A9.023,9.023,0,0,1,47.4,22.1,8.49,8.49,0,0,1,38.7,13.4Zm12.63-1.242c-.207-2.485-1.656-4.555-4.348-4.555-2.485,0-4.141,1.863-4.348,4.555Z" transform="translate(-14156.607 -14923.706)"/>
    <path id="Path_1049" data-name="Path 1049" d="M50.9,21.47l2.278-2.9a10.225,10.225,0,0,0,7.04,2.9c2.485,0,3.934-1.242,3.934-2.9h0c0-1.656-.828-2.485-5.176-3.52-4.555-1.035-7.247-2.485-7.247-6.626h0c0-3.934,3.313-6.626,7.661-6.626a12.6,12.6,0,0,1,8.282,2.9L65.6,7.6A10.944,10.944,0,0,0,59.389,5.32c-2.278,0-3.727,1.242-3.727,2.692h0c0,1.656,1.035,2.485,5.383,3.52,4.762,1.242,7.247,2.9,7.247,6.626h0c0,4.141-3.313,6.833-8.075,6.833A14.507,14.507,0,0,1,50.9,21.47Z" transform="translate(-14141.547 -14926.597)"/>
    <path id="Path_1050" data-name="Path 1050" d="M60,13.4h0a9.113,9.113,0,0,1,18.22,0h0a9.015,9.015,0,0,1-9.11,8.9C63.727,22.1,60,18.165,60,13.4Zm14.286,0h0c0-3.106-2.07-5.59-5.176-5.59A5.173,5.173,0,0,0,63.934,13.2h0a5.173,5.173,0,0,0,5.176,5.383A4.89,4.89,0,0,0,74.286,13.4Z" transform="translate(-14130.806 -14923.706)"/>
    <path id="Path_1051" data-name="Path 1051" d="M69.8,1.5h3.934V25.1H69.8Z" transform="translate(-14119.314 -14926.918)"/>
    <path id="Path_1052" data-name="Path 1052" d="M73.2,15.574V4.6h3.727v9.731c0,2.692,1.242,4.141,3.727,4.141,2.278,0,3.934-1.449,3.934-4.141V4.6h3.934V21.578H84.588V18.886a5.942,5.942,0,0,1-5.383,2.9C75.27,21.992,73.2,19.508,73.2,15.574Z" transform="translate(-14114.675 -14923.6)"/>
    <path id="Path_1053" data-name="Path 1053" d="M83.47,19.378v-8.9H81.4V6.955h2.07V2.4H87.4V7.162H91.96v3.313H87.4v8.282a1.857,1.857,0,0,0,2.07,2.07,5.513,5.513,0,0,0,2.485-.621v3.106a6.345,6.345,0,0,1-3.52.828C85.541,24.347,83.47,23.1,83.47,19.378Z" transform="translate(-14104.897 -14925.954)"/>
    <path id="Path_1054" data-name="Path 1054" d="M87.5,1.6h4.141V5.327H87.5Zm0,6.211h3.934V24.79H87.5Z" transform="translate(-14097.367 -14926.811)"/>
    <path id="Path_1055" data-name="Path 1055" d="M90.5,13.4h0a9.113,9.113,0,0,1,18.22,0h0a9.015,9.015,0,0,1-9.11,8.9A9.15,9.15,0,0,1,90.5,13.4Zm14.286,0h0c0-3.106-2.07-5.59-5.176-5.59A5.173,5.173,0,0,0,94.434,13.2h0a5.173,5.173,0,0,0,5.176,5.383A4.89,4.89,0,0,0,104.786,13.4Z" transform="translate(-14093.155 -14923.706)"/>
    <path id="Path_1056" data-name="Path 1056" d="M100.407,4.707h3.934V7.4a5.942,5.942,0,0,1,5.383-2.9c3.934,0,6,2.485,6,6.419V21.892h-3.934V12.161c0-2.692-1.242-4.141-3.727-4.141a3.863,3.863,0,0,0-3.934,4.141v9.524H100.2V4.707Z" transform="translate(-14081.772 -14923.706)"/>
    <path id="Path_1057" data-name="Path 1057" d="M108.3,19.615l1.656-2.692a9.377,9.377,0,0,0,5.59,2.07c1.656,0,2.692-.621,2.692-1.863h0c0-1.242-1.863-1.863-3.727-2.485-2.485-.621-5.383-1.656-5.383-4.969h0c0-3.313,2.692-5.176,6-5.176a12.829,12.829,0,0,1,6.211,1.863l-1.449,2.692A9.428,9.428,0,0,0,115.133,7.4c-1.449,0-2.485.828-2.485,1.656h0c0,1.242,1.863,1.863,3.934,2.485,2.485.828,5.383,1.863,5.383,4.969h0c0,3.52-2.692,5.383-6.419,5.383A11.122,11.122,0,0,1,108.3,19.615Z" transform="translate(-14072.101 -14923.706)"/>
  </g>
</svg>
